<svg width="96" height="96" viewBox="0 0 96 96" fill="none" xmlns="http://www.w3.org/2000/svg">
<mask id="path-1-inside-1_1_88" fill="white">
<path d="M58.9131 20.5186C54.51 19.4041 51.6359 19.0774 47.0708 19.1716L44.3143 19.2119L43.9453 18.7209C42.5501 16.8982 39.3851 15.3772 36.2489 15.0198C34.2612 14.7777 30.6124 14.8113 28.8849 15.089C26.1177 15.5166 23.1531 16.439 20.9544 17.5554C16.9819 19.5645 12.1259 24.5637 9.89732 28.9394C9.81254 29.1133 9.39534 29.9953 9.58033 30.2903C9.6208 30.3556 9.68825 30.3931 9.75473 30.3931C9.81928 30.3998 10.5236 30.5344 11.4803 30.7332C18.484 32.1908 24.7265 31.9948 31.7195 30.101C35.5378 29.0768 39.0767 27.1753 41.4286 24.8856C42.7448 23.6135 44.2912 21.5765 44.611 20.6916L44.7276 20.3649L48.8283 20.4312C52.2034 20.485 53.2777 20.5513 54.5755 20.7848C58.4025 21.4881 63.694 23.0754 66.3735 24.3235L67.0711 24.6425L66.625 24.6935C66.0825 24.7511 65.1653 24.877 64.6219 24.9692C63.7904 25.1162 63.4589 25.1162 62.7527 24.9692C60.3806 24.4802 59.7071 24.4187 56.7453 24.4187C54.1333 24.4321 53.4424 24.4802 52.1282 24.7367C46.5062 25.8638 41.3891 29.4957 37.7182 34.9657C36.7393 36.4262 36.1651 37.3601 36.4368 38.0173C36.7152 38.6909 37.8126 38.9791 40.0768 39.4355C42.0751 39.8362 45.799 39.8429 48.0449 39.4499C52.3479 38.7072 55.3858 36.9911 58.5297 33.5254C60.368 31.4817 61.2207 30.3931 62.6775 28.2351C63.5408 26.9754 64.091 26.3298 64.2027 26.274C64.7847 26.055 67.1732 25.8465 68.4594 25.8993C70.0887 25.9791 70.5849 26.2125 74.3503 28.6713C77.1559 30.5132 78.0433 31.1752 80.2863 33.0998L81.3895 34.0347L80.506 34.0933C79.7632 34.1519 79.2197 34.124 79.1398 34.0942C79.0232 34.0356 78.3805 33.7906 77.681 33.5533C74.6807 32.4858 70.7477 32.529 67.6617 33.6628C65.5006 34.4536 63.9628 35.3635 61.9848 37.018C60.8045 38.0135 58.8226 40.1705 57.9063 41.4571C57.2425 42.3891 55.8463 44.8258 55.8463 45.1995C55.8463 45.802 56.0622 45.8644 61.6138 46.8493C62.6515 47.029 65.1701 47.028 66.4284 46.8493C67.9931 46.6139 70.0685 46.0624 71.0561 45.6185C72.3269 45.0458 74.1113 43.8419 75.3003 42.7561C77.0702 41.115 78.0366 39.6354 79.6071 36.1591L79.9809 35.326H80.6977C82.5486 35.326 83.1229 35.7401 84.7955 38.2758C87.8122 42.8368 90.8867 50.5696 90.8867 53.5991C90.8867 54.1093 91.0322 54.5138 91.2759 54.6829C91.354 54.7367 91.4397 54.7636 91.5284 54.7636C91.5804 54.7636 91.6334 54.754 91.6864 54.7348C92.2231 54.534 91.9716 52.7161 91.6671 51.2268C91.1016 48.476 89.745 44.8863 87.9442 41.3783L87.8421 41.1784C86.8554 39.2568 86.8554 39.2568 85.3495 36.945L85.1751 36.6779C83.4485 34.0548 83.2934 33.5235 83.6711 31.5086C84.2473 28.5118 84.2087 26.7823 83.515 24.6541C82.8714 22.6853 82.0698 21.3411 80.5571 19.6943C79.2506 18.2857 75.544 15.9095 74.8185 16.192C74.5044 16.3169 74.5073 16.5591 74.5767 17.8293C74.6865 19.4416 75.1143 21.2633 75.8504 23.2416C76.8467 25.8782 78.1214 28.0045 79.8634 29.9338C81.4666 31.6989 82.1382 32.8192 82.2364 33.1555C82.0794 33.0469 81.7807 32.8058 81.3741 32.431C79.2381 30.4508 74.146 26.8774 71.0946 25.2162C69.9837 24.6147 69.8931 24.534 69.4885 23.7797C69.052 22.988 68.9046 22.3884 68.3641 19.1946C67.9979 16.9895 66.8273 14.3549 65.3811 12.4842C64.5862 11.459 63.0831 10.0081 61.9578 9.18083C60.1156 7.84432 56.9813 6.62214 54.3385 6.20898C52.661 5.93034 49.4536 5.93034 47.9823 6.20898C45.6892 6.6058 45.3414 7.00167 45.2961 7.29856C45.2373 7.62717 45.4994 7.84912 46.4995 8.4996C47.172 8.94159 48.2299 9.78904 48.8562 10.3876C50.5828 12.0287 53.3702 14.5644 54.1814 15.2322C55.302 16.1565 56.2924 16.7339 59.761 18.4836C63.2537 20.2381 65.4639 21.6178 66.9285 22.9553C67.1395 23.1494 67.3187 23.3204 67.4565 23.4578C67.1819 23.3541 66.7974 23.1994 66.3407 23.0043C64.0466 22.0396 61.4789 21.1787 58.9131 20.5186ZM67.5114 21.7514L67.1279 21.4487C65.4032 20.1343 63.2653 18.8478 60.5916 17.516C56.0236 15.2245 54.2267 13.9235 49.9093 9.7852C49.1366 9.04151 48.1683 8.17004 47.7925 7.88179C47.5564 7.70692 47.4399 7.59834 47.383 7.53493C48.6365 7.1602 53.1746 7.21593 55.3463 7.64542C60.4788 8.66102 64.7134 12.3621 66.6722 17.5439C66.9834 18.3923 67.2493 19.6731 67.4613 21.3498L67.5114 21.7514ZM19.9215 30.4354C16.2477 30.4354 15.7939 30.3941 13.9286 30.0684C12.5479 29.8166 11.6104 29.6321 11.3589 29.5639L10.9919 29.4611L11.2019 29.0422C12.5537 26.373 16.0329 22.3673 18.799 20.2948C20.8889 18.7459 24.3295 17.2403 27.168 16.633C30.0266 16.0085 34.4298 15.8048 36.5928 16.1959C38.0497 16.4534 40.0614 17.1586 41.0798 17.7678C42.1108 18.3683 42.9153 19.1216 43.0049 19.3426C42.9346 19.3743 42.7505 19.4185 42.527 19.4185C40.2358 19.4185 32.4151 20.977 28.8097 22.1521C27.7065 22.5095 27.4859 22.6152 27.4329 23.0264C27.3847 23.4319 27.5717 23.5693 27.695 23.6183C27.9705 23.7115 29.5285 23.2138 29.543 23.208C31.389 22.6209 34.9501 21.762 37.4812 21.294C39.5585 20.9097 42.8045 20.5359 43.4269 20.5484C43.2689 21.0125 41.8728 22.8563 40.6675 23.994C37.9658 26.5383 33.5126 28.6406 28.7558 29.6168C24.9885 30.372 24.1618 30.446 19.9215 30.4354ZM58.2551 26.7295C53.5561 28.3052 50.8921 29.489 46.8502 31.7978C45.6227 32.5127 45.2672 32.8288 45.2672 33.2103C45.2672 33.4024 45.3539 33.4928 45.4281 33.535C45.6882 33.6859 46.2124 33.4918 47.5035 32.7596C49.4603 31.6499 52.0993 30.3345 53.9194 29.5601C55.5303 28.875 61.3094 26.9572 62.2642 26.7391C62.1871 26.9082 61.9694 27.2743 61.4394 28.0429C58.2291 32.629 55.0996 35.6373 52.1398 36.9844C49.6964 38.1009 46.4205 38.6861 43.3855 38.5467C40.5779 38.4141 37.8126 37.8165 37.6363 37.5446C37.6267 37.3515 38.278 36.1274 39.3195 34.6496C40.5904 32.873 43.5454 30.0059 45.2865 28.8625C48.4747 26.766 51.6311 25.7465 55.5197 25.5572C55.7481 25.5476 56.0227 25.5419 56.3252 25.5419C57.6086 25.5419 59.3988 25.6283 60.342 25.7744L60.8922 25.8532L58.2551 26.7295ZM75.3581 34.0789C76.3235 34.2412 76.8611 34.3969 77.0692 34.492C76.5306 34.5257 71.9001 36.0668 70.161 36.7625C68.1376 37.5724 64.381 39.5864 64.0206 40.1321C63.8954 40.3185 63.8077 40.5904 63.9079 40.7413C64.1507 41.1237 64.5862 40.919 66.9188 39.5979C68.5702 38.6582 69.1108 38.4093 71.3653 37.5513C73.2682 36.8192 76.9719 35.6681 77.8574 35.5316C78.1406 35.4971 78.4518 35.4356 78.6205 35.4C78.5501 35.9208 77.577 38.0615 76.6761 39.3913C75.5315 41.0756 74.41 42.1864 72.6757 43.3538C71.0435 44.4482 69.8796 44.942 67.8862 45.3888C65.1248 46.0335 63.3269 45.9874 58.7253 45.1544L58.3428 45.0842C57.8022 44.9872 57.413 44.917 57.3638 44.8133C57.3186 44.7153 57.5064 44.3895 57.7454 43.9764L57.9304 43.6535C59.2668 41.3005 62.2796 38.0404 64.5082 36.5357C66.2222 35.3914 68.6069 34.3921 70.3045 34.1058C70.8364 34.0203 71.9772 33.9751 73.0678 33.9751C74.013 33.9751 74.9187 34.0097 75.3581 34.0789ZM76.6973 18.2347C78.1676 19.0688 79.3835 20.0719 80.3114 21.2152C81.3404 22.4845 81.8231 23.3416 82.3771 24.8885C82.7519 25.8993 82.8232 26.3826 82.8762 27.5173C82.9388 28.9221 82.7172 30.8168 82.5428 31.2281C82.1931 30.9225 80.8798 29.4371 79.6437 27.8604C78.2505 26.0838 76.918 23.2541 76.2493 20.6512C75.9516 19.4915 75.7473 18.1492 75.7425 17.7111C75.913 17.7966 76.2358 17.9715 76.6973 18.2347ZM84.4197 64.1961C83.6942 63.7186 82.4176 63.5764 81.0051 63.8176L80.0821 63.9684L79.5984 63.4121C78.1936 61.8267 76.9604 61.7479 71.8307 62.9144C65.754 64.3018 62.9916 64.665 58.3967 64.6785C58.3196 64.6785 58.2435 64.6785 58.1674 64.6785C54.1891 64.6785 51.2119 64.3287 49.7706 63.6898C48.9506 63.3333 47.5275 62.2447 44.8606 59.931C38.8224 54.6618 37.1074 53.356 33.3921 51.1999C27.9281 48.0273 22.6174 46.8464 17.1534 47.591C15.104 47.863 13.3669 48.3501 11.3435 49.2187C8.92998 50.2679 7.54254 51.1183 6.39502 52.2492C4.63954 53.9575 4.58558 54.633 5.98168 57.4175C6.5039 58.4715 7.66395 60.6507 8.56867 62.2745C12.1317 68.6121 13.3283 70.3176 16.5743 73.6776C22.074 79.3811 30.3533 84.7205 37.1767 86.9659C41.4392 88.3601 45.1622 89 49.1973 89C50.0336 89 50.8844 88.9731 51.7554 88.9193C58.8505 88.4792 65.1344 86.8794 70.9655 84.0267C76.5701 81.2874 80.2006 78.6076 86.5018 72.5592L87.9018 71.2188L87.9741 70.2465C88.1032 68.6746 87.5039 67.6878 86.1945 67.315L85.6087 67.143L85.6511 66.7279C85.7387 65.8862 85.152 64.6785 84.4197 64.1961ZM19.8868 48.5413C21.017 48.5413 22.6357 48.6787 23.8815 48.893C26.9521 49.4282 29.2896 50.3006 32.5057 52.1098C35.3422 53.7221 37.8097 55.4708 40.5085 57.7807C47.04 63.3871 47.2202 63.5322 50.1405 65.5192C52.716 67.2727 54.9985 68.517 58.5576 70.1081C59.5433 70.5539 60.29 70.9546 60.4152 71.069C60.607 71.2467 60.6821 71.4879 60.6397 71.7848C60.5251 72.5861 59.5992 73.57 58.388 74.1792C55.4677 75.6608 51.3333 75.3792 44.9781 73.2673C43.16 72.6582 38.9736 70.6491 37.3829 69.6239C36.8202 69.2674 35.8577 68.565 35.2391 68.0577C34.135 67.1651 33.896 67.1449 33.7621 67.1997C33.5251 67.2919 33.4817 67.4658 33.4779 67.561C33.4316 68.5141 36.9175 70.8134 40.2223 72.492C46.9225 75.8674 54.8723 77.2298 62.032 76.2334C67.311 75.5013 71.8712 73.9313 80.1023 70.013C83.5044 68.3978 84.7618 68.0808 85.9517 68.5372C86.4026 68.712 86.5278 68.8302 86.6945 69.2376C86.8236 69.5537 86.9036 69.8497 86.9036 69.9236C86.9036 70.16 86.4228 71.0142 86.0895 71.3063C85.9141 71.4523 84.9284 72.3536 83.9254 73.299C79.1542 77.7832 75.8042 80.2199 71.1245 82.6076C67.9421 84.2285 65.2115 85.2431 61.3845 86.228C56.9601 87.3512 52.4404 87.8787 48.3157 87.7586C43.7121 87.6222 40.1655 86.891 35.6669 85.1509C27.7345 82.0926 18.2816 74.8806 13.6781 68.3748C11.0005 64.6054 6.11946 55.6543 6.11946 54.7685C6.11946 54.1574 7.46354 52.6479 9.19494 51.6179C10.4205 50.9011 13.0875 49.7683 14.4787 49.3715C15.5367 49.0698 17.6901 48.7018 19.1777 48.5682C19.3781 48.549 19.619 48.5413 19.8868 48.5413ZM84.4332 66.9316C84.3561 67.0604 84.2212 67.1459 84.0218 67.1901C83.093 67.3871 81.376 68.051 79.4279 68.9686C74.6326 71.2237 70.2487 73.0291 67.6993 73.7987C65.3107 74.5212 61.8981 75.1352 59.5847 75.2591L58.7667 75.3053L58.9604 75.2015C60.6407 74.306 61.9086 72.7667 61.9086 71.6205C61.9086 70.995 61.6206 70.5549 60.8459 69.9967L60.6571 69.8602H61.2284C65.2953 69.8602 71.1688 68.4276 79.1831 65.4798C80.7922 64.886 82.222 64.6823 83.2096 64.9091C83.8542 65.0609 84.2434 65.4471 84.4361 66.1245C84.5382 66.4829 84.5382 66.7548 84.4332 66.9316ZM52.2718 65.5538C52.5551 65.5778 53.0031 65.6201 53.7074 65.6931C55.0553 65.8497 56.3975 65.891 59.0172 65.8449C63.6979 65.7488 65.8638 65.4558 71.8943 64.102C73.4889 63.7455 75.6346 63.2699 75.8687 63.2411C76.4352 63.1604 77.3939 63.2728 77.8805 63.4784H77.8815C78.3632 63.6754 78.8286 64.1452 78.8825 64.298C78.739 64.4104 77.9691 64.6765 74.4138 65.8805C68.5307 67.8732 64.7404 68.614 60.4307 68.614H57.9641L56.3734 67.8214C55.0958 67.1776 53.111 66.0621 52.2718 65.5538ZM25.0907 23.7903C25.2207 23.8758 25.2872 24.0209 25.2872 24.2207C25.2872 24.6435 25.0637 24.7473 23.0249 25.5601C22.5364 25.7561 20.991 26.3634 20.6143 26.3634C20.5902 26.3634 20.5709 26.3615 20.5565 26.3557C20.3638 26.2817 20.2481 26.0511 20.2626 25.7677C20.2761 25.4871 20.4129 25.2719 20.6104 25.2181C20.7231 25.1931 21.6134 24.8193 22.3987 24.4898L22.5432 24.4292C24.1079 23.7509 24.7746 23.5827 25.0907 23.7903Z"/>
</mask>
<path d="M58.9131 20.5186C54.51 19.4041 51.6359 19.0774 47.0708 19.1716L44.3143 19.2119L43.9453 18.7209C42.5501 16.8982 39.3851 15.3772 36.2489 15.0198C34.2612 14.7777 30.6124 14.8113 28.8849 15.089C26.1177 15.5166 23.1531 16.439 20.9544 17.5554C16.9819 19.5645 12.1259 24.5637 9.89732 28.9394C9.81254 29.1133 9.39534 29.9953 9.58033 30.2903C9.6208 30.3556 9.68825 30.3931 9.75473 30.3931C9.81928 30.3998 10.5236 30.5344 11.4803 30.7332C18.484 32.1908 24.7265 31.9948 31.7195 30.101C35.5378 29.0768 39.0767 27.1753 41.4286 24.8856C42.7448 23.6135 44.2912 21.5765 44.611 20.6916L44.7276 20.3649L48.8283 20.4312C52.2034 20.485 53.2777 20.5513 54.5755 20.7848C58.4025 21.4881 63.694 23.0754 66.3735 24.3235L67.0711 24.6425L66.625 24.6935C66.0825 24.7511 65.1653 24.877 64.6219 24.9692C63.7904 25.1162 63.4589 25.1162 62.7527 24.9692C60.3806 24.4802 59.7071 24.4187 56.7453 24.4187C54.1333 24.4321 53.4424 24.4802 52.1282 24.7367C46.5062 25.8638 41.3891 29.4957 37.7182 34.9657C36.7393 36.4262 36.1651 37.3601 36.4368 38.0173C36.7152 38.6909 37.8126 38.9791 40.0768 39.4355C42.0751 39.8362 45.799 39.8429 48.0449 39.4499C52.3479 38.7072 55.3858 36.9911 58.5297 33.5254C60.368 31.4817 61.2207 30.3931 62.6775 28.2351C63.5408 26.9754 64.091 26.3298 64.2027 26.274C64.7847 26.055 67.1732 25.8465 68.4594 25.8993C70.0887 25.9791 70.5849 26.2125 74.3503 28.6713C77.1559 30.5132 78.0433 31.1752 80.2863 33.0998L81.3895 34.0347L80.506 34.0933C79.7632 34.1519 79.2197 34.124 79.1398 34.0942C79.0232 34.0356 78.3805 33.7906 77.681 33.5533C74.6807 32.4858 70.7477 32.529 67.6617 33.6628C65.5006 34.4536 63.9628 35.3635 61.9848 37.018C60.8045 38.0135 58.8226 40.1705 57.9063 41.4571C57.2425 42.3891 55.8463 44.8258 55.8463 45.1995C55.8463 45.802 56.0622 45.8644 61.6138 46.8493C62.6515 47.029 65.1701 47.028 66.4284 46.8493C67.9931 46.6139 70.0685 46.0624 71.0561 45.6185C72.3269 45.0458 74.1113 43.8419 75.3003 42.7561C77.0702 41.115 78.0366 39.6354 79.6071 36.1591L79.9809 35.326H80.6977C82.5486 35.326 83.1229 35.7401 84.7955 38.2758C87.8122 42.8368 90.8867 50.5696 90.8867 53.5991C90.8867 54.1093 91.0322 54.5138 91.2759 54.6829C91.354 54.7367 91.4397 54.7636 91.5284 54.7636C91.5804 54.7636 91.6334 54.754 91.6864 54.7348C92.2231 54.534 91.9716 52.7161 91.6671 51.2268C91.1016 48.476 89.745 44.8863 87.9442 41.3783L87.8421 41.1784C86.8554 39.2568 86.8554 39.2568 85.3495 36.945L85.1751 36.6779C83.4485 34.0548 83.2934 33.5235 83.6711 31.5086C84.2473 28.5118 84.2087 26.7823 83.515 24.6541C82.8714 22.6853 82.0698 21.3411 80.5571 19.6943C79.2506 18.2857 75.544 15.9095 74.8185 16.192C74.5044 16.3169 74.5073 16.5591 74.5767 17.8293C74.6865 19.4416 75.1143 21.2633 75.8504 23.2416C76.8467 25.8782 78.1214 28.0045 79.8634 29.9338C81.4666 31.6989 82.1382 32.8192 82.2364 33.1555C82.0794 33.0469 81.7807 32.8058 81.3741 32.431C79.2381 30.4508 74.146 26.8774 71.0946 25.2162C69.9837 24.6147 69.8931 24.534 69.4885 23.7797C69.052 22.988 68.9046 22.3884 68.3641 19.1946C67.9979 16.9895 66.8273 14.3549 65.3811 12.4842C64.5862 11.459 63.0831 10.0081 61.9578 9.18083C60.1156 7.84432 56.9813 6.62214 54.3385 6.20898C52.661 5.93034 49.4536 5.93034 47.9823 6.20898C45.6892 6.6058 45.3414 7.00167 45.2961 7.29856C45.2373 7.62717 45.4994 7.84912 46.4995 8.4996C47.172 8.94159 48.2299 9.78904 48.8562 10.3876C50.5828 12.0287 53.3702 14.5644 54.1814 15.2322C55.302 16.1565 56.2924 16.7339 59.761 18.4836C63.2537 20.2381 65.4639 21.6178 66.9285 22.9553C67.1395 23.1494 67.3187 23.3204 67.4565 23.4578C67.1819 23.3541 66.7974 23.1994 66.3407 23.0043C64.0466 22.0396 61.4789 21.1787 58.9131 20.5186ZM67.5114 21.7514L67.1279 21.4487C65.4032 20.1343 63.2653 18.8478 60.5916 17.516C56.0236 15.2245 54.2267 13.9235 49.9093 9.7852C49.1366 9.04151 48.1683 8.17004 47.7925 7.88179C47.5564 7.70692 47.4399 7.59834 47.383 7.53493C48.6365 7.1602 53.1746 7.21593 55.3463 7.64542C60.4788 8.66102 64.7134 12.3621 66.6722 17.5439C66.9834 18.3923 67.2493 19.6731 67.4613 21.3498L67.5114 21.7514ZM19.9215 30.4354C16.2477 30.4354 15.7939 30.3941 13.9286 30.0684C12.5479 29.8166 11.6104 29.6321 11.3589 29.5639L10.9919 29.4611L11.2019 29.0422C12.5537 26.373 16.0329 22.3673 18.799 20.2948C20.8889 18.7459 24.3295 17.2403 27.168 16.633C30.0266 16.0085 34.4298 15.8048 36.5928 16.1959C38.0497 16.4534 40.0614 17.1586 41.0798 17.7678C42.1108 18.3683 42.9153 19.1216 43.0049 19.3426C42.9346 19.3743 42.7505 19.4185 42.527 19.4185C40.2358 19.4185 32.4151 20.977 28.8097 22.1521C27.7065 22.5095 27.4859 22.6152 27.4329 23.0264C27.3847 23.4319 27.5717 23.5693 27.695 23.6183C27.9705 23.7115 29.5285 23.2138 29.543 23.208C31.389 22.6209 34.9501 21.762 37.4812 21.294C39.5585 20.9097 42.8045 20.5359 43.4269 20.5484C43.2689 21.0125 41.8728 22.8563 40.6675 23.994C37.9658 26.5383 33.5126 28.6406 28.7558 29.6168C24.9885 30.372 24.1618 30.446 19.9215 30.4354ZM58.2551 26.7295C53.5561 28.3052 50.8921 29.489 46.8502 31.7978C45.6227 32.5127 45.2672 32.8288 45.2672 33.2103C45.2672 33.4024 45.3539 33.4928 45.4281 33.535C45.6882 33.6859 46.2124 33.4918 47.5035 32.7596C49.4603 31.6499 52.0993 30.3345 53.9194 29.5601C55.5303 28.875 61.3094 26.9572 62.2642 26.7391C62.1871 26.9082 61.9694 27.2743 61.4394 28.0429C58.2291 32.629 55.0996 35.6373 52.1398 36.9844C49.6964 38.1009 46.4205 38.6861 43.3855 38.5467C40.5779 38.4141 37.8126 37.8165 37.6363 37.5446C37.6267 37.3515 38.278 36.1274 39.3195 34.6496C40.5904 32.873 43.5454 30.0059 45.2865 28.8625C48.4747 26.766 51.6311 25.7465 55.5197 25.5572C55.7481 25.5476 56.0227 25.5419 56.3252 25.5419C57.6086 25.5419 59.3988 25.6283 60.342 25.7744L60.8922 25.8532L58.2551 26.7295ZM75.3581 34.0789C76.3235 34.2412 76.8611 34.3969 77.0692 34.492C76.5306 34.5257 71.9001 36.0668 70.161 36.7625C68.1376 37.5724 64.381 39.5864 64.0206 40.1321C63.8954 40.3185 63.8077 40.5904 63.9079 40.7413C64.1507 41.1237 64.5862 40.919 66.9188 39.5979C68.5702 38.6582 69.1108 38.4093 71.3653 37.5513C73.2682 36.8192 76.9719 35.6681 77.8574 35.5316C78.1406 35.4971 78.4518 35.4356 78.6205 35.4C78.5501 35.9208 77.577 38.0615 76.6761 39.3913C75.5315 41.0756 74.41 42.1864 72.6757 43.3538C71.0435 44.4482 69.8796 44.942 67.8862 45.3888C65.1248 46.0335 63.3269 45.9874 58.7253 45.1544L58.3428 45.0842C57.8022 44.9872 57.413 44.917 57.3638 44.8133C57.3186 44.7153 57.5064 44.3895 57.7454 43.9764L57.9304 43.6535C59.2668 41.3005 62.2796 38.0404 64.5082 36.5357C66.2222 35.3914 68.6069 34.3921 70.3045 34.1058C70.8364 34.0203 71.9772 33.9751 73.0678 33.9751C74.013 33.9751 74.9187 34.0097 75.3581 34.0789ZM76.6973 18.2347C78.1676 19.0688 79.3835 20.0719 80.3114 21.2152C81.3404 22.4845 81.8231 23.3416 82.3771 24.8885C82.7519 25.8993 82.8232 26.3826 82.8762 27.5173C82.9388 28.9221 82.7172 30.8168 82.5428 31.2281C82.1931 30.9225 80.8798 29.4371 79.6437 27.8604C78.2505 26.0838 76.918 23.2541 76.2493 20.6512C75.9516 19.4915 75.7473 18.1492 75.7425 17.7111C75.913 17.7966 76.2358 17.9715 76.6973 18.2347ZM84.4197 64.1961C83.6942 63.7186 82.4176 63.5764 81.0051 63.8176L80.0821 63.9684L79.5984 63.4121C78.1936 61.8267 76.9604 61.7479 71.8307 62.9144C65.754 64.3018 62.9916 64.665 58.3967 64.6785C58.3196 64.6785 58.2435 64.6785 58.1674 64.6785C54.1891 64.6785 51.2119 64.3287 49.7706 63.6898C48.9506 63.3333 47.5275 62.2447 44.8606 59.931C38.8224 54.6618 37.1074 53.356 33.3921 51.1999C27.9281 48.0273 22.6174 46.8464 17.1534 47.591C15.104 47.863 13.3669 48.3501 11.3435 49.2187C8.92998 50.2679 7.54254 51.1183 6.39502 52.2492C4.63954 53.9575 4.58558 54.633 5.98168 57.4175C6.5039 58.4715 7.66395 60.6507 8.56867 62.2745C12.1317 68.6121 13.3283 70.3176 16.5743 73.6776C22.074 79.3811 30.3533 84.7205 37.1767 86.9659C41.4392 88.3601 45.1622 89 49.1973 89C50.0336 89 50.8844 88.9731 51.7554 88.9193C58.8505 88.4792 65.1344 86.8794 70.9655 84.0267C76.5701 81.2874 80.2006 78.6076 86.5018 72.5592L87.9018 71.2188L87.9741 70.2465C88.1032 68.6746 87.5039 67.6878 86.1945 67.315L85.6087 67.143L85.6511 66.7279C85.7387 65.8862 85.152 64.6785 84.4197 64.1961ZM19.8868 48.5413C21.017 48.5413 22.6357 48.6787 23.8815 48.893C26.9521 49.4282 29.2896 50.3006 32.5057 52.1098C35.3422 53.7221 37.8097 55.4708 40.5085 57.7807C47.04 63.3871 47.2202 63.5322 50.1405 65.5192C52.716 67.2727 54.9985 68.517 58.5576 70.1081C59.5433 70.5539 60.29 70.9546 60.4152 71.069C60.607 71.2467 60.6821 71.4879 60.6397 71.7848C60.5251 72.5861 59.5992 73.57 58.388 74.1792C55.4677 75.6608 51.3333 75.3792 44.9781 73.2673C43.16 72.6582 38.9736 70.6491 37.3829 69.6239C36.8202 69.2674 35.8577 68.565 35.2391 68.0577C34.135 67.1651 33.896 67.1449 33.7621 67.1997C33.5251 67.2919 33.4817 67.4658 33.4779 67.561C33.4316 68.5141 36.9175 70.8134 40.2223 72.492C46.9225 75.8674 54.8723 77.2298 62.032 76.2334C67.311 75.5013 71.8712 73.9313 80.1023 70.013C83.5044 68.3978 84.7618 68.0808 85.9517 68.5372C86.4026 68.712 86.5278 68.8302 86.6945 69.2376C86.8236 69.5537 86.9036 69.8497 86.9036 69.9236C86.9036 70.16 86.4228 71.0142 86.0895 71.3063C85.9141 71.4523 84.9284 72.3536 83.9254 73.299C79.1542 77.7832 75.8042 80.2199 71.1245 82.6076C67.9421 84.2285 65.2115 85.2431 61.3845 86.228C56.9601 87.3512 52.4404 87.8787 48.3157 87.7586C43.7121 87.6222 40.1655 86.891 35.6669 85.1509C27.7345 82.0926 18.2816 74.8806 13.6781 68.3748C11.0005 64.6054 6.11946 55.6543 6.11946 54.7685C6.11946 54.1574 7.46354 52.6479 9.19494 51.6179C10.4205 50.9011 13.0875 49.7683 14.4787 49.3715C15.5367 49.0698 17.6901 48.7018 19.1777 48.5682C19.3781 48.549 19.619 48.5413 19.8868 48.5413ZM84.4332 66.9316C84.3561 67.0604 84.2212 67.1459 84.0218 67.1901C83.093 67.3871 81.376 68.051 79.4279 68.9686C74.6326 71.2237 70.2487 73.0291 67.6993 73.7987C65.3107 74.5212 61.8981 75.1352 59.5847 75.2591L58.7667 75.3053L58.9604 75.2015C60.6407 74.306 61.9086 72.7667 61.9086 71.6205C61.9086 70.995 61.6206 70.5549 60.8459 69.9967L60.6571 69.8602H61.2284C65.2953 69.8602 71.1688 68.4276 79.1831 65.4798C80.7922 64.886 82.222 64.6823 83.2096 64.9091C83.8542 65.0609 84.2434 65.4471 84.4361 66.1245C84.5382 66.4829 84.5382 66.7548 84.4332 66.9316ZM52.2718 65.5538C52.5551 65.5778 53.0031 65.6201 53.7074 65.6931C55.0553 65.8497 56.3975 65.891 59.0172 65.8449C63.6979 65.7488 65.8638 65.4558 71.8943 64.102C73.4889 63.7455 75.6346 63.2699 75.8687 63.2411C76.4352 63.1604 77.3939 63.2728 77.8805 63.4784H77.8815C78.3632 63.6754 78.8286 64.1452 78.8825 64.298C78.739 64.4104 77.9691 64.6765 74.4138 65.8805C68.5307 67.8732 64.7404 68.614 60.4307 68.614H57.9641L56.3734 67.8214C55.0958 67.1776 53.111 66.0621 52.2718 65.5538ZM25.0907 23.7903C25.2207 23.8758 25.2872 24.0209 25.2872 24.2207C25.2872 24.6435 25.0637 24.7473 23.0249 25.5601C22.5364 25.7561 20.991 26.3634 20.6143 26.3634C20.5902 26.3634 20.5709 26.3615 20.5565 26.3557C20.3638 26.2817 20.2481 26.0511 20.2626 25.7677C20.2761 25.4871 20.4129 25.2719 20.6104 25.2181C20.7231 25.1931 21.6134 24.8193 22.3987 24.4898L22.5432 24.4292C24.1079 23.7509 24.7746 23.5827 25.0907 23.7903Z" fill="black" stroke="#151515" stroke-width="2" mask="url(#path-1-inside-1_1_88)"/>
</svg>
