<svg width="96" height="96" viewBox="0 0 96 96" fill="none" xmlns="http://www.w3.org/2000/svg">
<mask id="path-1-inside-1_1_83" fill="white">
<path d="M8.81101 53.7799C7.72001 53.3949 6.25701 53.3809 5.48101 53.7489C4.35101 54.2869 3.58501 55.3099 3.32501 56.6299C2.98901 58.3339 3.55001 60.1899 4.82601 61.5959C6.06501 62.9489 8.03201 63.9819 10.513 64.5829C12.309 65.0269 14.563 65.0509 16.26 64.6449C16.805 64.5089 17.289 64.4129 17.438 64.3929C17.542 64.5059 17.824 64.9609 18.137 65.6069C19.345 68.1349 21.487 71.3639 23.253 73.3239C23.058 73.2439 22.817 73.1459 22.576 73.0529C20.979 72.3859 19.364 72.1219 17.348 72.1969C14.877 72.2849 13.825 72.6539 12.846 73.7749C12.134 74.5779 11.874 75.3069 11.977 76.2119C12.183 78.2519 13.801 79.6039 16.417 79.9209C17.442 80.0449 17.811 80.0359 18.881 79.8579C21.262 79.4549 24.232 78.2629 25.642 77.1459L25.69 77.1069C26.389 76.5469 26.389 76.5459 27.125 77.2199L27.186 77.2759C29.304 79.1969 31.73 80.8819 34.603 82.4239L35.137 82.7139H34.649C32.252 82.7139 29.608 83.2769 28.36 84.0529C26.777 85.0599 26.085 86.6209 26.638 87.9369C26.932 88.6439 27.731 89.3169 28.535 89.5379C28.874 89.6369 29.233 89.6849 29.606 89.6849C31.9 89.6849 34.744 87.8649 36.894 84.9119C37.236 84.4329 37.51 84.0609 37.626 83.9099C37.783 83.9729 38.127 84.1129 38.551 84.2919C42.155 85.8099 46.666 86.9719 49.775 87.1849C50.817 87.2479 51.102 87.2419 51.281 87.0279C51.388 86.8909 51.456 86.6529 51.377 86.4969C51.253 86.1769 50.887 86.1179 49.373 86.0039C46.792 85.8329 41.919 84.5199 38.732 83.1359L38.383 82.9859L38.904 82.2699C40.078 80.6799 40.535 79.2799 40.535 77.2769C40.535 74.6119 39.556 73.1309 37.781 73.1039C37.063 73.0729 36.483 73.4219 35.884 74.1799C34.844 75.5249 34.829 78.7939 35.852 81.3199C35.949 81.5549 36.014 81.7429 36.053 81.8719C35.382 81.5759 33.186 80.3469 31.778 79.4119C30.968 78.8719 29.8 77.9969 29.184 77.4979L28.741 77.1279C28.173 76.6549 27.762 76.3129 27.758 76.2119C27.773 76.1709 27.926 76.0819 28.05 76.0099C28.117 75.9709 28.192 75.9269 28.273 75.8769C29.273 75.2529 31.172 73.2549 31.837 72.1259C32.468 71.0569 33.087 69.0939 33.087 68.1639C33.087 67.1639 32.793 66.2519 32.237 65.5279C31.548 64.6159 30.726 64.2219 29.644 64.2339C28.892 64.2419 28.432 64.3629 27.805 64.8789C25.996 66.3649 24.963 69.4549 25.339 72.7009C25.392 73.1589 25.459 73.6969 25.506 74.0099C24.817 73.4389 22.596 70.8059 21.193 68.6899C20.264 67.2949 18.763 64.4379 18.594 63.8949C18.779 63.8039 19.223 63.5859 19.742 63.3459C22.303 62.1169 24.649 60.2799 26.018 58.4329C27.016 57.0939 27.485 56.0789 27.587 55.0399C27.679 53.9679 27.495 53.4109 26.805 52.6559C26.137 51.8969 25.497 51.5659 24.524 51.4759C23.491 51.3579 22.683 51.5749 21.741 52.2209C19.937 53.4359 18.196 56.4089 17.507 59.4509C17.402 59.9179 17.318 60.2469 17.255 60.4349L17.157 60.1459C17.03 59.7709 16.816 59.1449 16.591 58.4779C16.253 57.5119 15.832 56.0279 15.652 55.1689C15.24 53.2439 14.836 50.1109 14.836 48.8429V47.9999H15.617C16.709 47.9999 19.129 47.6359 20.595 47.2499C21.746 46.9619 23.694 46.1339 24.529 45.5779C25.356 45.0269 26.578 43.7619 27.095 42.9219C27.691 41.9199 27.896 41.2719 27.972 40.1469C28.036 38.9709 27.787 38.3739 26.903 37.5919C25.924 36.7299 25.036 36.5929 23.256 37.0249C21.162 37.5239 18.693 38.9979 17.108 40.6959C16.629 41.2249 15.033 43.3639 15.033 43.6609C15.028 43.7139 14.966 43.8709 14.892 44.0349C14.991 42.7259 15.405 39.3589 15.653 38.1829C16.014 36.4739 16.303 35.4809 16.887 33.9349L17.284 32.9139L19.948 32.9499C22.035 32.9859 23.082 32.9499 24.095 32.7999C28.283 32.1859 30.909 30.9439 31.902 29.1109C32.443 28.1329 32.694 26.7679 32.475 26.0079C32.277 25.2559 31.46 24.3669 30.616 23.9849C29.735 23.5889 28.09 23.5589 26.706 23.9139C24.776 24.4029 21.915 26.1319 19.748 28.1219L19.507 28.3489C20.441 26.5289 21.692 24.4479 22.705 23.0289C23.828 21.4449 23.858 21.4309 24.644 21.0669C25.092 20.8609 26.436 20.4069 27.641 20.0559C30.916 19.0829 33.394 18.2439 34.269 17.8119C35.966 16.9889 37.514 15.4879 38.311 13.8939C38.668 13.1679 38.724 12.9149 38.711 12.0889C38.698 10.5329 37.913 8.91394 36.886 8.32294C35.884 7.73994 33.95 7.56494 32.284 7.90794C30.916 8.20194 29.022 9.23794 27.88 10.3169C25.806 12.2659 24.645 14.5289 23.739 18.3869C23.5 19.3729 23.237 20.2389 23.144 20.4259C23.045 20.6119 22.424 21.5219 21.689 22.5319C20.966 23.5439 19.881 25.2829 19.272 26.4069C18.887 27.0949 18.579 27.6299 18.373 27.9779C18.392 27.8189 18.415 27.6309 18.446 27.4229C18.559 26.7059 18.622 25.1849 18.622 23.1409C18.622 20.2039 18.614 19.9099 18.329 19.1199C17.671 17.1849 16.514 16.1619 14.983 16.1619C13.238 16.1619 12.13 17.1589 11.389 19.3929C10.967 20.6579 10.936 22.4749 11.31 24.0189C11.85 26.2909 13.409 29.0989 15.378 31.3459L16.275 32.3829L15.748 33.7399C15.121 35.3759 14.796 36.5489 14.412 38.5709C14.174 39.8569 13.826 43.0709 13.791 44.2409C13.701 44.0039 13.589 43.7049 13.471 43.3779C12.137 39.6369 10.897 37.3079 9.45101 35.8239C8.07701 34.4249 6.90901 33.9719 5.54701 34.3049C4.59401 34.5299 3.49301 35.6169 3.19101 36.6309C2.57101 38.7049 3.46701 41.1379 5.78201 43.6669C6.18701 44.1079 6.84701 44.7229 7.25401 45.0379C8.27601 45.8209 10.481 46.9209 12.274 47.5439L13.732 48.0569L13.814 49.5459C13.991 52.9559 14.625 56.2529 15.697 59.3459C15.889 59.9039 16.03 60.3449 16.123 60.6549C15.82 60.3079 15.357 59.7709 14.824 59.1379C11.849 55.5889 10.443 54.3359 8.81101 53.7799ZM15.902 62.1309C16.543 62.8279 16.791 63.1989 16.854 63.3439C16.714 63.3849 16.39 63.4589 15.885 63.5579C14.483 63.8159 11.462 63.7209 10.115 63.3739C8.49701 62.9449 6.73001 61.9199 5.71601 60.8219C5.02501 60.0819 4.81301 59.6889 4.58501 58.7179C4.31901 57.5659 4.35301 57.0869 4.76001 56.2729C5.20201 55.3889 5.36101 55.2399 6.17901 54.9439C6.53101 54.8149 6.98101 54.7519 7.43401 54.7519C7.94401 54.7519 8.45701 54.8319 8.83801 54.9899C9.88801 55.4299 11.759 57.2159 13.971 59.8899C14.505 60.5209 15.463 61.6509 15.902 62.1309ZM18.166 62.7839L18.223 61.9899C18.336 60.3379 18.944 58.2279 19.81 56.4829C20.43 55.2089 20.67 54.8529 21.42 54.1029C22.454 53.0689 23.326 52.5949 24.261 52.5949C24.532 52.5949 24.809 52.6349 25.096 52.7129C25.484 52.8249 25.852 53.1539 26.105 53.6169C26.419 54.1899 26.509 54.8589 26.347 55.4069C26.105 56.2189 25.115 57.7819 24.269 58.6879C22.919 60.1599 20.183 62.0129 18.29 62.7349L18.166 62.7839ZM21.871 73.9899C22.854 74.3569 25.402 75.6279 25.597 75.8229C25.637 75.8599 25.634 75.8789 25.633 75.8889C25.618 75.9919 25.415 76.2499 24.217 76.8309C21.977 77.9139 18.625 78.8649 17.044 78.8649C16.249 78.8649 14.979 78.4479 14.377 77.9889C13.443 77.2879 12.997 75.9759 13.382 75.0629C13.697 74.3159 14.748 73.6539 15.938 73.4519C16.912 73.2899 18.947 73.3209 20.047 73.5139C20.645 73.6149 21.472 73.8419 21.871 73.9899ZM27.334 67.2119C27.919 66.0599 28.825 65.3919 29.724 65.3919C29.939 65.3919 30.154 65.4299 30.364 65.5089C31.229 65.8319 31.706 66.8799 31.706 68.4599C31.706 69.9619 31.17 71.2519 29.915 72.7729C28.935 73.9669 28.669 74.2249 27.886 74.7429L27.222 75.1919L27.097 74.9349C26.229 73.2469 26.355 69.1339 27.334 67.2119ZM34.042 86.4259C33.076 87.2599 31.108 88.3929 30.348 88.5519C29.416 88.7419 28.621 88.5419 28.051 87.9719C27.799 87.7189 27.581 87.3859 27.545 87.2459C27.353 86.4809 28.341 85.1929 29.468 84.7399C30.221 84.4289 34.02 83.7949 35.274 83.7699C35.935 83.7589 36.084 83.8029 36.095 83.8249C36.084 84.0899 34.867 85.7249 34.042 86.4259ZM37.232 81.7219C35.852 78.6219 35.8 75.6609 37.107 74.5199L37.108 74.5189C37.334 74.3169 37.547 74.2139 37.763 74.2139C38.052 74.2139 38.346 74.3959 38.683 74.7669C39.026 75.1569 39.151 75.4299 39.32 76.1519C39.686 77.8349 39.272 79.7589 38.213 81.2999C37.893 81.7679 37.591 82.2099 37.502 82.2339C37.442 82.2049 37.326 81.9379 37.232 81.7219ZM14.922 46.9189C14.876 46.8309 15.084 46.3359 15.347 45.7109L15.53 45.2749C16.745 42.3679 18.714 40.2299 21.382 38.9199C22.831 38.2009 23.651 37.9669 24.756 37.9549C25.474 37.9439 25.587 37.9909 26.009 38.2999C26.323 38.5209 26.59 38.8469 26.741 39.1959C26.963 39.6739 26.973 39.7889 26.854 40.4329C26.489 42.3319 24.983 44.1329 22.925 45.1309C21.456 45.8409 20.123 46.2659 18.007 46.6959C16.757 46.9509 16.111 47.0269 15.526 46.9789L15.314 46.9679C15.153 46.9609 14.954 46.9509 14.922 46.9189ZM14.299 17.3479C14.795 17.1759 15.095 17.1839 15.583 17.3819C16.375 17.7079 16.849 18.3269 17.273 19.5889C17.759 21.0349 17.72 24.7019 17.18 28.3099C17.133 28.6349 17.084 28.8999 17.042 29.0959C16.813 28.2359 16.355 26.2809 16.198 25.4159C16.138 25.0239 16.038 24.0309 15.989 23.2329C15.929 22.0299 15.843 21.6509 15.6 21.5419C15.422 21.4589 15.246 21.5759 15.108 21.6869C14.724 22.0189 14.979 24.8879 15.332 26.5859C15.563 27.6999 16.122 29.8769 16.442 30.9469C16.014 30.4679 15.309 29.6039 14.78 28.8629C14.405 28.3549 13.849 27.4189 13.54 26.7749C11.874 23.4189 11.673 20.7519 12.926 18.6239C13.381 17.8569 13.702 17.5589 14.299 17.3479ZM17.785 31.8639C17.819 31.7939 17.902 31.6719 17.936 31.6199C18.406 30.9459 20.534 28.8389 21.731 27.8639C23.943 26.0869 26.09 25.0489 28.113 24.7799C28.258 24.7599 28.699 24.7009 28.846 24.6709C28.93 24.6839 29.244 24.7509 29.595 24.8379C30.412 25.0509 30.856 25.3419 31.181 25.8779C31.841 26.9429 31.023 29.0259 29.59 29.9309C28.368 30.7009 25.45 31.5369 23.085 31.7959C21.775 31.9469 18.091 31.9749 17.789 31.8659C17.787 31.8649 17.785 31.8639 17.785 31.8639ZM26.611 18.2799C28.64 16.2149 32.721 12.9949 34.137 12.3409C34.504 12.1829 34.734 11.8399 34.673 11.5419C34.638 11.3749 34.493 11.1969 34.19 11.1969C33.746 11.1969 31.052 12.9939 29.8 13.9989C27.783 15.6249 26.784 16.5159 25.528 17.8109L25.339 18.0079C25.117 18.2399 24.902 18.4629 24.762 18.5909C24.814 18.3429 24.95 17.8859 25.112 17.3459L25.222 16.9769C26.389 13.0359 28.526 10.4539 31.575 9.30194C32.861 8.82094 34.103 8.67994 35.166 8.89794C36.114 9.10294 36.596 9.41594 37.005 10.0939C37.766 11.3859 37.817 12.2779 37.199 13.5009C36.637 14.6129 35.324 15.9709 34.271 16.5279C33.17 17.1029 31.521 17.7009 28.922 18.4659C28.169 18.6879 26.361 19.2209 25.854 19.3849C25.751 19.4159 25.594 19.4639 25.472 19.4939C25.663 19.2509 26.127 18.7759 26.611 18.2799ZM7.96701 39.1949C7.89001 39.1949 7.65701 39.1949 7.55201 39.3799C7.41501 39.6209 7.56201 40.0289 8.13601 40.9979C9.15901 42.7239 10.561 44.5229 11.886 45.8099C12.211 46.1229 12.473 46.3889 12.655 46.5809C11.937 46.3209 10.521 45.7179 9.82701 45.3469C7.78001 44.2429 6.49301 43.0839 5.23501 41.2099C4.65001 40.3389 4.03201 38.7159 4.03201 38.0529C4.03201 37.5319 4.34801 36.6359 4.68301 36.2089L4.68401 36.2069C5.10701 35.6479 5.66801 35.3609 6.29901 35.3609C6.64201 35.3609 7.00701 35.4459 7.38101 35.6189C9.18601 36.4669 10.855 39.3159 12.792 44.8579L12.97 45.3579L12.43 44.8259C11.274 43.6809 9.90701 41.8879 9.02701 40.3619C8.51301 39.4799 8.31701 39.1949 7.96701 39.1949ZM89.499 33.3409L90.521 34.3629L90.512 34.3219C90.258 33.1929 89.585 31.3569 88.797 29.6479C84.396 20.0879 75.772 12.2069 66.289 9.07994C61.802 7.60494 56.517 6.86594 52.503 7.14994C50.151 7.31494 49.85 7.33494 49.719 6.97794C49.65 6.80494 49.693 6.67294 49.741 6.59394C49.888 6.34994 50.301 6.20794 51.122 6.11894C52.751 5.94194 55.824 5.96594 57.833 6.16794C63.199 6.70594 67.004 7.77594 71.407 9.98194C78.74 13.6549 85.351 20.2849 89.092 27.7169C90.263 30.0329 91.3 32.6999 91.503 33.9179C91.504 33.9259 91.506 33.9339 91.507 33.9409C91.736 33.0049 92.154 29.9859 92.223 28.4349C92.293 26.8879 92.346 26.5989 92.576 26.5029C92.748 26.4389 92.975 26.5359 93.115 26.7279C93.695 27.4679 92.685 34.8809 91.972 36.2709C91.85 36.5149 91.617 36.6999 91.429 36.6999C91.237 36.6999 90.736 36.2439 89.939 35.3459C88.792 34.0489 86.542 31.9639 85.218 30.9709C84.658 30.5559 84.395 30.2089 84.435 29.9389C84.45 29.8389 84.512 29.7039 84.724 29.6289C85.437 29.3409 88.828 32.6699 89.499 33.3409ZM86.287 70.5959C83.808 74.0919 81.885 76.1229 78.374 78.9569C74.738 81.8859 70.547 84.1019 66.254 85.3659C65.941 85.4569 65.687 85.5399 65.515 85.6009C66.368 85.8449 69.238 86.3029 70.583 86.3129C71.48 86.3129 71.949 86.3389 71.949 86.9099C71.949 87.3579 71.746 87.3579 70.768 87.3579C68.202 87.3579 63.239 86.4759 63.108 85.6929C63.074 85.5579 63.124 85.3169 63.768 84.6339C64.631 83.7459 66.128 81.9479 66.909 80.8629C67.876 79.5189 68.068 79.2719 68.413 79.4069C68.594 79.4799 68.72 79.6799 68.72 79.8939C68.72 80.3559 66.959 82.5799 66.028 83.6899L65.933 83.8029C65.673 84.1129 65.47 84.3539 65.351 84.5079C66.79 84.1859 70.364 82.7579 72.224 81.7599C76.385 79.5369 81.734 74.9019 84.665 70.9759C89.395 64.6399 91.626 58.7369 92.122 51.2399C92.147 50.7849 92.234 49.5639 92.328 49.3999L92.333 49.3919C92.412 49.2739 92.569 49.1879 92.706 49.1879C92.853 49.1879 92.975 49.2399 93.067 49.3429C93.359 49.6689 93.371 50.5159 93.115 52.8309C92.343 59.7069 90.364 64.8529 86.287 70.5959Z"/>
</mask>
<path d="M8.81101 53.7799C7.72001 53.3949 6.25701 53.3809 5.48101 53.7489C4.35101 54.2869 3.58501 55.3099 3.32501 56.6299C2.98901 58.3339 3.55001 60.1899 4.82601 61.5959C6.06501 62.9489 8.03201 63.9819 10.513 64.5829C12.309 65.0269 14.563 65.0509 16.26 64.6449C16.805 64.5089 17.289 64.4129 17.438 64.3929C17.542 64.5059 17.824 64.9609 18.137 65.6069C19.345 68.1349 21.487 71.3639 23.253 73.3239C23.058 73.2439 22.817 73.1459 22.576 73.0529C20.979 72.3859 19.364 72.1219 17.348 72.1969C14.877 72.2849 13.825 72.6539 12.846 73.7749C12.134 74.5779 11.874 75.3069 11.977 76.2119C12.183 78.2519 13.801 79.6039 16.417 79.9209C17.442 80.0449 17.811 80.0359 18.881 79.8579C21.262 79.4549 24.232 78.2629 25.642 77.1459L25.69 77.1069C26.389 76.5469 26.389 76.5459 27.125 77.2199L27.186 77.2759C29.304 79.1969 31.73 80.8819 34.603 82.4239L35.137 82.7139H34.649C32.252 82.7139 29.608 83.2769 28.36 84.0529C26.777 85.0599 26.085 86.6209 26.638 87.9369C26.932 88.6439 27.731 89.3169 28.535 89.5379C28.874 89.6369 29.233 89.6849 29.606 89.6849C31.9 89.6849 34.744 87.8649 36.894 84.9119C37.236 84.4329 37.51 84.0609 37.626 83.9099C37.783 83.9729 38.127 84.1129 38.551 84.2919C42.155 85.8099 46.666 86.9719 49.775 87.1849C50.817 87.2479 51.102 87.2419 51.281 87.0279C51.388 86.8909 51.456 86.6529 51.377 86.4969C51.253 86.1769 50.887 86.1179 49.373 86.0039C46.792 85.8329 41.919 84.5199 38.732 83.1359L38.383 82.9859L38.904 82.2699C40.078 80.6799 40.535 79.2799 40.535 77.2769C40.535 74.6119 39.556 73.1309 37.781 73.1039C37.063 73.0729 36.483 73.4219 35.884 74.1799C34.844 75.5249 34.829 78.7939 35.852 81.3199C35.949 81.5549 36.014 81.7429 36.053 81.8719C35.382 81.5759 33.186 80.3469 31.778 79.4119C30.968 78.8719 29.8 77.9969 29.184 77.4979L28.741 77.1279C28.173 76.6549 27.762 76.3129 27.758 76.2119C27.773 76.1709 27.926 76.0819 28.05 76.0099C28.117 75.9709 28.192 75.9269 28.273 75.8769C29.273 75.2529 31.172 73.2549 31.837 72.1259C32.468 71.0569 33.087 69.0939 33.087 68.1639C33.087 67.1639 32.793 66.2519 32.237 65.5279C31.548 64.6159 30.726 64.2219 29.644 64.2339C28.892 64.2419 28.432 64.3629 27.805 64.8789C25.996 66.3649 24.963 69.4549 25.339 72.7009C25.392 73.1589 25.459 73.6969 25.506 74.0099C24.817 73.4389 22.596 70.8059 21.193 68.6899C20.264 67.2949 18.763 64.4379 18.594 63.8949C18.779 63.8039 19.223 63.5859 19.742 63.3459C22.303 62.1169 24.649 60.2799 26.018 58.4329C27.016 57.0939 27.485 56.0789 27.587 55.0399C27.679 53.9679 27.495 53.4109 26.805 52.6559C26.137 51.8969 25.497 51.5659 24.524 51.4759C23.491 51.3579 22.683 51.5749 21.741 52.2209C19.937 53.4359 18.196 56.4089 17.507 59.4509C17.402 59.9179 17.318 60.2469 17.255 60.4349L17.157 60.1459C17.03 59.7709 16.816 59.1449 16.591 58.4779C16.253 57.5119 15.832 56.0279 15.652 55.1689C15.24 53.2439 14.836 50.1109 14.836 48.8429V47.9999H15.617C16.709 47.9999 19.129 47.6359 20.595 47.2499C21.746 46.9619 23.694 46.1339 24.529 45.5779C25.356 45.0269 26.578 43.7619 27.095 42.9219C27.691 41.9199 27.896 41.2719 27.972 40.1469C28.036 38.9709 27.787 38.3739 26.903 37.5919C25.924 36.7299 25.036 36.5929 23.256 37.0249C21.162 37.5239 18.693 38.9979 17.108 40.6959C16.629 41.2249 15.033 43.3639 15.033 43.6609C15.028 43.7139 14.966 43.8709 14.892 44.0349C14.991 42.7259 15.405 39.3589 15.653 38.1829C16.014 36.4739 16.303 35.4809 16.887 33.9349L17.284 32.9139L19.948 32.9499C22.035 32.9859 23.082 32.9499 24.095 32.7999C28.283 32.1859 30.909 30.9439 31.902 29.1109C32.443 28.1329 32.694 26.7679 32.475 26.0079C32.277 25.2559 31.46 24.3669 30.616 23.9849C29.735 23.5889 28.09 23.5589 26.706 23.9139C24.776 24.4029 21.915 26.1319 19.748 28.1219L19.507 28.3489C20.441 26.5289 21.692 24.4479 22.705 23.0289C23.828 21.4449 23.858 21.4309 24.644 21.0669C25.092 20.8609 26.436 20.4069 27.641 20.0559C30.916 19.0829 33.394 18.2439 34.269 17.8119C35.966 16.9889 37.514 15.4879 38.311 13.8939C38.668 13.1679 38.724 12.9149 38.711 12.0889C38.698 10.5329 37.913 8.91394 36.886 8.32294C35.884 7.73994 33.95 7.56494 32.284 7.90794C30.916 8.20194 29.022 9.23794 27.88 10.3169C25.806 12.2659 24.645 14.5289 23.739 18.3869C23.5 19.3729 23.237 20.2389 23.144 20.4259C23.045 20.6119 22.424 21.5219 21.689 22.5319C20.966 23.5439 19.881 25.2829 19.272 26.4069C18.887 27.0949 18.579 27.6299 18.373 27.9779C18.392 27.8189 18.415 27.6309 18.446 27.4229C18.559 26.7059 18.622 25.1849 18.622 23.1409C18.622 20.2039 18.614 19.9099 18.329 19.1199C17.671 17.1849 16.514 16.1619 14.983 16.1619C13.238 16.1619 12.13 17.1589 11.389 19.3929C10.967 20.6579 10.936 22.4749 11.31 24.0189C11.85 26.2909 13.409 29.0989 15.378 31.3459L16.275 32.3829L15.748 33.7399C15.121 35.3759 14.796 36.5489 14.412 38.5709C14.174 39.8569 13.826 43.0709 13.791 44.2409C13.701 44.0039 13.589 43.7049 13.471 43.3779C12.137 39.6369 10.897 37.3079 9.45101 35.8239C8.07701 34.4249 6.90901 33.9719 5.54701 34.3049C4.59401 34.5299 3.49301 35.6169 3.19101 36.6309C2.57101 38.7049 3.46701 41.1379 5.78201 43.6669C6.18701 44.1079 6.84701 44.7229 7.25401 45.0379C8.27601 45.8209 10.481 46.9209 12.274 47.5439L13.732 48.0569L13.814 49.5459C13.991 52.9559 14.625 56.2529 15.697 59.3459C15.889 59.9039 16.03 60.3449 16.123 60.6549C15.82 60.3079 15.357 59.7709 14.824 59.1379C11.849 55.5889 10.443 54.3359 8.81101 53.7799ZM15.902 62.1309C16.543 62.8279 16.791 63.1989 16.854 63.3439C16.714 63.3849 16.39 63.4589 15.885 63.5579C14.483 63.8159 11.462 63.7209 10.115 63.3739C8.49701 62.9449 6.73001 61.9199 5.71601 60.8219C5.02501 60.0819 4.81301 59.6889 4.58501 58.7179C4.31901 57.5659 4.35301 57.0869 4.76001 56.2729C5.20201 55.3889 5.36101 55.2399 6.17901 54.9439C6.53101 54.8149 6.98101 54.7519 7.43401 54.7519C7.94401 54.7519 8.45701 54.8319 8.83801 54.9899C9.88801 55.4299 11.759 57.2159 13.971 59.8899C14.505 60.5209 15.463 61.6509 15.902 62.1309ZM18.166 62.7839L18.223 61.9899C18.336 60.3379 18.944 58.2279 19.81 56.4829C20.43 55.2089 20.67 54.8529 21.42 54.1029C22.454 53.0689 23.326 52.5949 24.261 52.5949C24.532 52.5949 24.809 52.6349 25.096 52.7129C25.484 52.8249 25.852 53.1539 26.105 53.6169C26.419 54.1899 26.509 54.8589 26.347 55.4069C26.105 56.2189 25.115 57.7819 24.269 58.6879C22.919 60.1599 20.183 62.0129 18.29 62.7349L18.166 62.7839ZM21.871 73.9899C22.854 74.3569 25.402 75.6279 25.597 75.8229C25.637 75.8599 25.634 75.8789 25.633 75.8889C25.618 75.9919 25.415 76.2499 24.217 76.8309C21.977 77.9139 18.625 78.8649 17.044 78.8649C16.249 78.8649 14.979 78.4479 14.377 77.9889C13.443 77.2879 12.997 75.9759 13.382 75.0629C13.697 74.3159 14.748 73.6539 15.938 73.4519C16.912 73.2899 18.947 73.3209 20.047 73.5139C20.645 73.6149 21.472 73.8419 21.871 73.9899ZM27.334 67.2119C27.919 66.0599 28.825 65.3919 29.724 65.3919C29.939 65.3919 30.154 65.4299 30.364 65.5089C31.229 65.8319 31.706 66.8799 31.706 68.4599C31.706 69.9619 31.17 71.2519 29.915 72.7729C28.935 73.9669 28.669 74.2249 27.886 74.7429L27.222 75.1919L27.097 74.9349C26.229 73.2469 26.355 69.1339 27.334 67.2119ZM34.042 86.4259C33.076 87.2599 31.108 88.3929 30.348 88.5519C29.416 88.7419 28.621 88.5419 28.051 87.9719C27.799 87.7189 27.581 87.3859 27.545 87.2459C27.353 86.4809 28.341 85.1929 29.468 84.7399C30.221 84.4289 34.02 83.7949 35.274 83.7699C35.935 83.7589 36.084 83.8029 36.095 83.8249C36.084 84.0899 34.867 85.7249 34.042 86.4259ZM37.232 81.7219C35.852 78.6219 35.8 75.6609 37.107 74.5199L37.108 74.5189C37.334 74.3169 37.547 74.2139 37.763 74.2139C38.052 74.2139 38.346 74.3959 38.683 74.7669C39.026 75.1569 39.151 75.4299 39.32 76.1519C39.686 77.8349 39.272 79.7589 38.213 81.2999C37.893 81.7679 37.591 82.2099 37.502 82.2339C37.442 82.2049 37.326 81.9379 37.232 81.7219ZM14.922 46.9189C14.876 46.8309 15.084 46.3359 15.347 45.7109L15.53 45.2749C16.745 42.3679 18.714 40.2299 21.382 38.9199C22.831 38.2009 23.651 37.9669 24.756 37.9549C25.474 37.9439 25.587 37.9909 26.009 38.2999C26.323 38.5209 26.59 38.8469 26.741 39.1959C26.963 39.6739 26.973 39.7889 26.854 40.4329C26.489 42.3319 24.983 44.1329 22.925 45.1309C21.456 45.8409 20.123 46.2659 18.007 46.6959C16.757 46.9509 16.111 47.0269 15.526 46.9789L15.314 46.9679C15.153 46.9609 14.954 46.9509 14.922 46.9189ZM14.299 17.3479C14.795 17.1759 15.095 17.1839 15.583 17.3819C16.375 17.7079 16.849 18.3269 17.273 19.5889C17.759 21.0349 17.72 24.7019 17.18 28.3099C17.133 28.6349 17.084 28.8999 17.042 29.0959C16.813 28.2359 16.355 26.2809 16.198 25.4159C16.138 25.0239 16.038 24.0309 15.989 23.2329C15.929 22.0299 15.843 21.6509 15.6 21.5419C15.422 21.4589 15.246 21.5759 15.108 21.6869C14.724 22.0189 14.979 24.8879 15.332 26.5859C15.563 27.6999 16.122 29.8769 16.442 30.9469C16.014 30.4679 15.309 29.6039 14.78 28.8629C14.405 28.3549 13.849 27.4189 13.54 26.7749C11.874 23.4189 11.673 20.7519 12.926 18.6239C13.381 17.8569 13.702 17.5589 14.299 17.3479ZM17.785 31.8639C17.819 31.7939 17.902 31.6719 17.936 31.6199C18.406 30.9459 20.534 28.8389 21.731 27.8639C23.943 26.0869 26.09 25.0489 28.113 24.7799C28.258 24.7599 28.699 24.7009 28.846 24.6709C28.93 24.6839 29.244 24.7509 29.595 24.8379C30.412 25.0509 30.856 25.3419 31.181 25.8779C31.841 26.9429 31.023 29.0259 29.59 29.9309C28.368 30.7009 25.45 31.5369 23.085 31.7959C21.775 31.9469 18.091 31.9749 17.789 31.8659C17.787 31.8649 17.785 31.8639 17.785 31.8639ZM26.611 18.2799C28.64 16.2149 32.721 12.9949 34.137 12.3409C34.504 12.1829 34.734 11.8399 34.673 11.5419C34.638 11.3749 34.493 11.1969 34.19 11.1969C33.746 11.1969 31.052 12.9939 29.8 13.9989C27.783 15.6249 26.784 16.5159 25.528 17.8109L25.339 18.0079C25.117 18.2399 24.902 18.4629 24.762 18.5909C24.814 18.3429 24.95 17.8859 25.112 17.3459L25.222 16.9769C26.389 13.0359 28.526 10.4539 31.575 9.30194C32.861 8.82094 34.103 8.67994 35.166 8.89794C36.114 9.10294 36.596 9.41594 37.005 10.0939C37.766 11.3859 37.817 12.2779 37.199 13.5009C36.637 14.6129 35.324 15.9709 34.271 16.5279C33.17 17.1029 31.521 17.7009 28.922 18.4659C28.169 18.6879 26.361 19.2209 25.854 19.3849C25.751 19.4159 25.594 19.4639 25.472 19.4939C25.663 19.2509 26.127 18.7759 26.611 18.2799ZM7.96701 39.1949C7.89001 39.1949 7.65701 39.1949 7.55201 39.3799C7.41501 39.6209 7.56201 40.0289 8.13601 40.9979C9.15901 42.7239 10.561 44.5229 11.886 45.8099C12.211 46.1229 12.473 46.3889 12.655 46.5809C11.937 46.3209 10.521 45.7179 9.82701 45.3469C7.78001 44.2429 6.49301 43.0839 5.23501 41.2099C4.65001 40.3389 4.03201 38.7159 4.03201 38.0529C4.03201 37.5319 4.34801 36.6359 4.68301 36.2089L4.68401 36.2069C5.10701 35.6479 5.66801 35.3609 6.29901 35.3609C6.64201 35.3609 7.00701 35.4459 7.38101 35.6189C9.18601 36.4669 10.855 39.3159 12.792 44.8579L12.97 45.3579L12.43 44.8259C11.274 43.6809 9.90701 41.8879 9.02701 40.3619C8.51301 39.4799 8.31701 39.1949 7.96701 39.1949ZM89.499 33.3409L90.521 34.3629L90.512 34.3219C90.258 33.1929 89.585 31.3569 88.797 29.6479C84.396 20.0879 75.772 12.2069 66.289 9.07994C61.802 7.60494 56.517 6.86594 52.503 7.14994C50.151 7.31494 49.85 7.33494 49.719 6.97794C49.65 6.80494 49.693 6.67294 49.741 6.59394C49.888 6.34994 50.301 6.20794 51.122 6.11894C52.751 5.94194 55.824 5.96594 57.833 6.16794C63.199 6.70594 67.004 7.77594 71.407 9.98194C78.74 13.6549 85.351 20.2849 89.092 27.7169C90.263 30.0329 91.3 32.6999 91.503 33.9179C91.504 33.9259 91.506 33.9339 91.507 33.9409C91.736 33.0049 92.154 29.9859 92.223 28.4349C92.293 26.8879 92.346 26.5989 92.576 26.5029C92.748 26.4389 92.975 26.5359 93.115 26.7279C93.695 27.4679 92.685 34.8809 91.972 36.2709C91.85 36.5149 91.617 36.6999 91.429 36.6999C91.237 36.6999 90.736 36.2439 89.939 35.3459C88.792 34.0489 86.542 31.9639 85.218 30.9709C84.658 30.5559 84.395 30.2089 84.435 29.9389C84.45 29.8389 84.512 29.7039 84.724 29.6289C85.437 29.3409 88.828 32.6699 89.499 33.3409ZM86.287 70.5959C83.808 74.0919 81.885 76.1229 78.374 78.9569C74.738 81.8859 70.547 84.1019 66.254 85.3659C65.941 85.4569 65.687 85.5399 65.515 85.6009C66.368 85.8449 69.238 86.3029 70.583 86.3129C71.48 86.3129 71.949 86.3389 71.949 86.9099C71.949 87.3579 71.746 87.3579 70.768 87.3579C68.202 87.3579 63.239 86.4759 63.108 85.6929C63.074 85.5579 63.124 85.3169 63.768 84.6339C64.631 83.7459 66.128 81.9479 66.909 80.8629C67.876 79.5189 68.068 79.2719 68.413 79.4069C68.594 79.4799 68.72 79.6799 68.72 79.8939C68.72 80.3559 66.959 82.5799 66.028 83.6899L65.933 83.8029C65.673 84.1129 65.47 84.3539 65.351 84.5079C66.79 84.1859 70.364 82.7579 72.224 81.7599C76.385 79.5369 81.734 74.9019 84.665 70.9759C89.395 64.6399 91.626 58.7369 92.122 51.2399C92.147 50.7849 92.234 49.5639 92.328 49.3999L92.333 49.3919C92.412 49.2739 92.569 49.1879 92.706 49.1879C92.853 49.1879 92.975 49.2399 93.067 49.3429C93.359 49.6689 93.371 50.5159 93.115 52.8309C92.343 59.7069 90.364 64.8529 86.287 70.5959Z" fill="black" stroke="#151515" stroke-width="2" mask="url(#path-1-inside-1_1_83)"/>
</svg>
