<svg width="96" height="96" viewBox="0 0 96 96" fill="none" xmlns="http://www.w3.org/2000/svg">
<mask id="path-1-outside-1_1_73" maskUnits="userSpaceOnUse" x="11" y="6" width="74" height="85" fill="black">
<rect fill="white" x="11" y="6" width="74" height="85"/>
<path d="M83.9291 43.0641C83.7009 41.8149 82.7352 40.8976 81.7169 40.2162C79.5574 38.7748 77.1346 37.4382 74.5713 36.8179C74.9926 36.6258 75.4052 36.4336 75.7915 36.2064C76.3094 35.9007 76.7747 35.525 77.1434 35.0446C77.5208 34.5553 77.7842 33.9963 78.1617 33.5158C78.5742 32.9742 79.1185 32.7558 79.6979 32.4151C80.1632 32.1442 80.5494 31.7686 80.8567 31.3318C81.4711 30.432 81.6818 29.2789 81.4975 28.2218C81.0586 25.6797 78.741 24.0723 76.4586 23.2686C75.335 22.8755 74.1499 22.561 72.956 22.4299C73.2018 21.3641 73.4213 20.2896 73.4915 19.1976C73.5617 18.027 73.2633 16.9787 72.4995 16.0789C71.8148 15.2665 70.8492 14.5327 69.7607 14.4016C68.9179 14.2968 68.0664 14.489 67.2764 14.8035C67.3027 14.5065 67.2851 14.2182 67.2061 13.9212C67.1008 13.5543 66.9077 13.1961 66.5916 12.9689C66.1176 12.6195 65.5031 12.6807 64.9413 12.6894C63.5806 12.6894 62.1673 12.8903 60.8154 12.6981C60.4028 12.637 60.0078 12.6282 59.6127 12.6457C59.2967 11.6149 58.5154 10.8199 57.4796 10.453C56.2243 10.0162 54.846 10.1473 54.0384 8.92423C53.3449 7.86718 52.2037 7.50027 51.0186 7.24693C49.7282 6.96739 48.3324 6.83635 47.0859 7.34303C46.366 7.63131 45.7076 8.06811 45.0405 8.45249C44.4084 8.8194 43.6535 9.15136 43.1794 9.73666C43.1619 9.76287 43.1531 9.78908 43.1356 9.81529C42.3982 8.97664 41.2745 8.60973 40.1245 8.82813C39.4047 8.96791 38.7463 9.32608 38.1757 9.77161C37.6139 10.2171 37.2101 10.8723 36.6219 11.2742C35.8406 11.8158 34.9804 10.9772 34.2956 10.6452C33.7163 10.3569 33.093 10.2696 32.4609 10.4268C31.1529 10.7326 30.2488 11.8682 29.8801 13.1C29.4148 14.6462 29.5465 16.3934 29.7484 18.0008C28.7564 17.6863 27.7293 17.4243 26.7286 17.1884C25.5172 16.9001 24.3321 16.9613 23.4191 17.896C22.55 18.7871 22.3042 20.0538 22.3393 21.2593C19.6707 21.4428 17.2127 23.1637 16.37 25.8282C16.2383 26.2388 16.1505 26.6668 15.9311 27.0425C15.6765 27.4793 15.2639 27.6627 14.8601 27.9335C14.149 28.414 13.6223 29.0867 13.2712 29.8554C12.5601 31.4366 12.4899 33.3585 12.9991 35.0096C14.0525 38.4166 17.4234 39.3688 20.689 39.5435C19.7673 39.7707 18.8455 39.9978 17.9501 40.3036C16.4753 40.8015 14.8425 41.448 13.6399 42.4613C12.4548 43.466 12.1036 45.3005 12.0159 46.7769C11.9193 48.3668 12.2617 49.9829 13.0956 51.3545C13.833 52.5775 14.9303 53.5647 16.2559 54.115C17.6429 54.6916 19.2493 54.9013 20.7504 54.8226C21.7073 54.7789 22.6729 54.5955 23.5771 54.2635C23.5859 56.0194 24.9817 57.4958 26.5706 58.1248C28.6423 58.946 31.1178 58.7713 33.3037 58.6402C34.8662 58.5441 36.4288 58.3345 37.9299 57.8802C38.3513 59.9331 39.9314 61.6541 41.9856 62.2045C42.6001 62.3704 43.2146 62.3879 43.8378 62.3617C43.9256 62.3617 44.0046 62.3617 44.0836 62.3617C44.2065 64.2574 44.3821 66.1444 44.6191 68.0313C44.8649 70.0056 45.2599 71.9537 45.1897 73.9543C45.1283 75.7713 45.0932 77.5622 45.3302 79.3705C45.5584 81.1002 45.9534 82.8037 46.524 84.4461C47.1737 86.3243 48.0427 88.1239 49.1137 89.8099C49.2015 89.9497 49.377 90.037 49.5438 89.9846C51.2205 89.443 50.0442 87.3464 49.8511 86.2544C49.5438 84.5334 49.7809 82.76 49.7194 81.0303C49.6931 80.148 49.5614 79.2919 49.3683 78.427C49.1488 77.4748 49.0259 76.5313 48.9732 75.5529C48.8679 73.6747 48.7801 71.8052 48.6309 69.9357C48.4729 67.8915 48.2622 65.8473 48.0164 63.8119C48.4202 63.9779 48.8503 64.1002 49.3068 64.1351C50.6324 64.2312 51.914 63.6109 52.9587 62.8422C53.5029 62.4403 53.9857 61.9599 54.5563 61.6017C55.1972 61.1998 55.9258 61.095 56.6632 61.0863C57.9975 61.0688 59.5689 61.3833 60.7627 60.6058C61.2543 60.2826 61.6142 59.8196 61.9478 59.3478C62.3429 58.7975 62.7379 58.2296 63.0188 57.6094C63.4226 56.7183 63.4753 55.8011 63.2997 54.91C64.5901 55.0323 65.9157 55.1721 67.1886 54.91C68.5053 54.6392 69.6992 53.9927 70.858 53.355C71.4461 53.0318 72.0343 52.6998 72.64 52.4203C72.9473 52.2805 73.2633 52.1494 73.5969 52.097C74.0182 52.0271 74.4396 52.1407 74.8522 52.2281C76.1251 52.5076 77.4506 52.4552 78.6796 51.9922C79.8032 51.5641 80.7864 50.8391 81.515 49.8869C81.8925 49.3976 82.191 48.856 82.4104 48.2882C82.6387 47.7029 82.7089 47.1001 82.8406 46.4886C82.981 45.8072 83.4639 45.3791 83.7535 44.7763C84.0081 44.2522 84.052 43.6669 83.9467 43.0991L83.9291 43.0641ZM80.6284 27.8637C80.962 28.9382 80.8128 30.1787 80.0929 31.0872C79.7506 31.5153 79.3204 31.7599 78.8376 32.0045C78.2933 32.284 77.8632 32.6335 77.4945 33.1314C77.1872 33.5507 76.9502 34.0137 76.643 34.433C76.2304 35.0096 75.6861 35.4202 75.0541 35.7434C74.4571 36.0492 73.8251 36.3375 73.1755 36.5908C73.1492 36.5908 73.1228 36.6083 73.0965 36.617C72.4732 36.8616 71.8324 37.0713 71.2003 37.2547C69.7694 37.6653 68.3649 37.7265 66.9077 37.3858C65.5821 37.08 64.16 36.7131 63.089 35.8483C62.0619 35.0184 61.2192 34.0137 59.8937 33.6381C58.533 33.2537 57.0319 33.4459 55.68 33.7516C53.1606 34.3282 50.7026 35.8657 49.9213 38.4166H49.895C49.377 38.1807 48.8503 37.9623 48.3236 37.744C49.3419 35.3328 50.8255 32.9916 53.1518 31.6463C54.3457 30.9562 55.601 30.6941 56.9617 30.5893C58.2257 30.4932 59.4898 30.3971 60.6223 29.7943C61.6845 29.2265 62.536 28.3441 63.3963 27.5142C64.3882 26.562 65.4504 25.7059 66.6092 24.9721C67.7679 24.2383 69.0057 23.5656 70.3488 23.2598C71.806 22.9366 73.2984 23.1725 74.7205 23.5394C77.0995 24.1509 79.8296 25.3128 80.6109 27.8637H80.6284ZM58.2257 49.0569C56.8387 49.1705 55.4342 49.2142 54.0472 49.0395C52.7919 48.8822 51.5804 48.524 50.3778 48.1309C48.0603 47.3796 45.734 46.5847 43.2672 46.9516C41.9943 47.1438 40.7829 47.5806 39.5627 47.9737C38.2986 48.3843 37.017 48.7162 35.7002 48.9259C33.3124 49.3015 30.3453 49.5636 28.1858 48.2445C27.7206 47.9562 27.2553 47.5631 27.0622 47.0389C26.8427 46.4274 27.0095 45.7548 27.1938 45.1607C27.545 44.0251 28.2034 42.9855 29.0637 42.1556C30.0556 41.2034 31.3109 40.6093 32.5838 40.1289C33.9357 39.6222 35.3052 39.1592 36.6922 38.7486C38.1582 38.3118 39.6417 37.9711 41.1692 37.8488C42.7405 37.7265 44.3294 37.8051 45.9008 37.9274C45.9622 37.9274 46.0149 37.9274 46.0676 37.9012C46.6821 37.7789 47.2439 38.0847 47.7969 38.3205C48.429 38.5826 49.061 38.8359 49.6843 39.1155C50.8343 39.6222 51.9667 40.1725 53.0728 40.7666C55.3289 41.9721 57.5147 43.3349 59.5689 44.8724C60.473 45.5451 61.5703 46.5148 61.2894 47.7815C61.0085 49.0569 59.2353 48.9696 58.217 49.0569H58.2257ZM37.9826 24.3169C37.9826 24.3169 37.9563 24.2645 37.9299 24.2383C37.8948 24.2033 37.8685 24.1684 37.8421 24.1334C37.6929 23.9325 37.5349 23.7316 37.3769 23.5306C36.1216 21.6088 36.2532 18.8744 37.8772 17.2059C38.3425 16.7254 38.8868 16.4546 39.4398 16.1051C40.028 15.7382 40.1509 15.0743 40.3879 14.4715C40.9146 13.1 41.6783 11.6673 43.0653 11.0034C44.3997 10.3656 45.9973 10.8287 47.0946 11.7197C48.2095 12.637 48.9206 13.9212 49.5175 15.2141C50.1232 16.5157 50.6938 17.8174 51.7736 18.8133C52.8182 19.7742 54.0384 20.4906 54.9953 21.5476C57.0055 23.7665 58.0151 26.7891 57.778 29.7681C56.4613 29.8904 55.1621 29.9428 53.9155 30.4407C51.4663 31.4279 49.658 33.4721 48.4465 35.7609C48.1568 36.3113 47.9023 36.8791 47.6565 37.4469C47.0859 37.2111 46.5328 37.0626 45.9183 37.1849C45.8218 37.1849 45.734 37.1674 45.6374 37.1674C45.6374 34.7825 44.6367 32.5723 43.3813 30.5805C42.7317 29.5584 42.0646 28.5276 41.3096 27.5754C40.5371 26.6057 39.4047 26.0641 38.6146 25.1206C38.3952 24.8585 38.1933 24.5964 37.9826 24.3256V24.3169ZM51.5717 39.133C51.5717 39.133 51.5629 39.1504 51.5541 39.1592C51.2469 39.0107 50.9484 38.8709 50.6411 38.7311C51.3961 36.0841 54.0735 34.7563 56.6368 34.3282C57.9887 34.1011 59.4811 34.0312 60.6925 34.7912C61.544 35.3241 62.1936 36.0929 62.9925 36.6782C61.2104 37.6915 59.1387 37.875 57.1109 37.8837C55.285 37.8925 52.8709 37.5256 51.5804 39.133H51.5717ZM69.708 15.1442C70.6473 15.2752 71.4988 16.0003 72.0606 16.7254C72.6927 17.5466 72.798 18.4726 72.7102 19.4772C72.6224 20.4469 72.4205 21.4078 72.1923 22.3513C70.7877 22.2901 69.4446 22.6396 68.1805 23.2336C66.8989 23.8364 65.6962 24.6226 64.5814 25.4962C63.5192 26.3261 62.615 27.3046 61.6055 28.1781C60.833 28.8508 60.0166 29.2876 59.0948 29.5322C60.3326 27.6103 61.8161 25.8544 63.0364 23.915C64.4146 21.7223 65.5207 19.3636 66.5653 16.9962C66.7496 16.5856 66.9428 16.1488 67.0832 15.7033C67.8733 15.3102 68.8214 15.0131 69.708 15.1354V15.1442ZM60.1219 13.3621C60.6837 13.397 61.228 13.5193 61.7986 13.5193C62.4131 13.5193 63.0364 13.4669 63.6508 13.4494C64.2653 13.4319 64.8798 13.4232 65.4943 13.4319C66.0737 13.4319 66.3985 13.6678 66.5038 14.2444C66.7057 15.3014 65.9684 16.4895 65.5558 17.4243C64.6253 19.4947 63.6333 21.5476 62.4306 23.4695C61.2455 25.3652 59.8059 27.0862 58.5769 28.9469C58.5857 26.3698 57.7254 23.8102 56.154 21.7573C55.3552 20.7177 54.3896 19.9577 53.3888 19.1627C54.2491 17.2233 55.3289 15.2315 57.2074 14.1133C58.0853 13.5892 59.0948 13.2834 60.1219 13.3533V13.3621ZM45.6637 8.95043C46.3573 8.54858 47.042 8.07684 47.832 7.87592C48.6221 7.67499 49.4561 7.71867 50.2461 7.84971C50.966 7.97201 51.756 8.12052 52.4232 8.44375C52.7392 8.601 53.0289 8.79319 53.2484 9.08147C53.459 9.35229 53.6171 9.66678 53.8628 9.91138C54.3105 10.3569 54.9163 10.6015 55.5132 10.75C56.2418 10.9335 57.0407 10.9859 57.7078 11.3528C58.2609 11.6586 58.6383 12.1478 58.849 12.7156C58.454 12.7855 58.0502 12.8903 57.6551 13.0563C55.2235 14.0871 53.8277 16.3847 52.7919 18.691C52.151 18.1755 51.6156 17.599 51.1942 16.8914C50.7904 16.21 50.4831 15.4849 50.1583 14.7773C49.5175 13.397 48.7187 12.0255 47.4897 11.082C46.5153 10.3307 45.2512 9.8677 44.0134 9.99874C44.4962 9.57068 45.1458 9.27366 45.6813 8.96791L45.6637 8.95043ZM30.8018 12.7855C31.1178 12.0779 31.6796 11.4664 32.4258 11.2043C33.2773 10.8985 33.9269 11.2654 34.6468 11.6935C35.2876 12.0779 36.0601 12.3836 36.7887 12.0342C37.4647 11.7197 37.886 11.0121 38.4303 10.5316C39.6505 9.45712 41.5993 9.02032 42.6527 10.3831C41.5642 10.9335 40.7478 11.9468 40.2035 13.0214C40.0368 13.3533 39.8875 13.694 39.7471 14.0435C39.589 14.4366 39.4837 15.0656 39.1852 15.3626C38.9658 15.581 38.5971 15.6945 38.3337 15.8605C38.0265 16.0527 37.7456 16.2799 37.4822 16.5245C35.9987 17.9309 35.4983 20.0538 35.9284 21.9844C35.1823 21.303 34.3922 20.674 33.5846 20.0712C32.6189 19.3636 31.6796 18.6648 30.5472 18.2454C30.4155 17.2845 30.3453 16.3148 30.3541 15.3451C30.3541 14.4803 30.4331 13.5805 30.793 12.7768L30.8018 12.7855ZM24.0599 18.3153C24.9641 17.4854 26.0878 17.7737 27.1587 18.0532C28.3263 18.3503 29.5377 18.6298 30.6438 19.0928C31.6533 19.5121 32.5312 20.2285 33.409 20.8749C34.2868 21.5301 35.1471 22.2203 35.9284 22.9978C36.2006 23.2773 36.4551 23.5656 36.6922 23.8626C36.8941 24.1858 37.1311 24.4916 37.3944 24.7711C37.57 24.9983 37.7456 25.2341 37.9211 25.4613C38.6059 26.3349 39.5803 26.8153 40.3352 27.6016C41.1165 28.414 41.731 29.4361 42.3455 30.3796C43.6798 32.4063 44.8474 34.634 44.8649 37.1062C43.6974 37.0363 42.5298 37.0101 41.3623 37.0888C40.9936 37.115 40.6337 37.1499 40.265 37.1936C40.265 37.1761 40.265 37.1586 40.265 37.1499C39.8612 35.2804 38.0616 34.3632 36.4464 33.6643C35.4719 33.245 34.5151 32.8082 33.7163 32.1006C33.014 31.4803 32.4258 30.7378 31.9167 29.9515C30.793 28.1956 30.0381 26.2388 28.9408 24.4741C28.4404 23.6792 27.8786 22.9191 27.0709 22.4125C26.2458 21.897 25.2362 21.6087 24.2882 21.3991C23.8844 21.3117 23.4893 21.2593 23.0855 21.2418C23.0592 20.1935 23.2348 19.0666 24.0424 18.3241L24.0599 18.3153ZM14.07 35.6037C13.3151 34.1186 13.2624 32.2141 13.7803 30.6504C14.0349 29.8729 14.4738 29.1391 15.141 28.6411C15.4482 28.414 15.7994 28.2568 16.0891 28.0122C16.3875 27.7588 16.5982 27.4269 16.7475 27.0687C17.0459 26.3611 17.1776 25.6098 17.5726 24.9284C17.9501 24.2819 18.4505 23.7054 19.0386 23.2424C20.3115 22.2377 21.9619 21.7573 23.5771 22.0106C24.5164 22.1591 25.5084 22.4299 26.3599 22.858C27.2026 23.286 27.7557 23.9849 28.2473 24.7624C29.2656 26.3698 29.9766 28.1519 30.951 29.7856C31.943 31.4541 33.2159 32.9392 34.9891 33.8128C36.657 34.634 39.0623 35.2193 39.5364 37.2984C38.6936 37.4382 37.8509 37.6304 37.0257 37.8575C35.6212 38.2506 34.2342 38.7311 32.856 39.2203C32.7594 39.2553 32.6628 39.2902 32.5663 39.3251C31.0652 38.6612 29.5289 37.9973 27.8698 37.8663C26.2897 37.744 24.7885 38.2419 23.305 38.7398C20.136 38.8796 15.7028 38.8359 14.0525 35.5774L14.07 35.6037ZM14.2456 51.634C13.3502 50.5158 12.8586 49.1181 12.7884 47.6941C12.7445 46.8992 12.8235 46.1042 13.0078 45.3267C13.1746 44.6191 13.3941 43.8503 13.8769 43.2825C14.3509 42.7409 15.0444 42.4002 15.6677 42.0682C16.37 41.7013 17.0986 41.3868 17.8448 41.116C19.2932 40.5919 20.8031 40.3473 22.2779 39.9017C23.8668 39.4212 25.4381 38.6874 27.1236 38.6263C28.6862 38.5739 30.1785 39.1242 31.6006 39.7357C30.8018 40.0677 30.0293 40.4608 29.3358 40.9762C28.3526 41.71 27.5362 42.6623 26.9919 43.7542C26.4652 44.8026 25.9473 46.2178 26.4213 47.3709C26.7198 48.1047 27.3431 48.6289 28.0366 49.0133C27.2202 50.1577 26.4389 51.4069 25.3855 52.3416C24.4023 53.2152 23.1382 53.7219 21.8478 53.9403C19.1879 54.3946 16.0188 53.8267 14.2544 51.6428L14.2456 51.634ZM31.5567 57.9326C30.5209 57.9501 29.4675 57.9676 28.4404 57.8103C26.4565 57.5133 24.1477 56.2029 24.3584 53.9141C24.692 53.7481 25.0168 53.5559 25.324 53.3375C26.7461 52.3154 27.7118 50.743 28.7213 49.3365C28.8354 49.3802 28.9495 49.4238 29.0637 49.4675C30.3102 49.9043 31.6709 49.9742 32.9876 49.9393C34.4449 49.8956 35.9109 49.7121 37.3418 49.3889C38.7639 49.0744 40.1245 48.5677 41.5115 48.1484C42.8283 47.7466 44.1626 47.5019 45.5496 47.6417C45.8481 47.6679 46.1378 47.7203 46.4275 47.7728C45.4531 51.0749 43.4252 54.1587 40.4406 55.9583C38.6936 57.0153 36.7009 57.5308 34.6819 57.7492C33.646 57.8627 32.6102 57.9064 31.5743 57.9239L31.5567 57.9326ZM48.1481 74.0766C48.192 74.9589 48.2183 75.8412 48.3061 76.7148C48.3939 77.5709 48.6133 78.4008 48.7801 79.2395C49.1049 80.8643 48.9381 82.5242 48.9469 84.1665C48.9469 85.0663 49.0084 85.9748 49.2103 86.8484C49.3156 87.3027 49.9828 88.5956 49.5877 89.0848C47.8233 86.2107 46.6469 83.0046 46.1466 79.6675C45.8832 77.9116 45.8657 76.1644 45.9447 74.391C45.9886 73.4126 45.9886 72.4429 45.8744 71.4733C45.7603 70.5298 45.6023 69.595 45.4794 68.6516C45.2073 66.5724 45.0141 64.4845 44.8737 62.3967C45.2424 62.4491 45.5935 62.5539 45.9534 62.7286C46.3924 62.9383 46.8137 63.1829 47.2351 63.41C47.2351 63.4275 47.2351 63.445 47.2351 63.4712C47.6652 66.9917 47.9725 70.5298 48.1568 74.0678L48.1481 74.0766ZM62.6325 56.3339C62.5448 56.928 62.2639 57.4696 61.9566 57.9763C61.6318 58.5004 61.2807 59.0595 60.8593 59.5138C59.9024 60.5534 58.454 60.3525 57.1723 60.3175C55.8643 60.2826 54.7407 60.4748 53.6873 61.2872C52.6953 62.0472 51.7823 62.8946 50.5358 63.2353C49.2805 63.5847 48.2446 63.1217 47.1561 62.519C46.1115 61.9337 45.1722 61.558 43.952 61.593C42.644 61.6366 41.494 61.4008 40.4406 60.5796C39.5188 59.8545 38.8429 58.7975 38.6498 57.6356C39.0448 57.4958 39.431 57.3386 39.8085 57.1639C41.5379 56.3427 43.0478 55.076 44.2504 53.5909C45.5935 51.9223 46.5592 49.9917 47.1561 47.9475C47.9725 48.1484 48.7713 48.4017 49.5614 48.6638C50.8869 49.1006 52.2125 49.5374 53.5995 49.7383C55.0743 49.9567 56.5666 49.948 58.0502 49.8344C58.5593 49.7908 59.165 49.782 59.7532 49.6947C60.2448 50.7517 60.9207 51.6864 61.5352 52.6736C62.2024 53.7481 62.8344 55.0323 62.6325 56.3339ZM83.0952 44.3745C82.8581 44.9161 82.4017 45.3267 82.2085 45.9033C82.033 46.4274 82.0154 46.9865 81.8662 47.5194C81.6994 48.096 81.4448 48.6376 81.12 49.1356C80.4616 50.1315 79.4784 50.909 78.3372 51.3021C77.7842 51.4943 77.2048 51.6166 76.6167 51.634C75.9319 51.6602 75.2999 51.5117 74.6239 51.3894C73.3686 51.1536 72.3328 51.6864 71.2618 52.263C70.024 52.9269 68.8126 53.687 67.4519 54.0626C66.0386 54.447 64.5375 54.2635 63.089 54.1238C63.0012 53.8704 62.9047 53.6171 62.7818 53.3637C62.1409 52.0184 61.1402 50.874 60.4906 49.5287C60.9295 49.3889 61.3245 49.188 61.6142 48.8473C62.3253 48.0174 62.1936 46.7594 61.6493 45.8858C60.8856 44.6715 59.4723 43.8503 58.3048 43.0554C56.988 42.1556 55.6185 41.3169 54.2228 40.5394C53.5819 40.1813 52.9235 39.8406 52.2652 39.5173C52.9148 38.8447 53.8453 38.6787 54.7758 38.6525C55.8556 38.6175 56.9353 38.67 58.0151 38.635C59.9727 38.5739 61.9654 38.2506 63.6508 37.1936C63.6772 37.1761 63.686 37.1586 63.7035 37.1412C64.9413 37.7614 66.4248 38.1458 67.7855 38.3293C69.2252 38.5214 70.6473 38.2768 72.0167 37.8226C72.4469 37.6828 72.8858 37.5256 73.3247 37.3596C75.8178 37.7527 78.0388 38.9058 80.1895 40.1813C81.2341 40.8015 82.4368 41.4392 82.9898 42.5836C83.2532 43.134 83.3585 43.8154 83.1039 44.3832L83.0952 44.3745Z"/>
</mask>
<path d="M83.9291 43.0641C83.7009 41.8149 82.7352 40.8976 81.7169 40.2162C79.5574 38.7748 77.1346 37.4382 74.5713 36.8179C74.9926 36.6258 75.4052 36.4336 75.7915 36.2064C76.3094 35.9007 76.7747 35.525 77.1434 35.0446C77.5208 34.5553 77.7842 33.9963 78.1617 33.5158C78.5742 32.9742 79.1185 32.7558 79.6979 32.4151C80.1632 32.1442 80.5494 31.7686 80.8567 31.3318C81.4711 30.432 81.6818 29.2789 81.4975 28.2218C81.0586 25.6797 78.741 24.0723 76.4586 23.2686C75.335 22.8755 74.1499 22.561 72.956 22.4299C73.2018 21.3641 73.4213 20.2896 73.4915 19.1976C73.5617 18.027 73.2633 16.9787 72.4995 16.0789C71.8148 15.2665 70.8492 14.5327 69.7607 14.4016C68.9179 14.2968 68.0664 14.489 67.2764 14.8035C67.3027 14.5065 67.2851 14.2182 67.2061 13.9212C67.1008 13.5543 66.9077 13.1961 66.5916 12.9689C66.1176 12.6195 65.5031 12.6807 64.9413 12.6894C63.5806 12.6894 62.1673 12.8903 60.8154 12.6981C60.4028 12.637 60.0078 12.6282 59.6127 12.6457C59.2967 11.6149 58.5154 10.8199 57.4796 10.453C56.2243 10.0162 54.846 10.1473 54.0384 8.92423C53.3449 7.86718 52.2037 7.50027 51.0186 7.24693C49.7282 6.96739 48.3324 6.83635 47.0859 7.34303C46.366 7.63131 45.7076 8.06811 45.0405 8.45249C44.4084 8.8194 43.6535 9.15136 43.1794 9.73666C43.1619 9.76287 43.1531 9.78908 43.1356 9.81529C42.3982 8.97664 41.2745 8.60973 40.1245 8.82813C39.4047 8.96791 38.7463 9.32608 38.1757 9.77161C37.6139 10.2171 37.2101 10.8723 36.6219 11.2742C35.8406 11.8158 34.9804 10.9772 34.2956 10.6452C33.7163 10.3569 33.093 10.2696 32.4609 10.4268C31.1529 10.7326 30.2488 11.8682 29.8801 13.1C29.4148 14.6462 29.5465 16.3934 29.7484 18.0008C28.7564 17.6863 27.7293 17.4243 26.7286 17.1884C25.5172 16.9001 24.3321 16.9613 23.4191 17.896C22.55 18.7871 22.3042 20.0538 22.3393 21.2593C19.6707 21.4428 17.2127 23.1637 16.37 25.8282C16.2383 26.2388 16.1505 26.6668 15.9311 27.0425C15.6765 27.4793 15.2639 27.6627 14.8601 27.9335C14.149 28.414 13.6223 29.0867 13.2712 29.8554C12.5601 31.4366 12.4899 33.3585 12.9991 35.0096C14.0525 38.4166 17.4234 39.3688 20.689 39.5435C19.7673 39.7707 18.8455 39.9978 17.9501 40.3036C16.4753 40.8015 14.8425 41.448 13.6399 42.4613C12.4548 43.466 12.1036 45.3005 12.0159 46.7769C11.9193 48.3668 12.2617 49.9829 13.0956 51.3545C13.833 52.5775 14.9303 53.5647 16.2559 54.115C17.6429 54.6916 19.2493 54.9013 20.7504 54.8226C21.7073 54.7789 22.6729 54.5955 23.5771 54.2635C23.5859 56.0194 24.9817 57.4958 26.5706 58.1248C28.6423 58.946 31.1178 58.7713 33.3037 58.6402C34.8662 58.5441 36.4288 58.3345 37.9299 57.8802C38.3513 59.9331 39.9314 61.6541 41.9856 62.2045C42.6001 62.3704 43.2146 62.3879 43.8378 62.3617C43.9256 62.3617 44.0046 62.3617 44.0836 62.3617C44.2065 64.2574 44.3821 66.1444 44.6191 68.0313C44.8649 70.0056 45.2599 71.9537 45.1897 73.9543C45.1283 75.7713 45.0932 77.5622 45.3302 79.3705C45.5584 81.1002 45.9534 82.8037 46.524 84.4461C47.1737 86.3243 48.0427 88.1239 49.1137 89.8099C49.2015 89.9497 49.377 90.037 49.5438 89.9846C51.2205 89.443 50.0442 87.3464 49.8511 86.2544C49.5438 84.5334 49.7809 82.76 49.7194 81.0303C49.6931 80.148 49.5614 79.2919 49.3683 78.427C49.1488 77.4748 49.0259 76.5313 48.9732 75.5529C48.8679 73.6747 48.7801 71.8052 48.6309 69.9357C48.4729 67.8915 48.2622 65.8473 48.0164 63.8119C48.4202 63.9779 48.8503 64.1002 49.3068 64.1351C50.6324 64.2312 51.914 63.6109 52.9587 62.8422C53.5029 62.4403 53.9857 61.9599 54.5563 61.6017C55.1972 61.1998 55.9258 61.095 56.6632 61.0863C57.9975 61.0688 59.5689 61.3833 60.7627 60.6058C61.2543 60.2826 61.6142 59.8196 61.9478 59.3478C62.3429 58.7975 62.7379 58.2296 63.0188 57.6094C63.4226 56.7183 63.4753 55.8011 63.2997 54.91C64.5901 55.0323 65.9157 55.1721 67.1886 54.91C68.5053 54.6392 69.6992 53.9927 70.858 53.355C71.4461 53.0318 72.0343 52.6998 72.64 52.4203C72.9473 52.2805 73.2633 52.1494 73.5969 52.097C74.0182 52.0271 74.4396 52.1407 74.8522 52.2281C76.1251 52.5076 77.4506 52.4552 78.6796 51.9922C79.8032 51.5641 80.7864 50.8391 81.515 49.8869C81.8925 49.3976 82.191 48.856 82.4104 48.2882C82.6387 47.7029 82.7089 47.1001 82.8406 46.4886C82.981 45.8072 83.4639 45.3791 83.7535 44.7763C84.0081 44.2522 84.052 43.6669 83.9467 43.0991L83.9291 43.0641ZM80.6284 27.8637C80.962 28.9382 80.8128 30.1787 80.0929 31.0872C79.7506 31.5153 79.3204 31.7599 78.8376 32.0045C78.2933 32.284 77.8632 32.6335 77.4945 33.1314C77.1872 33.5507 76.9502 34.0137 76.643 34.433C76.2304 35.0096 75.6861 35.4202 75.0541 35.7434C74.4571 36.0492 73.8251 36.3375 73.1755 36.5908C73.1492 36.5908 73.1228 36.6083 73.0965 36.617C72.4732 36.8616 71.8324 37.0713 71.2003 37.2547C69.7694 37.6653 68.3649 37.7265 66.9077 37.3858C65.5821 37.08 64.16 36.7131 63.089 35.8483C62.0619 35.0184 61.2192 34.0137 59.8937 33.6381C58.533 33.2537 57.0319 33.4459 55.68 33.7516C53.1606 34.3282 50.7026 35.8657 49.9213 38.4166H49.895C49.377 38.1807 48.8503 37.9623 48.3236 37.744C49.3419 35.3328 50.8255 32.9916 53.1518 31.6463C54.3457 30.9562 55.601 30.6941 56.9617 30.5893C58.2257 30.4932 59.4898 30.3971 60.6223 29.7943C61.6845 29.2265 62.536 28.3441 63.3963 27.5142C64.3882 26.562 65.4504 25.7059 66.6092 24.9721C67.7679 24.2383 69.0057 23.5656 70.3488 23.2598C71.806 22.9366 73.2984 23.1725 74.7205 23.5394C77.0995 24.1509 79.8296 25.3128 80.6109 27.8637H80.6284ZM58.2257 49.0569C56.8387 49.1705 55.4342 49.2142 54.0472 49.0395C52.7919 48.8822 51.5804 48.524 50.3778 48.1309C48.0603 47.3796 45.734 46.5847 43.2672 46.9516C41.9943 47.1438 40.7829 47.5806 39.5627 47.9737C38.2986 48.3843 37.017 48.7162 35.7002 48.9259C33.3124 49.3015 30.3453 49.5636 28.1858 48.2445C27.7206 47.9562 27.2553 47.5631 27.0622 47.0389C26.8427 46.4274 27.0095 45.7548 27.1938 45.1607C27.545 44.0251 28.2034 42.9855 29.0637 42.1556C30.0556 41.2034 31.3109 40.6093 32.5838 40.1289C33.9357 39.6222 35.3052 39.1592 36.6922 38.7486C38.1582 38.3118 39.6417 37.9711 41.1692 37.8488C42.7405 37.7265 44.3294 37.8051 45.9008 37.9274C45.9622 37.9274 46.0149 37.9274 46.0676 37.9012C46.6821 37.7789 47.2439 38.0847 47.7969 38.3205C48.429 38.5826 49.061 38.8359 49.6843 39.1155C50.8343 39.6222 51.9667 40.1725 53.0728 40.7666C55.3289 41.9721 57.5147 43.3349 59.5689 44.8724C60.473 45.5451 61.5703 46.5148 61.2894 47.7815C61.0085 49.0569 59.2353 48.9696 58.217 49.0569H58.2257ZM37.9826 24.3169C37.9826 24.3169 37.9563 24.2645 37.9299 24.2383C37.8948 24.2033 37.8685 24.1684 37.8421 24.1334C37.6929 23.9325 37.5349 23.7316 37.3769 23.5306C36.1216 21.6088 36.2532 18.8744 37.8772 17.2059C38.3425 16.7254 38.8868 16.4546 39.4398 16.1051C40.028 15.7382 40.1509 15.0743 40.3879 14.4715C40.9146 13.1 41.6783 11.6673 43.0653 11.0034C44.3997 10.3656 45.9973 10.8287 47.0946 11.7197C48.2095 12.637 48.9206 13.9212 49.5175 15.2141C50.1232 16.5157 50.6938 17.8174 51.7736 18.8133C52.8182 19.7742 54.0384 20.4906 54.9953 21.5476C57.0055 23.7665 58.0151 26.7891 57.778 29.7681C56.4613 29.8904 55.1621 29.9428 53.9155 30.4407C51.4663 31.4279 49.658 33.4721 48.4465 35.7609C48.1568 36.3113 47.9023 36.8791 47.6565 37.4469C47.0859 37.2111 46.5328 37.0626 45.9183 37.1849C45.8218 37.1849 45.734 37.1674 45.6374 37.1674C45.6374 34.7825 44.6367 32.5723 43.3813 30.5805C42.7317 29.5584 42.0646 28.5276 41.3096 27.5754C40.5371 26.6057 39.4047 26.0641 38.6146 25.1206C38.3952 24.8585 38.1933 24.5964 37.9826 24.3256V24.3169ZM51.5717 39.133C51.5717 39.133 51.5629 39.1504 51.5541 39.1592C51.2469 39.0107 50.9484 38.8709 50.6411 38.7311C51.3961 36.0841 54.0735 34.7563 56.6368 34.3282C57.9887 34.1011 59.4811 34.0312 60.6925 34.7912C61.544 35.3241 62.1936 36.0929 62.9925 36.6782C61.2104 37.6915 59.1387 37.875 57.1109 37.8837C55.285 37.8925 52.8709 37.5256 51.5804 39.133H51.5717ZM69.708 15.1442C70.6473 15.2752 71.4988 16.0003 72.0606 16.7254C72.6927 17.5466 72.798 18.4726 72.7102 19.4772C72.6224 20.4469 72.4205 21.4078 72.1923 22.3513C70.7877 22.2901 69.4446 22.6396 68.1805 23.2336C66.8989 23.8364 65.6962 24.6226 64.5814 25.4962C63.5192 26.3261 62.615 27.3046 61.6055 28.1781C60.833 28.8508 60.0166 29.2876 59.0948 29.5322C60.3326 27.6103 61.8161 25.8544 63.0364 23.915C64.4146 21.7223 65.5207 19.3636 66.5653 16.9962C66.7496 16.5856 66.9428 16.1488 67.0832 15.7033C67.8733 15.3102 68.8214 15.0131 69.708 15.1354V15.1442ZM60.1219 13.3621C60.6837 13.397 61.228 13.5193 61.7986 13.5193C62.4131 13.5193 63.0364 13.4669 63.6508 13.4494C64.2653 13.4319 64.8798 13.4232 65.4943 13.4319C66.0737 13.4319 66.3985 13.6678 66.5038 14.2444C66.7057 15.3014 65.9684 16.4895 65.5558 17.4243C64.6253 19.4947 63.6333 21.5476 62.4306 23.4695C61.2455 25.3652 59.8059 27.0862 58.5769 28.9469C58.5857 26.3698 57.7254 23.8102 56.154 21.7573C55.3552 20.7177 54.3896 19.9577 53.3888 19.1627C54.2491 17.2233 55.3289 15.2315 57.2074 14.1133C58.0853 13.5892 59.0948 13.2834 60.1219 13.3533V13.3621ZM45.6637 8.95043C46.3573 8.54858 47.042 8.07684 47.832 7.87592C48.6221 7.67499 49.4561 7.71867 50.2461 7.84971C50.966 7.97201 51.756 8.12052 52.4232 8.44375C52.7392 8.601 53.0289 8.79319 53.2484 9.08147C53.459 9.35229 53.6171 9.66678 53.8628 9.91138C54.3105 10.3569 54.9163 10.6015 55.5132 10.75C56.2418 10.9335 57.0407 10.9859 57.7078 11.3528C58.2609 11.6586 58.6383 12.1478 58.849 12.7156C58.454 12.7855 58.0502 12.8903 57.6551 13.0563C55.2235 14.0871 53.8277 16.3847 52.7919 18.691C52.151 18.1755 51.6156 17.599 51.1942 16.8914C50.7904 16.21 50.4831 15.4849 50.1583 14.7773C49.5175 13.397 48.7187 12.0255 47.4897 11.082C46.5153 10.3307 45.2512 9.8677 44.0134 9.99874C44.4962 9.57068 45.1458 9.27366 45.6813 8.96791L45.6637 8.95043ZM30.8018 12.7855C31.1178 12.0779 31.6796 11.4664 32.4258 11.2043C33.2773 10.8985 33.9269 11.2654 34.6468 11.6935C35.2876 12.0779 36.0601 12.3836 36.7887 12.0342C37.4647 11.7197 37.886 11.0121 38.4303 10.5316C39.6505 9.45712 41.5993 9.02032 42.6527 10.3831C41.5642 10.9335 40.7478 11.9468 40.2035 13.0214C40.0368 13.3533 39.8875 13.694 39.7471 14.0435C39.589 14.4366 39.4837 15.0656 39.1852 15.3626C38.9658 15.581 38.5971 15.6945 38.3337 15.8605C38.0265 16.0527 37.7456 16.2799 37.4822 16.5245C35.9987 17.9309 35.4983 20.0538 35.9284 21.9844C35.1823 21.303 34.3922 20.674 33.5846 20.0712C32.6189 19.3636 31.6796 18.6648 30.5472 18.2454C30.4155 17.2845 30.3453 16.3148 30.3541 15.3451C30.3541 14.4803 30.4331 13.5805 30.793 12.7768L30.8018 12.7855ZM24.0599 18.3153C24.9641 17.4854 26.0878 17.7737 27.1587 18.0532C28.3263 18.3503 29.5377 18.6298 30.6438 19.0928C31.6533 19.5121 32.5312 20.2285 33.409 20.8749C34.2868 21.5301 35.1471 22.2203 35.9284 22.9978C36.2006 23.2773 36.4551 23.5656 36.6922 23.8626C36.8941 24.1858 37.1311 24.4916 37.3944 24.7711C37.57 24.9983 37.7456 25.2341 37.9211 25.4613C38.6059 26.3349 39.5803 26.8153 40.3352 27.6016C41.1165 28.414 41.731 29.4361 42.3455 30.3796C43.6798 32.4063 44.8474 34.634 44.8649 37.1062C43.6974 37.0363 42.5298 37.0101 41.3623 37.0888C40.9936 37.115 40.6337 37.1499 40.265 37.1936C40.265 37.1761 40.265 37.1586 40.265 37.1499C39.8612 35.2804 38.0616 34.3632 36.4464 33.6643C35.4719 33.245 34.5151 32.8082 33.7163 32.1006C33.014 31.4803 32.4258 30.7378 31.9167 29.9515C30.793 28.1956 30.0381 26.2388 28.9408 24.4741C28.4404 23.6792 27.8786 22.9191 27.0709 22.4125C26.2458 21.897 25.2362 21.6087 24.2882 21.3991C23.8844 21.3117 23.4893 21.2593 23.0855 21.2418C23.0592 20.1935 23.2348 19.0666 24.0424 18.3241L24.0599 18.3153ZM14.07 35.6037C13.3151 34.1186 13.2624 32.2141 13.7803 30.6504C14.0349 29.8729 14.4738 29.1391 15.141 28.6411C15.4482 28.414 15.7994 28.2568 16.0891 28.0122C16.3875 27.7588 16.5982 27.4269 16.7475 27.0687C17.0459 26.3611 17.1776 25.6098 17.5726 24.9284C17.9501 24.2819 18.4505 23.7054 19.0386 23.2424C20.3115 22.2377 21.9619 21.7573 23.5771 22.0106C24.5164 22.1591 25.5084 22.4299 26.3599 22.858C27.2026 23.286 27.7557 23.9849 28.2473 24.7624C29.2656 26.3698 29.9766 28.1519 30.951 29.7856C31.943 31.4541 33.2159 32.9392 34.9891 33.8128C36.657 34.634 39.0623 35.2193 39.5364 37.2984C38.6936 37.4382 37.8509 37.6304 37.0257 37.8575C35.6212 38.2506 34.2342 38.7311 32.856 39.2203C32.7594 39.2553 32.6628 39.2902 32.5663 39.3251C31.0652 38.6612 29.5289 37.9973 27.8698 37.8663C26.2897 37.744 24.7885 38.2419 23.305 38.7398C20.136 38.8796 15.7028 38.8359 14.0525 35.5774L14.07 35.6037ZM14.2456 51.634C13.3502 50.5158 12.8586 49.1181 12.7884 47.6941C12.7445 46.8992 12.8235 46.1042 13.0078 45.3267C13.1746 44.6191 13.3941 43.8503 13.8769 43.2825C14.3509 42.7409 15.0444 42.4002 15.6677 42.0682C16.37 41.7013 17.0986 41.3868 17.8448 41.116C19.2932 40.5919 20.8031 40.3473 22.2779 39.9017C23.8668 39.4212 25.4381 38.6874 27.1236 38.6263C28.6862 38.5739 30.1785 39.1242 31.6006 39.7357C30.8018 40.0677 30.0293 40.4608 29.3358 40.9762C28.3526 41.71 27.5362 42.6623 26.9919 43.7542C26.4652 44.8026 25.9473 46.2178 26.4213 47.3709C26.7198 48.1047 27.3431 48.6289 28.0366 49.0133C27.2202 50.1577 26.4389 51.4069 25.3855 52.3416C24.4023 53.2152 23.1382 53.7219 21.8478 53.9403C19.1879 54.3946 16.0188 53.8267 14.2544 51.6428L14.2456 51.634ZM31.5567 57.9326C30.5209 57.9501 29.4675 57.9676 28.4404 57.8103C26.4565 57.5133 24.1477 56.2029 24.3584 53.9141C24.692 53.7481 25.0168 53.5559 25.324 53.3375C26.7461 52.3154 27.7118 50.743 28.7213 49.3365C28.8354 49.3802 28.9495 49.4238 29.0637 49.4675C30.3102 49.9043 31.6709 49.9742 32.9876 49.9393C34.4449 49.8956 35.9109 49.7121 37.3418 49.3889C38.7639 49.0744 40.1245 48.5677 41.5115 48.1484C42.8283 47.7466 44.1626 47.5019 45.5496 47.6417C45.8481 47.6679 46.1378 47.7203 46.4275 47.7728C45.4531 51.0749 43.4252 54.1587 40.4406 55.9583C38.6936 57.0153 36.7009 57.5308 34.6819 57.7492C33.646 57.8627 32.6102 57.9064 31.5743 57.9239L31.5567 57.9326ZM48.1481 74.0766C48.192 74.9589 48.2183 75.8412 48.3061 76.7148C48.3939 77.5709 48.6133 78.4008 48.7801 79.2395C49.1049 80.8643 48.9381 82.5242 48.9469 84.1665C48.9469 85.0663 49.0084 85.9748 49.2103 86.8484C49.3156 87.3027 49.9828 88.5956 49.5877 89.0848C47.8233 86.2107 46.6469 83.0046 46.1466 79.6675C45.8832 77.9116 45.8657 76.1644 45.9447 74.391C45.9886 73.4126 45.9886 72.4429 45.8744 71.4733C45.7603 70.5298 45.6023 69.595 45.4794 68.6516C45.2073 66.5724 45.0141 64.4845 44.8737 62.3967C45.2424 62.4491 45.5935 62.5539 45.9534 62.7286C46.3924 62.9383 46.8137 63.1829 47.2351 63.41C47.2351 63.4275 47.2351 63.445 47.2351 63.4712C47.6652 66.9917 47.9725 70.5298 48.1568 74.0678L48.1481 74.0766ZM62.6325 56.3339C62.5448 56.928 62.2639 57.4696 61.9566 57.9763C61.6318 58.5004 61.2807 59.0595 60.8593 59.5138C59.9024 60.5534 58.454 60.3525 57.1723 60.3175C55.8643 60.2826 54.7407 60.4748 53.6873 61.2872C52.6953 62.0472 51.7823 62.8946 50.5358 63.2353C49.2805 63.5847 48.2446 63.1217 47.1561 62.519C46.1115 61.9337 45.1722 61.558 43.952 61.593C42.644 61.6366 41.494 61.4008 40.4406 60.5796C39.5188 59.8545 38.8429 58.7975 38.6498 57.6356C39.0448 57.4958 39.431 57.3386 39.8085 57.1639C41.5379 56.3427 43.0478 55.076 44.2504 53.5909C45.5935 51.9223 46.5592 49.9917 47.1561 47.9475C47.9725 48.1484 48.7713 48.4017 49.5614 48.6638C50.8869 49.1006 52.2125 49.5374 53.5995 49.7383C55.0743 49.9567 56.5666 49.948 58.0502 49.8344C58.5593 49.7908 59.165 49.782 59.7532 49.6947C60.2448 50.7517 60.9207 51.6864 61.5352 52.6736C62.2024 53.7481 62.8344 55.0323 62.6325 56.3339ZM83.0952 44.3745C82.8581 44.9161 82.4017 45.3267 82.2085 45.9033C82.033 46.4274 82.0154 46.9865 81.8662 47.5194C81.6994 48.096 81.4448 48.6376 81.12 49.1356C80.4616 50.1315 79.4784 50.909 78.3372 51.3021C77.7842 51.4943 77.2048 51.6166 76.6167 51.634C75.9319 51.6602 75.2999 51.5117 74.6239 51.3894C73.3686 51.1536 72.3328 51.6864 71.2618 52.263C70.024 52.9269 68.8126 53.687 67.4519 54.0626C66.0386 54.447 64.5375 54.2635 63.089 54.1238C63.0012 53.8704 62.9047 53.6171 62.7818 53.3637C62.1409 52.0184 61.1402 50.874 60.4906 49.5287C60.9295 49.3889 61.3245 49.188 61.6142 48.8473C62.3253 48.0174 62.1936 46.7594 61.6493 45.8858C60.8856 44.6715 59.4723 43.8503 58.3048 43.0554C56.988 42.1556 55.6185 41.3169 54.2228 40.5394C53.5819 40.1813 52.9235 39.8406 52.2652 39.5173C52.9148 38.8447 53.8453 38.6787 54.7758 38.6525C55.8556 38.6175 56.9353 38.67 58.0151 38.635C59.9727 38.5739 61.9654 38.2506 63.6508 37.1936C63.6772 37.1761 63.686 37.1586 63.7035 37.1412C64.9413 37.7614 66.4248 38.1458 67.7855 38.3293C69.2252 38.5214 70.6473 38.2768 72.0167 37.8226C72.4469 37.6828 72.8858 37.5256 73.3247 37.3596C75.8178 37.7527 78.0388 38.9058 80.1895 40.1813C81.2341 40.8015 82.4368 41.4392 82.9898 42.5836C83.2532 43.134 83.3585 43.8154 83.1039 44.3832L83.0952 44.3745Z" fill="#151515"/>
<path d="M83.9291 43.0641C83.7009 41.8149 82.7352 40.8976 81.7169 40.2162C79.5574 38.7748 77.1346 37.4382 74.5713 36.8179C74.9926 36.6258 75.4052 36.4336 75.7915 36.2064C76.3094 35.9007 76.7747 35.525 77.1434 35.0446C77.5208 34.5553 77.7842 33.9963 78.1617 33.5158C78.5742 32.9742 79.1185 32.7558 79.6979 32.4151C80.1632 32.1442 80.5494 31.7686 80.8567 31.3318C81.4711 30.432 81.6818 29.2789 81.4975 28.2218C81.0586 25.6797 78.741 24.0723 76.4586 23.2686C75.335 22.8755 74.1499 22.561 72.956 22.4299C73.2018 21.3641 73.4213 20.2896 73.4915 19.1976C73.5617 18.027 73.2633 16.9787 72.4995 16.0789C71.8148 15.2665 70.8492 14.5327 69.7607 14.4016C68.9179 14.2968 68.0664 14.489 67.2764 14.8035C67.3027 14.5065 67.2851 14.2182 67.2061 13.9212C67.1008 13.5543 66.9077 13.1961 66.5916 12.9689C66.1176 12.6195 65.5031 12.6807 64.9413 12.6894C63.5806 12.6894 62.1673 12.8903 60.8154 12.6981C60.4028 12.637 60.0078 12.6282 59.6127 12.6457C59.2967 11.6149 58.5154 10.8199 57.4796 10.453C56.2243 10.0162 54.846 10.1473 54.0384 8.92423C53.3449 7.86718 52.2037 7.50027 51.0186 7.24693C49.7282 6.96739 48.3324 6.83635 47.0859 7.34303C46.366 7.63131 45.7076 8.06811 45.0405 8.45249C44.4084 8.8194 43.6535 9.15136 43.1794 9.73666C43.1619 9.76287 43.1531 9.78908 43.1356 9.81529C42.3982 8.97664 41.2745 8.60973 40.1245 8.82813C39.4047 8.96791 38.7463 9.32608 38.1757 9.77161C37.6139 10.2171 37.2101 10.8723 36.6219 11.2742C35.8406 11.8158 34.9804 10.9772 34.2956 10.6452C33.7163 10.3569 33.093 10.2696 32.4609 10.4268C31.1529 10.7326 30.2488 11.8682 29.8801 13.1C29.4148 14.6462 29.5465 16.3934 29.7484 18.0008C28.7564 17.6863 27.7293 17.4243 26.7286 17.1884C25.5172 16.9001 24.3321 16.9613 23.4191 17.896C22.55 18.7871 22.3042 20.0538 22.3393 21.2593C19.6707 21.4428 17.2127 23.1637 16.37 25.8282C16.2383 26.2388 16.1505 26.6668 15.9311 27.0425C15.6765 27.4793 15.2639 27.6627 14.8601 27.9335C14.149 28.414 13.6223 29.0867 13.2712 29.8554C12.5601 31.4366 12.4899 33.3585 12.9991 35.0096C14.0525 38.4166 17.4234 39.3688 20.689 39.5435C19.7673 39.7707 18.8455 39.9978 17.9501 40.3036C16.4753 40.8015 14.8425 41.448 13.6399 42.4613C12.4548 43.466 12.1036 45.3005 12.0159 46.7769C11.9193 48.3668 12.2617 49.9829 13.0956 51.3545C13.833 52.5775 14.9303 53.5647 16.2559 54.115C17.6429 54.6916 19.2493 54.9013 20.7504 54.8226C21.7073 54.7789 22.6729 54.5955 23.5771 54.2635C23.5859 56.0194 24.9817 57.4958 26.5706 58.1248C28.6423 58.946 31.1178 58.7713 33.3037 58.6402C34.8662 58.5441 36.4288 58.3345 37.9299 57.8802C38.3513 59.9331 39.9314 61.6541 41.9856 62.2045C42.6001 62.3704 43.2146 62.3879 43.8378 62.3617C43.9256 62.3617 44.0046 62.3617 44.0836 62.3617C44.2065 64.2574 44.3821 66.1444 44.6191 68.0313C44.8649 70.0056 45.2599 71.9537 45.1897 73.9543C45.1283 75.7713 45.0932 77.5622 45.3302 79.3705C45.5584 81.1002 45.9534 82.8037 46.524 84.4461C47.1737 86.3243 48.0427 88.1239 49.1137 89.8099C49.2015 89.9497 49.377 90.037 49.5438 89.9846C51.2205 89.443 50.0442 87.3464 49.8511 86.2544C49.5438 84.5334 49.7809 82.76 49.7194 81.0303C49.6931 80.148 49.5614 79.2919 49.3683 78.427C49.1488 77.4748 49.0259 76.5313 48.9732 75.5529C48.8679 73.6747 48.7801 71.8052 48.6309 69.9357C48.4729 67.8915 48.2622 65.8473 48.0164 63.8119C48.4202 63.9779 48.8503 64.1002 49.3068 64.1351C50.6324 64.2312 51.914 63.6109 52.9587 62.8422C53.5029 62.4403 53.9857 61.9599 54.5563 61.6017C55.1972 61.1998 55.9258 61.095 56.6632 61.0863C57.9975 61.0688 59.5689 61.3833 60.7627 60.6058C61.2543 60.2826 61.6142 59.8196 61.9478 59.3478C62.3429 58.7975 62.7379 58.2296 63.0188 57.6094C63.4226 56.7183 63.4753 55.8011 63.2997 54.91C64.5901 55.0323 65.9157 55.1721 67.1886 54.91C68.5053 54.6392 69.6992 53.9927 70.858 53.355C71.4461 53.0318 72.0343 52.6998 72.64 52.4203C72.9473 52.2805 73.2633 52.1494 73.5969 52.097C74.0182 52.0271 74.4396 52.1407 74.8522 52.2281C76.1251 52.5076 77.4506 52.4552 78.6796 51.9922C79.8032 51.5641 80.7864 50.8391 81.515 49.8869C81.8925 49.3976 82.191 48.856 82.4104 48.2882C82.6387 47.7029 82.7089 47.1001 82.8406 46.4886C82.981 45.8072 83.4639 45.3791 83.7535 44.7763C84.0081 44.2522 84.052 43.6669 83.9467 43.0991L83.9291 43.0641ZM80.6284 27.8637C80.962 28.9382 80.8128 30.1787 80.0929 31.0872C79.7506 31.5153 79.3204 31.7599 78.8376 32.0045C78.2933 32.284 77.8632 32.6335 77.4945 33.1314C77.1872 33.5507 76.9502 34.0137 76.643 34.433C76.2304 35.0096 75.6861 35.4202 75.0541 35.7434C74.4571 36.0492 73.8251 36.3375 73.1755 36.5908C73.1492 36.5908 73.1228 36.6083 73.0965 36.617C72.4732 36.8616 71.8324 37.0713 71.2003 37.2547C69.7694 37.6653 68.3649 37.7265 66.9077 37.3858C65.5821 37.08 64.16 36.7131 63.089 35.8483C62.0619 35.0184 61.2192 34.0137 59.8937 33.6381C58.533 33.2537 57.0319 33.4459 55.68 33.7516C53.1606 34.3282 50.7026 35.8657 49.9213 38.4166H49.895C49.377 38.1807 48.8503 37.9623 48.3236 37.744C49.3419 35.3328 50.8255 32.9916 53.1518 31.6463C54.3457 30.9562 55.601 30.6941 56.9617 30.5893C58.2257 30.4932 59.4898 30.3971 60.6223 29.7943C61.6845 29.2265 62.536 28.3441 63.3963 27.5142C64.3882 26.562 65.4504 25.7059 66.6092 24.9721C67.7679 24.2383 69.0057 23.5656 70.3488 23.2598C71.806 22.9366 73.2984 23.1725 74.7205 23.5394C77.0995 24.1509 79.8296 25.3128 80.6109 27.8637H80.6284ZM58.2257 49.0569C56.8387 49.1705 55.4342 49.2142 54.0472 49.0395C52.7919 48.8822 51.5804 48.524 50.3778 48.1309C48.0603 47.3796 45.734 46.5847 43.2672 46.9516C41.9943 47.1438 40.7829 47.5806 39.5627 47.9737C38.2986 48.3843 37.017 48.7162 35.7002 48.9259C33.3124 49.3015 30.3453 49.5636 28.1858 48.2445C27.7206 47.9562 27.2553 47.5631 27.0622 47.0389C26.8427 46.4274 27.0095 45.7548 27.1938 45.1607C27.545 44.0251 28.2034 42.9855 29.0637 42.1556C30.0556 41.2034 31.3109 40.6093 32.5838 40.1289C33.9357 39.6222 35.3052 39.1592 36.6922 38.7486C38.1582 38.3118 39.6417 37.9711 41.1692 37.8488C42.7405 37.7265 44.3294 37.8051 45.9008 37.9274C45.9622 37.9274 46.0149 37.9274 46.0676 37.9012C46.6821 37.7789 47.2439 38.0847 47.7969 38.3205C48.429 38.5826 49.061 38.8359 49.6843 39.1155C50.8343 39.6222 51.9667 40.1725 53.0728 40.7666C55.3289 41.9721 57.5147 43.3349 59.5689 44.8724C60.473 45.5451 61.5703 46.5148 61.2894 47.7815C61.0085 49.0569 59.2353 48.9696 58.217 49.0569H58.2257ZM37.9826 24.3169C37.9826 24.3169 37.9563 24.2645 37.9299 24.2383C37.8948 24.2033 37.8685 24.1684 37.8421 24.1334C37.6929 23.9325 37.5349 23.7316 37.3769 23.5306C36.1216 21.6088 36.2532 18.8744 37.8772 17.2059C38.3425 16.7254 38.8868 16.4546 39.4398 16.1051C40.028 15.7382 40.1509 15.0743 40.3879 14.4715C40.9146 13.1 41.6783 11.6673 43.0653 11.0034C44.3997 10.3656 45.9973 10.8287 47.0946 11.7197C48.2095 12.637 48.9206 13.9212 49.5175 15.2141C50.1232 16.5157 50.6938 17.8174 51.7736 18.8133C52.8182 19.7742 54.0384 20.4906 54.9953 21.5476C57.0055 23.7665 58.0151 26.7891 57.778 29.7681C56.4613 29.8904 55.1621 29.9428 53.9155 30.4407C51.4663 31.4279 49.658 33.4721 48.4465 35.7609C48.1568 36.3113 47.9023 36.8791 47.6565 37.4469C47.0859 37.2111 46.5328 37.0626 45.9183 37.1849C45.8218 37.1849 45.734 37.1674 45.6374 37.1674C45.6374 34.7825 44.6367 32.5723 43.3813 30.5805C42.7317 29.5584 42.0646 28.5276 41.3096 27.5754C40.5371 26.6057 39.4047 26.0641 38.6146 25.1206C38.3952 24.8585 38.1933 24.5964 37.9826 24.3256V24.3169ZM51.5717 39.133C51.5717 39.133 51.5629 39.1504 51.5541 39.1592C51.2469 39.0107 50.9484 38.8709 50.6411 38.7311C51.3961 36.0841 54.0735 34.7563 56.6368 34.3282C57.9887 34.1011 59.4811 34.0312 60.6925 34.7912C61.544 35.3241 62.1936 36.0929 62.9925 36.6782C61.2104 37.6915 59.1387 37.875 57.1109 37.8837C55.285 37.8925 52.8709 37.5256 51.5804 39.133H51.5717ZM69.708 15.1442C70.6473 15.2752 71.4988 16.0003 72.0606 16.7254C72.6927 17.5466 72.798 18.4726 72.7102 19.4772C72.6224 20.4469 72.4205 21.4078 72.1923 22.3513C70.7877 22.2901 69.4446 22.6396 68.1805 23.2336C66.8989 23.8364 65.6962 24.6226 64.5814 25.4962C63.5192 26.3261 62.615 27.3046 61.6055 28.1781C60.833 28.8508 60.0166 29.2876 59.0948 29.5322C60.3326 27.6103 61.8161 25.8544 63.0364 23.915C64.4146 21.7223 65.5207 19.3636 66.5653 16.9962C66.7496 16.5856 66.9428 16.1488 67.0832 15.7033C67.8733 15.3102 68.8214 15.0131 69.708 15.1354V15.1442ZM60.1219 13.3621C60.6837 13.397 61.228 13.5193 61.7986 13.5193C62.4131 13.5193 63.0364 13.4669 63.6508 13.4494C64.2653 13.4319 64.8798 13.4232 65.4943 13.4319C66.0737 13.4319 66.3985 13.6678 66.5038 14.2444C66.7057 15.3014 65.9684 16.4895 65.5558 17.4243C64.6253 19.4947 63.6333 21.5476 62.4306 23.4695C61.2455 25.3652 59.8059 27.0862 58.5769 28.9469C58.5857 26.3698 57.7254 23.8102 56.154 21.7573C55.3552 20.7177 54.3896 19.9577 53.3888 19.1627C54.2491 17.2233 55.3289 15.2315 57.2074 14.1133C58.0853 13.5892 59.0948 13.2834 60.1219 13.3533V13.3621ZM45.6637 8.95043C46.3573 8.54858 47.042 8.07684 47.832 7.87592C48.6221 7.67499 49.4561 7.71867 50.2461 7.84971C50.966 7.97201 51.756 8.12052 52.4232 8.44375C52.7392 8.601 53.0289 8.79319 53.2484 9.08147C53.459 9.35229 53.6171 9.66678 53.8628 9.91138C54.3105 10.3569 54.9163 10.6015 55.5132 10.75C56.2418 10.9335 57.0407 10.9859 57.7078 11.3528C58.2609 11.6586 58.6383 12.1478 58.849 12.7156C58.454 12.7855 58.0502 12.8903 57.6551 13.0563C55.2235 14.0871 53.8277 16.3847 52.7919 18.691C52.151 18.1755 51.6156 17.599 51.1942 16.8914C50.7904 16.21 50.4831 15.4849 50.1583 14.7773C49.5175 13.397 48.7187 12.0255 47.4897 11.082C46.5153 10.3307 45.2512 9.8677 44.0134 9.99874C44.4962 9.57068 45.1458 9.27366 45.6813 8.96791L45.6637 8.95043ZM30.8018 12.7855C31.1178 12.0779 31.6796 11.4664 32.4258 11.2043C33.2773 10.8985 33.9269 11.2654 34.6468 11.6935C35.2876 12.0779 36.0601 12.3836 36.7887 12.0342C37.4647 11.7197 37.886 11.0121 38.4303 10.5316C39.6505 9.45712 41.5993 9.02032 42.6527 10.3831C41.5642 10.9335 40.7478 11.9468 40.2035 13.0214C40.0368 13.3533 39.8875 13.694 39.7471 14.0435C39.589 14.4366 39.4837 15.0656 39.1852 15.3626C38.9658 15.581 38.5971 15.6945 38.3337 15.8605C38.0265 16.0527 37.7456 16.2799 37.4822 16.5245C35.9987 17.9309 35.4983 20.0538 35.9284 21.9844C35.1823 21.303 34.3922 20.674 33.5846 20.0712C32.6189 19.3636 31.6796 18.6648 30.5472 18.2454C30.4155 17.2845 30.3453 16.3148 30.3541 15.3451C30.3541 14.4803 30.4331 13.5805 30.793 12.7768L30.8018 12.7855ZM24.0599 18.3153C24.9641 17.4854 26.0878 17.7737 27.1587 18.0532C28.3263 18.3503 29.5377 18.6298 30.6438 19.0928C31.6533 19.5121 32.5312 20.2285 33.409 20.8749C34.2868 21.5301 35.1471 22.2203 35.9284 22.9978C36.2006 23.2773 36.4551 23.5656 36.6922 23.8626C36.8941 24.1858 37.1311 24.4916 37.3944 24.7711C37.57 24.9983 37.7456 25.2341 37.9211 25.4613C38.6059 26.3349 39.5803 26.8153 40.3352 27.6016C41.1165 28.414 41.731 29.4361 42.3455 30.3796C43.6798 32.4063 44.8474 34.634 44.8649 37.1062C43.6974 37.0363 42.5298 37.0101 41.3623 37.0888C40.9936 37.115 40.6337 37.1499 40.265 37.1936C40.265 37.1761 40.265 37.1586 40.265 37.1499C39.8612 35.2804 38.0616 34.3632 36.4464 33.6643C35.4719 33.245 34.5151 32.8082 33.7163 32.1006C33.014 31.4803 32.4258 30.7378 31.9167 29.9515C30.793 28.1956 30.0381 26.2388 28.9408 24.4741C28.4404 23.6792 27.8786 22.9191 27.0709 22.4125C26.2458 21.897 25.2362 21.6087 24.2882 21.3991C23.8844 21.3117 23.4893 21.2593 23.0855 21.2418C23.0592 20.1935 23.2348 19.0666 24.0424 18.3241L24.0599 18.3153ZM14.07 35.6037C13.3151 34.1186 13.2624 32.2141 13.7803 30.6504C14.0349 29.8729 14.4738 29.1391 15.141 28.6411C15.4482 28.414 15.7994 28.2568 16.0891 28.0122C16.3875 27.7588 16.5982 27.4269 16.7475 27.0687C17.0459 26.3611 17.1776 25.6098 17.5726 24.9284C17.9501 24.2819 18.4505 23.7054 19.0386 23.2424C20.3115 22.2377 21.9619 21.7573 23.5771 22.0106C24.5164 22.1591 25.5084 22.4299 26.3599 22.858C27.2026 23.286 27.7557 23.9849 28.2473 24.7624C29.2656 26.3698 29.9766 28.1519 30.951 29.7856C31.943 31.4541 33.2159 32.9392 34.9891 33.8128C36.657 34.634 39.0623 35.2193 39.5364 37.2984C38.6936 37.4382 37.8509 37.6304 37.0257 37.8575C35.6212 38.2506 34.2342 38.7311 32.856 39.2203C32.7594 39.2553 32.6628 39.2902 32.5663 39.3251C31.0652 38.6612 29.5289 37.9973 27.8698 37.8663C26.2897 37.744 24.7885 38.2419 23.305 38.7398C20.136 38.8796 15.7028 38.8359 14.0525 35.5774L14.07 35.6037ZM14.2456 51.634C13.3502 50.5158 12.8586 49.1181 12.7884 47.6941C12.7445 46.8992 12.8235 46.1042 13.0078 45.3267C13.1746 44.6191 13.3941 43.8503 13.8769 43.2825C14.3509 42.7409 15.0444 42.4002 15.6677 42.0682C16.37 41.7013 17.0986 41.3868 17.8448 41.116C19.2932 40.5919 20.8031 40.3473 22.2779 39.9017C23.8668 39.4212 25.4381 38.6874 27.1236 38.6263C28.6862 38.5739 30.1785 39.1242 31.6006 39.7357C30.8018 40.0677 30.0293 40.4608 29.3358 40.9762C28.3526 41.71 27.5362 42.6623 26.9919 43.7542C26.4652 44.8026 25.9473 46.2178 26.4213 47.3709C26.7198 48.1047 27.3431 48.6289 28.0366 49.0133C27.2202 50.1577 26.4389 51.4069 25.3855 52.3416C24.4023 53.2152 23.1382 53.7219 21.8478 53.9403C19.1879 54.3946 16.0188 53.8267 14.2544 51.6428L14.2456 51.634ZM31.5567 57.9326C30.5209 57.9501 29.4675 57.9676 28.4404 57.8103C26.4565 57.5133 24.1477 56.2029 24.3584 53.9141C24.692 53.7481 25.0168 53.5559 25.324 53.3375C26.7461 52.3154 27.7118 50.743 28.7213 49.3365C28.8354 49.3802 28.9495 49.4238 29.0637 49.4675C30.3102 49.9043 31.6709 49.9742 32.9876 49.9393C34.4449 49.8956 35.9109 49.7121 37.3418 49.3889C38.7639 49.0744 40.1245 48.5677 41.5115 48.1484C42.8283 47.7466 44.1626 47.5019 45.5496 47.6417C45.8481 47.6679 46.1378 47.7203 46.4275 47.7728C45.4531 51.0749 43.4252 54.1587 40.4406 55.9583C38.6936 57.0153 36.7009 57.5308 34.6819 57.7492C33.646 57.8627 32.6102 57.9064 31.5743 57.9239L31.5567 57.9326ZM48.1481 74.0766C48.192 74.9589 48.2183 75.8412 48.3061 76.7148C48.3939 77.5709 48.6133 78.4008 48.7801 79.2395C49.1049 80.8643 48.9381 82.5242 48.9469 84.1665C48.9469 85.0663 49.0084 85.9748 49.2103 86.8484C49.3156 87.3027 49.9828 88.5956 49.5877 89.0848C47.8233 86.2107 46.6469 83.0046 46.1466 79.6675C45.8832 77.9116 45.8657 76.1644 45.9447 74.391C45.9886 73.4126 45.9886 72.4429 45.8744 71.4733C45.7603 70.5298 45.6023 69.595 45.4794 68.6516C45.2073 66.5724 45.0141 64.4845 44.8737 62.3967C45.2424 62.4491 45.5935 62.5539 45.9534 62.7286C46.3924 62.9383 46.8137 63.1829 47.2351 63.41C47.2351 63.4275 47.2351 63.445 47.2351 63.4712C47.6652 66.9917 47.9725 70.5298 48.1568 74.0678L48.1481 74.0766ZM62.6325 56.3339C62.5448 56.928 62.2639 57.4696 61.9566 57.9763C61.6318 58.5004 61.2807 59.0595 60.8593 59.5138C59.9024 60.5534 58.454 60.3525 57.1723 60.3175C55.8643 60.2826 54.7407 60.4748 53.6873 61.2872C52.6953 62.0472 51.7823 62.8946 50.5358 63.2353C49.2805 63.5847 48.2446 63.1217 47.1561 62.519C46.1115 61.9337 45.1722 61.558 43.952 61.593C42.644 61.6366 41.494 61.4008 40.4406 60.5796C39.5188 59.8545 38.8429 58.7975 38.6498 57.6356C39.0448 57.4958 39.431 57.3386 39.8085 57.1639C41.5379 56.3427 43.0478 55.076 44.2504 53.5909C45.5935 51.9223 46.5592 49.9917 47.1561 47.9475C47.9725 48.1484 48.7713 48.4017 49.5614 48.6638C50.8869 49.1006 52.2125 49.5374 53.5995 49.7383C55.0743 49.9567 56.5666 49.948 58.0502 49.8344C58.5593 49.7908 59.165 49.782 59.7532 49.6947C60.2448 50.7517 60.9207 51.6864 61.5352 52.6736C62.2024 53.7481 62.8344 55.0323 62.6325 56.3339ZM83.0952 44.3745C82.8581 44.9161 82.4017 45.3267 82.2085 45.9033C82.033 46.4274 82.0154 46.9865 81.8662 47.5194C81.6994 48.096 81.4448 48.6376 81.12 49.1356C80.4616 50.1315 79.4784 50.909 78.3372 51.3021C77.7842 51.4943 77.2048 51.6166 76.6167 51.634C75.9319 51.6602 75.2999 51.5117 74.6239 51.3894C73.3686 51.1536 72.3328 51.6864 71.2618 52.263C70.024 52.9269 68.8126 53.687 67.4519 54.0626C66.0386 54.447 64.5375 54.2635 63.089 54.1238C63.0012 53.8704 62.9047 53.6171 62.7818 53.3637C62.1409 52.0184 61.1402 50.874 60.4906 49.5287C60.9295 49.3889 61.3245 49.188 61.6142 48.8473C62.3253 48.0174 62.1936 46.7594 61.6493 45.8858C60.8856 44.6715 59.4723 43.8503 58.3048 43.0554C56.988 42.1556 55.6185 41.3169 54.2228 40.5394C53.5819 40.1813 52.9235 39.8406 52.2652 39.5173C52.9148 38.8447 53.8453 38.6787 54.7758 38.6525C55.8556 38.6175 56.9353 38.67 58.0151 38.635C59.9727 38.5739 61.9654 38.2506 63.6508 37.1936C63.6772 37.1761 63.686 37.1586 63.7035 37.1412C64.9413 37.7614 66.4248 38.1458 67.7855 38.3293C69.2252 38.5214 70.6473 38.2768 72.0167 37.8226C72.4469 37.6828 72.8858 37.5256 73.3247 37.3596C75.8178 37.7527 78.0388 38.9058 80.1895 40.1813C81.2341 40.8015 82.4368 41.4392 82.9898 42.5836C83.2532 43.134 83.3585 43.8154 83.1039 44.3832L83.0952 44.3745Z" stroke="#151515" stroke-width="0.2" mask="url(#path-1-outside-1_1_73)"/>
<path d="M92.6798 33.4153C94.9814 40.4662 95.5816 47.9618 94.4313 55.2891C93.281 62.6165 90.4129 69.5676 86.0614 75.574C81.71 81.5805 75.9987 86.4719 69.3946 89.8482C62.7905 93.2245 55.4812 94.9898 48.0641 94.9999C40.647 95.01 33.3328 93.2646 26.7196 89.9063C20.1063 86.5481 14.3817 81.6723 10.0139 75.6777C5.64608 69.6831 2.759 62.7399 1.58872 55.4157C0.418446 48.0915 0.998201 40.5943 3.28059 33.5372" stroke="#151515"/>
</svg>
