<svg width="81.000000" height="28.000000" viewBox="0 0 81 28" fill="none" xmlns="http://www.w3.org/2000/svg" xmlns:xlink="http://www.w3.org/1999/xlink">
	<desc>
			Created with Pixso.
	</desc>
	<defs>
		<clipPath id="clip3_7365">
			<rect id="Logo" rx="-0.500000" width="80.000000" height="27.000000" transform="translate(0.500000 0.500000)" fill="white" fill-opacity="0"/>
		</clipPath>
	</defs>
	<g clip-path="url(#clip3_7365)">
		<path id="ANVI" d="M8.46 3.21L0.31 22.99C0.1 23.41 0 23.91 0 24.5C0 25.08 0.09 25.63 0.28 26.14C0.47 26.65 0.74 27.1 1.09 27.47C1.46 27.82 1.9 28 2.39 28C2.68 28 2.95 27.95 3.2 27.86C3.46 27.74 3.69 27.61 3.87 27.47C4.09 27.33 4.29 27.17 4.47 26.98Q7.08 24.42 8.67 22.82C9.75 21.72 10.63 20.83 11.32 20.15Q12.34 19.14 12.94 18.58C13.36 18.18 13.77 17.85 14.17 17.57L17.91 27.05C18.07 27.49 17.83 27.72 17.17 27.72L15.83 27.72L15.83 28L21.08 28L16.53 16.79C16.93 16.82 17.31 16.95 17.66 17.2C17.68 17.21 17.71 17.23 17.73 17.25C17.71 17.23 17.68 17.21 17.66 17.2C17.43 17.03 17.22 16.89 17.03 16.76C16.82 16.6 16.59 16.46 16.36 16.34L9.62 0L6.41 0C6.67 0.16 6.88 0.33 7.05 0.52Q7.33 0.77 7.54 1.12C7.68 1.35 7.82 1.64 7.96 1.99Q8.18 2.48 8.46 3.21ZM22.86 27.75L22.86 28L26.85 28L26.85 27.75L25.51 27.75C25.08 27.75 24.78 27.67 24.59 27.51C24.43 27.32 24.33 27.12 24.31 26.91L24.31 1.71L25.4 3.57Q26.53 5.38 28.58 8.71Q30.62 12.04 33.48 16.73C35.38 19.83 37.5 23.28 39.83 27.09C39.94 27.27 39.94 27.43 39.83 27.58C39.71 27.69 39.46 27.75 39.08 27.75L37.78 27.75L37.78 28L43 28L43 1.36C43 1.06 43.08 0.8 43.25 0.59C43.43 0.38 43.72 0.28 44.09 0.28L44.09 0L40.14 0L40.14 0.28L41.48 0.28C41.91 0.28 42.2 0.37 42.36 0.56C42.55 0.72 42.66 0.9 42.68 1.12L42.65 27.43L26.07 0L22.86 0C23.1 0.13 23.3 0.31 23.46 0.52Q23.74 0.8 23.96 1.08L23.96 26.66C23.96 26.95 23.87 27.2 23.71 27.43Q23.7 27.45 23.68 27.47L23.68 27.47L23.68 27.47Q23.43 27.75 22.86 27.75ZM49.18 0L60.43 27.64L72.39 1.26Q72.59 0.72 72.41 0.51L72.41 0.51Q72.4 0.5 72.39 0.48C72.27 0.35 72.08 0.28 71.82 0.28L70.52 0.28L70.52 0L74.47 0L74.47 0.28C74.07 0.28 73.67 0.33 73.27 0.45C72.89 0.57 72.63 0.88 72.49 1.39L60.57 28L60.57 27.96L55.28 28L55.28 27.75L56.59 27.75C56.99 27.75 57.23 27.68 57.33 27.54C57.45 27.4 57.46 27.25 57.36 27.09L47.38 1.82C47.27 1.46 47.07 1.14 46.78 0.84C46.5 0.53 46.2 0.25 45.87 0L49.18 0ZM77.48 27.79L76.42 27.79L76.24 28L80.97 28L80.97 2.13L78.15 0C78.33 0.48 78.44 0.99 78.46 1.5L78.5 26.07C78.5 26.61 78.43 27.03 78.29 27.33C78.15 27.63 77.88 27.79 77.48 27.79ZM0.7 25.4C0.51 25.15 0.42 24.8 0.42 24.36C0.42 24.01 0.54 23.47 0.77 22.75C1.01 22.02 1.43 20.91 2.04 19.42Q2.99 17.14 4.58 13.37Q6.17 9.59 8.64 3.63L13.47 15.92C13.11 15.97 12.78 16.04 12.48 16.13C12.2 16.22 11.96 16.33 11.77 16.45C11.52 16.59 11.29 16.73 11.1 16.87Q9.13 18.83 7.47 20.51L2.82 25.12Q2.11 25.79 1.48 25.79C1.15 25.79 0.89 25.66 0.7 25.4Z" fill="#ffffff" fill-opacity="1.000000" fill-rule="evenodd"/>
	</g>
</svg>
