<svg width="24" height="24" viewBox="0 0 24 24" fill="none" xmlns="http://www.w3.org/2000/svg">
<path d="M10.5333 20.5C8.16297 20.5 6.14815 19.6739 4.48888 18.0217C2.82963 16.3694 2 14.3631 2 12.0028C2 10.8226 2.22256 9.71732 2.66768 8.68683C3.11282 7.65635 3.72205 6.75595 4.49539 5.98564C5.26872 5.21533 6.17226 4.60847 7.206 4.16507C8.23976 3.72169 9.34848 3.5 10.5322 3.5C11.7159 3.5 12.825 3.72169 13.8595 4.16507C14.894 4.60847 15.7979 5.21533 16.5713 5.98564C17.3446 6.75595 17.9538 7.65608 18.399 8.68604C18.8441 9.71601 19.0667 10.8207 19.0667 12V13.4997L21.239 11.3094L22 12.0409L18.5333 15.494L15.0667 12.0409L15.8277 11.3094L18 13.4732V12C18 9.94583 17.2711 8.19271 15.8133 6.74062C14.3556 5.28854 12.5956 4.5625 10.5333 4.5625C8.47111 4.5625 6.71111 5.28854 5.25333 6.74062C3.79556 8.19271 3.06667 9.94583 3.06667 12C3.07077 14.0678 3.79727 15.8243 5.24616 17.2696C6.69505 18.7149 8.45744 19.4375 10.5333 19.4375C11.533 19.4375 12.4533 19.2608 13.2943 18.9073C14.1354 18.5538 14.9074 18.0631 15.6103 17.4351L16.3918 18.1932C15.5891 18.9206 14.6862 19.4869 13.6831 19.8921C12.68 20.2974 11.6301 20.5 10.5333 20.5Z" fill="#151515"/>
</svg>
