<svg width="247" height="250" viewBox="0 0 247 250" fill="none" xmlns="http://www.w3.org/2000/svg">
<path d="M130.733 240H113.273V219H115.973V237.39H128.033V219H130.733V240Z" fill="#151515"/>
<path d="M102.531 216.643C103.998 216.956 105.267 217.574 106.339 218.497C107.391 219.417 108.137 220.527 108.577 221.827C108.993 223.142 109.05 224.514 108.747 225.943C108.444 227.371 107.838 228.591 106.928 229.604C105.994 230.632 104.86 231.351 103.526 231.762C102.172 232.169 100.762 232.216 99.2946 231.904C97.8471 231.595 96.5973 230.982 95.5451 230.062C94.493 229.143 93.7491 228.023 93.3134 226.703C92.854 225.399 92.7757 224.033 93.0786 222.604C93.3815 221.176 94.0095 219.95 94.9626 218.926C95.892 217.918 97.0239 217.208 98.3582 216.797C99.6925 216.386 101.083 216.335 102.531 216.643ZM102.064 218.844C101.066 218.632 100.107 218.673 99.186 218.967C98.2411 219.277 97.4468 219.793 96.8031 220.515C96.1398 221.232 95.7003 222.1 95.4846 223.117C95.2688 224.134 95.3183 225.106 95.6331 226.032C95.9242 226.973 96.4405 227.768 97.182 228.417C97.8998 229.081 98.7576 229.52 99.7552 229.732C100.772 229.949 101.753 229.902 102.698 229.592C103.619 229.298 104.414 228.782 105.081 228.045C105.725 227.323 106.155 226.454 106.37 225.436C106.586 224.419 106.546 223.449 106.251 222.528C105.936 221.602 105.42 220.807 104.702 220.142C103.961 219.494 103.081 219.061 102.064 218.844Z" fill="#151515"/>
<path d="M90.3827 216.172L88.8759 215.499C88.0458 216.53 87.2827 217.657 86.5865 218.88C85.8903 220.102 85.1363 221.627 84.3244 223.455C84.2513 223.619 84.1782 223.784 84.1052 223.948C84.024 224.131 83.9468 224.305 83.8738 224.469C83.8332 224.561 83.7966 224.643 83.7642 224.716C83.7317 224.789 83.6992 224.862 83.6667 224.935L82.8264 226.827L71.8955 221.949L77.0957 210.242L75.178 209.386L77.5163 204.122L79.6257 205.064L78.1765 208.326L89.1622 213.229L90.6115 209.966L92.721 210.907L90.3827 216.172ZM79.2965 211.126L74.9123 220.996L81.6242 223.991L82.5133 221.99C83.2359 220.363 83.9371 218.957 84.6171 217.771C85.2889 216.603 86.0266 215.509 86.8304 214.488L79.2965 211.126Z" fill="#151515"/>
<path d="M69.1518 202.229C70.3159 203.077 71.0298 204.017 71.2935 205.051C71.5573 206.084 71.3429 207.078 70.6504 208.034C69.9696 208.973 69.1342 209.478 68.1442 209.549C67.1381 209.608 66.1281 209.416 65.1142 208.975C64.0886 208.55 62.9886 207.971 61.8144 207.24C60.7974 206.598 59.9715 206.17 59.3368 205.955C58.6859 205.729 58.2079 205.826 57.9027 206.247C57.2219 207.186 56.9972 208.161 57.2286 209.17C57.4483 210.196 58.0351 211.057 58.989 211.751C59.9914 212.481 61.0213 212.798 62.0789 212.702C63.1246 212.623 64.0783 212.142 64.9398 211.26L66.7586 212.585C65.9456 213.502 65.0384 214.14 64.0369 214.499C63.0075 214.863 61.9617 214.943 60.8995 214.738C59.8212 214.522 58.7889 214.055 57.8027 213.337C56.8003 212.607 56.0601 211.771 55.5819 210.829C55.0876 209.875 54.9002 208.873 55.0198 207.822C55.1232 206.759 55.5329 205.734 56.249 204.746L60.4394 198.965L58.7661 197.746L60.0161 196.022L63.4598 198.529L60.5899 202.489C61.8611 201.485 63.2693 200.939 64.8145 200.852C66.348 200.781 67.7937 201.24 69.1518 202.229ZM67.2004 203.183C66.3274 202.547 65.3966 202.179 64.4079 202.077C63.3914 201.98 62.4345 202.125 61.5373 202.511C60.6284 202.913 59.8864 203.51 59.3112 204.304L58.5827 205.258C58.9499 205.228 59.3708 205.312 59.8454 205.509C60.3039 205.695 60.8821 206.004 61.5802 206.439C61.6125 206.462 61.6588 206.483 61.7191 206.503C61.7676 206.538 61.808 206.567 61.8403 206.591C63.4701 207.58 64.8014 208.129 65.8341 208.237C66.8551 208.362 67.659 208.02 68.2459 207.21C68.7506 206.514 68.9035 205.809 68.7047 205.095C68.494 204.397 67.9926 203.76 67.2004 203.183Z" fill="#151515"/>
<path d="M45.5406 202.751L43.9367 200.965L47.5447 197.709C46.0925 198.427 44.65 198.692 43.2171 198.503C41.7708 198.3 40.5397 197.633 39.524 196.502C38.6686 195.55 38.1458 194.459 37.9556 193.23C37.7654 192.001 37.9152 190.761 38.4051 189.51C38.8668 188.259 39.6396 187.144 40.7234 186.166C41.8073 185.187 43.0018 184.527 44.307 184.184C45.5839 183.84 46.8223 183.827 48.0222 184.145C49.222 184.463 50.2496 185.098 51.105 186.05C52.1207 187.181 52.6539 188.478 52.7046 189.941C52.7419 191.389 52.321 192.806 51.4421 194.192L59.5266 186.896L61.1304 188.681L45.5406 202.751ZM50.0762 188.272C49.4079 187.528 48.6216 187.012 47.7173 186.723C46.7981 186.448 45.8663 186.414 44.922 186.619C43.9776 186.825 43.1194 187.276 42.3473 187.973C41.5753 188.67 41.0378 189.478 40.735 190.398C40.4173 191.331 40.3543 192.264 40.546 193.196C40.7228 194.141 41.1453 194.985 41.8136 195.729C42.4818 196.473 43.2756 196.982 44.1947 197.257C45.0991 197.546 46.0308 197.58 46.99 197.361C47.921 197.141 48.7726 196.682 49.5446 195.985C50.3167 195.288 50.8608 194.488 51.177 193.583C51.4798 192.663 51.5428 191.73 51.366 190.785C51.1744 189.854 50.7444 189.016 50.0762 188.272Z" fill="#151515"/>
<path d="M47.4469 170.832C47.9061 171.63 48.1523 172.458 48.1854 173.317C48.2185 174.175 48.021 174.995 47.5928 175.774C47.1546 176.536 46.4509 177.197 45.4815 177.758L44.8064 178.149L43.6833 176.199L44.5142 175.718C45.0335 175.418 45.4237 175.053 45.6847 174.625C45.9458 174.197 46.0753 173.74 46.0734 173.256C46.0715 172.772 45.9408 172.305 45.6813 171.854C45.272 171.144 44.7225 170.711 44.0328 170.555C43.3505 170.372 42.6545 170.486 41.9448 170.897L41.6072 171.092C41.261 171.293 40.9694 171.508 40.7323 171.737C40.5026 171.939 40.2819 172.217 40.0701 172.571L31.6617 186.102L30.329 183.789L37.2641 172.808C37.3207 172.706 37.3909 172.608 37.4748 172.513C37.5587 172.418 37.6649 172.322 37.7934 172.225C37.645 172.288 37.5088 172.332 37.385 172.357C37.2612 172.383 37.1323 172.399 36.9985 172.408L24.7287 174.066L23.4859 171.908L37.8817 170.094C38.3078 170.032 38.6793 169.956 38.9962 169.865C39.3031 169.757 39.6469 169.592 40.0278 169.372L40.7288 168.966C41.5944 168.465 42.4485 168.225 43.2913 168.246C44.1414 168.239 44.9293 168.465 45.6548 168.923C46.3704 169.364 46.9678 170.001 47.4469 170.832Z" fill="#151515"/>
<path d="M20.7195 165.172L19.9794 162.889L26.8255 160.659L24.0964 152.24L17.2503 154.47L16.5102 152.187L30.7729 147.542L31.513 149.825L24.6669 152.054L27.396 160.473L34.2421 158.244L34.9822 160.527L20.7195 165.172Z" fill="#151515"/>
<path d="M8.14335 142.034L7.89305 139.647L21.3188 138.233L21.0841 135.995L13.3136 130.931L13.0414 128.336L20.9532 133.596L27.9401 126.585L28.2373 129.419L21.6871 135.992L21.9155 138.17L29.0758 137.416L29.3261 139.803L8.14335 142.034Z" fill="#151515"/>
<path d="M29.1005 115.183C28.9441 116.675 28.4631 118.002 27.6575 119.164C26.854 120.306 25.829 121.163 24.5825 121.736C23.3182 122.286 21.9601 122.485 20.5081 122.332C19.0561 122.179 17.7788 121.703 16.6763 120.903C15.5559 120.081 14.7212 119.028 14.1721 117.743C13.6252 116.439 13.4299 115.04 13.5864 113.549C13.7407 112.077 14.2196 110.77 15.0231 109.628C15.8266 108.485 16.8616 107.629 18.128 107.059C19.3766 106.466 20.7268 106.247 22.1788 106.4C23.6308 106.552 24.9159 107.05 26.0342 107.892C27.1347 108.711 27.9595 109.764 28.5085 111.048C29.0575 112.333 29.2549 113.711 29.1005 115.183ZM26.8629 114.947C26.9693 113.933 26.8276 112.983 26.4378 112.097C26.0303 111.189 25.4338 110.453 24.6485 109.887C23.8653 109.302 22.9565 108.955 21.9222 108.846C20.888 108.737 19.9271 108.887 19.0395 109.297C18.1342 109.684 17.398 110.28 16.831 111.085C16.2461 111.868 15.9005 112.767 15.7941 113.781C15.6857 114.816 15.8352 115.787 16.2428 116.694C16.6326 117.58 17.229 118.317 18.0321 118.904C18.8174 119.469 19.7272 119.806 20.7615 119.915C21.7958 120.024 22.7556 119.884 23.6411 119.495C24.5286 119.086 25.2648 118.489 25.8496 117.706C26.4167 116.901 26.7544 115.982 26.8629 114.947Z" fill="#151515"/>
<path d="M17.0281 96.1927L19.1559 89.6289C19.6801 88.0118 20.423 86.855 21.3847 86.1585C22.3334 85.4369 23.3878 85.2649 24.5479 85.6427C25.3846 85.9152 26.0111 86.3822 26.4275 87.0436C26.8248 87.6989 27.0021 88.5138 26.9595 89.4885L27.045 89.5164C27.5934 88.5381 28.2549 87.8596 29.0294 87.4809C29.7911 87.0769 30.6189 87.0204 31.5127 87.3115C32.7107 87.7017 33.4915 88.4713 33.8549 89.6203C34.2054 90.7441 34.1093 92.1431 33.5666 93.8173L31.2908 100.838L17.0281 96.1927ZM31.6986 93.84C32.0624 92.7175 32.1179 91.768 31.865 90.9915C31.5931 90.2088 31.0483 89.6843 30.2306 89.418C29.4319 89.1579 28.709 89.2801 28.0619 89.7845C27.3958 90.2827 26.8808 91.0931 26.517 92.2156L25.1478 96.4392L30.3109 98.1207L31.6986 93.84ZM25.8169 92.4293C26.1808 91.3068 26.2363 90.3573 25.9834 89.5808C25.7367 88.7853 25.2235 88.2606 24.4438 88.0067C23.6071 87.7342 22.8618 87.828 22.2081 88.2882C21.5543 88.7484 21.0516 89.5207 20.7001 90.6051L19.4142 94.5719L24.5773 96.2534L25.8169 92.4293Z" fill="#151515"/>
<path d="M24.3485 76.5988L25.5464 74.5192L37.5685 81.4762L30.1134 66.5904L31.3563 64.4328L44.3391 71.9458L43.1412 74.0255L31.0931 67.0534L38.5742 81.9542L37.3313 84.1119L24.3485 76.5988Z" fill="#151515"/>
<path d="M36.5092 57.3027L38.113 55.5173L48.4246 64.8234L44.2277 48.7104L45.8917 46.8581L57.0273 56.9079L55.4234 58.6933L45.0896 49.3671L49.3087 65.5001L47.6447 67.3525L36.5092 57.3027ZM39.6815 50.6288C38.9464 51.4471 38.1423 52.028 37.2692 52.3715C36.396 52.715 35.5237 52.8032 34.652 52.6362C33.7804 52.4692 32.9809 52.0575 32.2533 51.4009L32.0752 51.2401L33.4184 49.7448L33.5743 49.8855C34.3018 50.5421 35.1021 50.8333 35.9753 50.7592C36.8335 50.6717 37.6235 50.2262 38.3453 49.4228C39.0804 48.6045 39.4398 47.7704 39.4236 46.9206C39.4058 46.0425 39.0332 45.2752 38.3057 44.6186L38.1498 44.4779L39.493 42.9826L39.6712 43.1434C40.3987 43.8 40.8909 44.554 41.1477 45.4054C41.4045 46.2568 41.4081 47.1356 41.1585 48.0419C40.909 48.9482 40.4166 49.8105 39.6815 50.6288Z" fill="#151515"/>
<path d="M84.7176 39.0832C83.3478 39.6944 81.977 39.9339 80.6051 39.8015C79.2332 39.669 77.9973 39.2022 76.8973 38.4009C75.7973 37.5996 74.9469 36.5227 74.3461 35.1701C73.7453 33.8176 73.5159 32.4635 73.6578 31.108C73.7998 29.7525 74.2806 28.5195 75.1004 27.409C75.9202 26.2986 77.015 25.4377 78.3848 24.8264C79.5902 24.2885 80.7784 24.032 81.9494 24.0569C83.1386 24.0738 84.2213 24.3681 85.1975 24.9399C86.1737 25.5117 86.9834 26.3002 87.6268 27.3052L85.4626 28.271C84.7279 27.3067 83.8115 26.6973 82.7136 26.4426C81.6076 26.1696 80.461 26.298 79.2738 26.8278C78.3241 27.2516 77.5672 27.8632 77.0031 28.6625C76.4308 29.4434 76.1001 30.3247 76.0109 31.3063C75.9217 32.2878 76.0882 33.2539 76.5104 34.2043C76.9326 35.1548 77.5374 35.9251 78.3248 36.5155C79.1123 37.1058 79.991 37.4583 80.9611 37.5729C81.923 37.6693 82.8789 37.5055 83.8286 37.0817C85.0157 36.5519 85.8782 35.7838 86.4159 34.7773C86.9536 33.7708 87.1108 32.6713 86.8875 31.4788L89.0517 30.513C89.3664 31.6647 89.4091 32.7955 89.1798 33.9052C88.9506 35.015 88.4484 36.0275 87.6733 36.9429C86.9082 37.8318 85.923 38.5452 84.7176 39.0832Z" fill="#151515"/>
<path d="M102.673 33.3301C101.225 33.6385 99.8442 33.5851 98.5295 33.1699C97.2148 32.7547 96.0948 32.0527 95.1695 31.0638C94.2597 30.0512 93.6533 28.8307 93.3504 27.4025C93.0392 25.9351 93.1036 24.5514 93.5434 23.2512C93.9791 21.9314 94.7132 20.8139 95.7458 19.8986C96.7784 18.9834 98.0185 18.3716 99.466 18.0632C100.894 17.759 102.256 17.8165 103.551 18.2358C104.865 18.651 105.98 19.3747 106.894 20.4069C107.823 21.4153 108.439 22.6337 108.742 24.0619C108.751 24.1011 108.761 24.15 108.773 24.2087C108.786 24.2674 108.796 24.3163 108.804 24.3554L95.6888 27.1497C95.9354 28.1196 96.3883 28.9535 97.0474 29.6515C97.7024 30.3299 98.4807 30.8185 99.3822 31.1172C100.299 31.3921 101.257 31.4233 102.254 31.2108C103.35 30.9774 104.266 30.5266 105.003 29.8582C105.737 29.1704 106.175 28.392 106.318 27.5231L108.812 26.9918C108.818 27.8902 108.568 28.7819 108.06 29.6671C107.568 30.5285 106.861 31.2926 105.94 31.9593C105.014 32.6064 103.925 33.0633 102.673 33.3301ZM106.45 24.2435C106.203 23.2736 105.753 22.4495 105.098 21.7711C104.439 21.0731 103.651 20.5866 102.734 20.3117C101.832 20.013 100.892 19.9678 99.9141 20.1762C98.936 20.3846 98.086 20.811 97.364 21.4556C96.6575 22.0765 96.1349 22.8422 95.7965 23.7527C95.4734 24.6395 95.396 25.5762 95.5644 26.5627L106.45 24.2435Z" fill="#151515"/>
<path d="M115.51 16H117.91V20.86C118.35 19.3 119.12 18.05 120.22 17.11C121.34 16.17 122.66 15.7 124.18 15.7C125.46 15.7 126.62 16.04 127.66 16.72C128.7 17.4 129.52 18.34 130.12 19.54C130.74 20.72 131.05 22.04 131.05 23.5C131.05 24.96 130.74 26.29 130.12 27.49C129.52 28.67 128.7 29.6 127.66 30.28C126.62 30.96 125.46 31.3 124.18 31.3C122.66 31.3 121.34 30.83 120.22 29.89C119.12 28.95 118.35 27.69 117.91 26.11L117.91 37H115.51L115.51 16ZM123.22 29.05C124.22 29.05 125.13 28.81 125.95 28.33C126.77 27.83 127.42 27.16 127.9 26.32C128.38 25.48 128.62 24.54 128.62 23.5C128.62 22.46 128.38 21.52 127.9 20.68C127.42 19.82 126.77 19.15 125.95 18.67C125.13 18.17 124.22 17.92 123.22 17.92C122.22 17.92 121.31 18.17 120.49 18.67C119.67 19.15 119.02 19.82 118.54 20.68C118.08 21.52 117.85 22.46 117.85 23.5C117.85 24.54 118.08 25.48 118.54 26.32C119.02 27.16 119.67 27.83 120.49 28.33C121.31 28.81 122.22 29.05 123.22 29.05Z" fill="#151515"/>
<path d="M143.48 20.4748L137.436 19.187L137.909 16.9566L152.345 20.0322L151.872 22.2626L145.798 20.9686L143.159 33.4119L140.841 32.9181L143.48 20.4748Z" fill="#151515"/>
<path d="M159.816 22.5671L162.008 23.5452L156.369 36.2392L170.363 27.274L172.637 28.2887L166.548 41.9972L164.356 41.0191L170.007 28.2977L156.001 37.2903L153.727 36.2755L159.816 22.5671Z" fill="#151515"/>
<path d="M179.21 44.9327C178.002 45.8838 176.758 46.4249 175.477 46.5561C174.212 46.699 173.038 46.3761 171.955 45.5873C171.017 44.9044 170.362 44.0191 169.99 42.9314C169.645 41.8392 169.601 40.6565 169.857 39.3832C170.141 38.1055 170.717 36.8675 171.586 35.6692C172.454 34.4709 173.445 33.5471 174.558 32.8978C175.699 32.2441 176.835 31.9208 177.966 31.928C179.125 31.9308 180.173 32.2737 181.111 32.9565C182.194 33.7453 182.863 34.7646 183.118 36.0143C183.389 37.2757 183.261 38.6292 182.731 40.0747L189.07 31.3304L190.986 32.7255L184.647 41.4699C185.855 40.5189 187.1 39.9777 188.381 39.8465C189.661 39.7154 190.843 40.0442 191.927 40.833C192.864 41.5159 193.505 42.4034 193.85 43.4955C194.223 44.5833 194.267 45.766 193.983 47.0437C193.727 48.317 193.165 49.5528 192.296 50.7511C191.427 51.9494 190.423 52.8754 189.282 53.5291C188.169 54.1784 187.033 54.5017 185.874 54.4989C184.743 54.4917 183.709 54.1466 182.771 53.4638C181.688 52.675 181.011 51.6498 180.739 50.3884C180.468 49.1269 180.597 47.7734 181.126 46.3279L174.964 54.8294L173.048 53.4342L179.21 44.9327ZM174.027 44.313C174.739 44.831 175.518 45.1018 176.366 45.1252C177.213 45.1486 178.045 44.938 178.862 44.4934C179.678 44.0487 180.397 43.3973 181.019 42.5391C181.641 41.6808 182.037 40.7939 182.207 39.8783C182.388 38.9465 182.337 38.0803 182.053 37.2796C181.769 36.4789 181.271 35.8195 180.56 35.3014C179.848 34.7834 179.069 34.5127 178.221 34.4892C177.374 34.4658 176.536 34.6845 175.708 35.1453C174.891 35.59 174.172 36.2414 173.55 37.0997C172.928 37.9579 172.532 38.8448 172.362 39.7604C172.193 40.676 172.25 41.5342 172.534 42.3349C172.818 43.1356 173.316 43.795 174.027 44.313ZM183.316 51.0769C184.027 51.5949 184.806 51.8657 185.654 51.8891C186.518 51.9243 187.35 51.7137 188.15 51.2573C188.966 50.8126 189.685 50.1612 190.307 49.303C190.93 48.4447 191.325 47.5578 191.495 46.6422C191.693 45.7222 191.641 44.856 191.341 44.0435C191.057 43.2428 190.559 42.5834 189.848 42.0653C189.136 41.5473 188.357 41.2766 187.509 41.2531C186.662 41.2297 185.824 41.4484 184.996 41.9092C184.179 42.3539 183.46 43.0053 182.838 43.8636C182.216 44.7218 181.82 45.6087 181.651 46.5243C181.481 47.4399 181.538 48.2981 181.822 49.0988C182.123 49.9113 182.62 50.5706 183.316 51.0769Z" fill="#151515"/>
<path d="M201.996 51.1804L203.6 52.9658L192.464 63.0156L190.86 61.2302L201.996 51.1804ZM207.232 46.0105L209.297 48.3092L204.479 50.7576L204.279 50.5344L207.232 46.0105Z" fill="#151515"/>
<path d="M219.116 63.0154L220.314 65.0951L208.629 71.8568L209.752 73.8065L218.904 75.2694L220.207 77.5311L210.847 75.9463L207.314 85.2001L205.891 82.7305L209.203 74.0551L208.11 72.1574L201.878 75.7636L200.68 73.684L219.116 63.0154Z" fill="#151515"/>
<path d="M210.002 93.6727C209.558 92.3029 209.533 91.1227 209.927 90.1321C210.32 89.1414 211.078 88.4634 212.2 88.098C213.303 87.7388 214.276 87.8216 215.119 88.3464C215.968 88.8902 216.673 89.6386 217.235 90.5917C217.815 91.5385 218.365 92.6528 218.886 93.9346C219.332 95.0514 219.749 95.8832 220.136 96.43C220.53 96.996 220.974 97.1984 221.469 97.0374C222.572 96.6782 223.326 96.0223 223.732 95.0697C224.157 94.1109 224.188 93.0703 223.824 91.9478C223.441 90.7683 222.794 89.9064 221.882 89.3621C220.989 88.8117 219.934 88.6397 218.719 88.8463L218.025 86.7059C219.222 86.4423 220.331 86.4596 221.353 86.7579C222.4 87.0689 223.293 87.6194 224.033 88.4092C224.779 89.218 225.34 90.2027 225.716 91.3632C226.098 92.5428 226.206 93.654 226.04 94.6968C225.879 95.7587 225.442 96.6794 224.727 97.4589C224.019 98.2575 223.085 98.8457 221.925 99.2235L215.136 101.435L215.774 103.404L213.749 104.063L212.435 100.011L217.085 98.4966C215.466 98.5611 214.005 98.1743 212.704 97.3363C211.421 96.492 210.52 95.2708 210.002 93.6727ZM212.142 94.0484C212.475 95.0758 213.012 95.9211 213.753 96.5844C214.519 97.2605 215.378 97.7063 216.331 97.9218C217.303 98.1311 218.255 98.084 219.187 97.7806L220.337 97.4375C220.022 97.2455 219.731 96.9302 219.463 96.4917C219.2 96.0723 218.914 95.4818 218.604 94.7204C218.592 94.6823 218.567 94.6379 218.53 94.587C218.511 94.5299 218.496 94.4823 218.483 94.4443C217.745 92.6864 216.99 91.4599 216.218 90.7648C215.465 90.0635 214.614 89.8677 213.663 90.1774C212.845 90.4437 212.307 90.9239 212.048 91.6181C211.809 92.3061 211.84 93.1162 212.142 94.0484Z" fill="#151515"/>
<path d="M227.785 113.187L227.14 107.041L229.408 106.802L230.947 121.481L228.68 121.72L228.032 115.544L215.382 116.877L215.135 114.52L227.785 113.187Z" fill="#151515"/>
<path d="M231.476 159.356L230.394 162.695L207.799 164.297L208.678 161.586L215.653 161.081L218.623 151.92L213.276 147.402L214.136 144.748L231.476 159.356ZM216.269 161.029L228.259 160.138L219.091 152.325L216.269 161.029Z" fill="#151515"/>
<path d="M225.604 175.116L224.212 177.533L200.774 178.493L217.937 188.426L216.59 190.765L198.414 180.247L199.791 177.855L223.244 176.869L206.08 166.937L207.428 164.598L225.604 175.116Z" fill="#151515"/>
<path d="M213.833 194.622L211.888 196.787L193.132 189.923L193.072 189.99L201.864 207.946L199.959 210.066L190.123 189.591L192.509 186.935L213.833 194.622Z" fill="#151515"/>
<path d="M190.521 217.235L188.339 218.824L176.014 201.821L178.197 200.232L190.521 217.235Z" fill="#151515"/>
<path d="M154.486 218.908C155.02 218.739 155.545 218.709 156.062 218.818C156.579 218.927 157.031 219.161 157.417 219.522C157.803 219.882 158.081 220.329 158.249 220.863C158.418 221.397 158.448 221.922 158.338 222.44C158.229 222.957 157.994 223.409 157.634 223.796C157.274 224.182 156.826 224.46 156.293 224.629C155.778 224.793 155.262 224.82 154.745 224.711C154.228 224.602 153.777 224.367 153.39 224.007C152.985 223.653 152.698 223.209 152.529 222.675C152.361 222.141 152.341 221.612 152.469 221.089C152.579 220.572 152.813 220.12 153.174 219.733C153.534 219.346 153.971 219.071 154.486 218.908Z" fill="#151515"/>
</svg>
