<svg width="250" height="250" viewBox="0 0 250 250" fill="none" xmlns="http://www.w3.org/2000/svg">
<g clip-path="url(#clip0_1_67)">
<path d="M126.755 239.782H123.245L114.725 218.782H117.575L120.215 225.262H129.845L132.485 218.782H135.275L126.755 239.782ZM120.455 225.832L125.015 236.962L129.605 225.832H120.455Z" fill="#151515"/>
<path d="M111.419 239.336L108.682 238.792L100.228 216.896L96.3526 236.344L93.7043 235.818L97.8081 215.223L100.515 215.761L108.999 237.662L112.874 218.215L115.522 218.74L111.419 239.336Z" fill="#151515"/>
<path d="M90.0892 234.806L87.4001 233.694L87.6025 213.716L87.5193 213.681L73.5383 227.963L70.9046 226.874L86.9096 210.767L90.2087 212.131L90.0892 234.806Z" fill="#151515"/>
<path d="M62.236 221.192L59.9898 219.694L71.6709 202.243L73.9171 203.741L62.236 221.192Z" fill="#151515"/>
<path d="M46.1797 175.576C47.0252 176.839 47.3684 178.196 47.2094 179.649C47.0393 181.085 46.4193 182.424 45.3497 183.666L49.4177 180.952L50.7527 182.947L33.0329 194.766L31.6979 192.772L40.9821 186.579C39.4396 187.079 37.9714 187.133 36.5775 186.74C35.1725 186.331 34.0473 185.495 33.2018 184.232C32.4898 183.168 32.1274 182.016 32.1146 180.774C32.1018 179.532 32.4277 178.329 33.0923 177.165C33.7291 175.995 34.6548 175.005 35.8694 174.195C37.084 173.384 38.3628 172.904 39.706 172.753C41.0214 172.597 42.2512 172.763 43.3954 173.25C44.5396 173.736 45.4677 174.512 46.1797 175.576ZM44.8419 177.622C44.2856 176.791 43.5798 176.168 42.7243 175.753C41.8523 175.349 40.9333 175.18 39.9675 175.248C39.0017 175.315 38.0862 175.637 37.221 176.214C36.3558 176.791 35.7073 177.512 35.2755 178.377C34.8271 179.253 34.6312 180.165 34.688 181.113C34.7282 182.072 35.0264 182.967 35.5826 183.798C36.1389 184.629 36.853 185.246 37.7251 185.65C38.5805 186.065 39.4995 186.234 40.4819 186.156C41.4366 186.072 42.3465 185.741 43.2117 185.164C44.0769 184.587 44.731 183.874 45.1739 183.026C45.6057 182.161 45.8016 181.249 45.7614 180.29C45.7046 179.342 45.3981 178.453 44.8419 177.622Z" fill="#151515"/>
<path d="M38.2412 160.301C38.8161 161.686 39.027 163.082 38.8738 164.487C38.713 165.874 38.2215 167.116 37.3993 168.213C36.551 169.3 35.4522 170.122 34.103 170.68C32.7538 171.238 31.4037 171.428 30.0526 171.251C28.6754 171.063 27.4388 170.535 26.3428 169.668C25.2392 168.783 24.3999 167.647 23.825 166.262C23.2578 164.895 23.0546 163.518 23.2155 162.132C23.3763 160.745 23.877 159.499 24.7177 158.394C25.5322 157.278 26.6141 156.441 27.9633 155.883C29.3125 155.325 30.6795 155.15 32.0644 155.356C33.4231 155.552 34.6505 156.083 35.7465 156.95C36.8424 157.817 37.674 158.934 38.2412 160.301ZM36.162 161.161C35.7711 160.219 35.1928 159.451 34.4273 158.859C33.6357 158.256 32.7597 157.893 31.7995 157.77C30.8316 157.63 29.8672 157.758 28.9061 158.155C27.945 158.553 27.1721 159.143 26.5875 159.926C25.9767 160.698 25.6144 161.572 25.5004 162.55C25.3603 163.517 25.4857 164.472 25.8766 165.414C26.2752 166.374 26.8703 167.156 27.6619 167.76C28.4274 168.352 29.3034 168.715 30.2897 168.848C31.25 168.97 32.2106 168.833 33.1717 168.435C34.1328 168.038 34.9095 167.457 35.5018 166.693C36.0864 165.91 36.4488 165.035 36.5889 164.068C36.7029 163.091 36.5606 162.121 36.162 161.161Z" fill="#151515"/>
<path d="M33.4222 144.868C33.6723 146.124 33.5655 147.327 33.1018 148.48C32.638 149.632 31.8861 150.617 30.8459 151.436C29.7862 152.258 28.5402 152.811 27.1082 153.096C25.6762 153.38 24.3228 153.343 23.0482 152.984C21.7539 152.629 20.6716 152.008 19.8014 151.121C18.9312 150.233 18.371 149.162 18.1209 147.907C17.8239 146.416 18.0289 145.04 18.7359 143.778C19.4391 142.496 20.5107 141.478 21.951 140.723L11.0047 142.897L10.5415 140.572L31.4337 136.424L31.8968 138.748L27.1004 139.701C28.7401 139.844 30.1303 140.373 31.2712 141.289C32.4081 142.184 33.1251 143.378 33.4222 144.868ZM31.0277 144.365C30.8322 143.384 30.419 142.539 29.788 141.828C29.1373 141.121 28.3551 140.624 27.4413 140.336C26.5235 140.029 25.5546 139.977 24.5346 140.179C23.5145 140.382 22.6394 140.8 21.9093 141.435C21.1556 142.053 20.6235 142.812 20.3129 143.709C19.9828 144.611 19.9154 145.552 20.1108 146.533C20.3062 147.513 20.7293 148.357 21.3799 149.064C22.011 149.775 22.7952 150.282 23.7325 150.585C24.6463 150.872 25.6133 150.915 26.6333 150.712C27.6534 150.51 28.5305 150.101 29.2645 149.486C29.9946 148.852 30.5248 148.084 30.8549 147.183C31.1655 146.285 31.2231 145.346 31.0277 144.365Z" fill="#151515"/>
<path d="M37.3 127.326C37.3 128.246 37.1 129.086 36.7 129.846C36.3 130.606 35.72 131.216 34.96 131.676C34.2 132.116 33.26 132.336 32.14 132.336H31.36V130.086H32.32C32.92 130.086 33.44 129.966 33.88 129.726C34.32 129.486 34.66 129.156 34.9 128.736C35.14 128.316 35.26 127.846 35.26 127.326C35.26 126.506 35 125.856 34.48 125.376C33.98 124.876 33.32 124.626 32.5 124.626H32.11C31.71 124.626 31.35 124.666 31.03 124.746C30.73 124.806 30.4 124.936 30.04 125.136L16 132.636V129.966L27.49 123.936C27.59 123.876 27.7 123.826 27.82 123.786C27.94 123.746 28.08 123.716 28.24 123.696C28.08 123.676 27.94 123.646 27.82 123.606C27.7 123.566 27.58 123.516 27.46 123.456L16 118.746V116.256L29.38 121.896C29.78 122.056 30.14 122.176 30.46 122.256C30.78 122.316 31.16 122.346 31.6 122.346H32.41C33.41 122.346 34.27 122.566 34.99 123.006C35.73 123.426 36.3 124.016 36.7 124.776C37.1 125.516 37.3 126.366 37.3 127.326Z" fill="#151515"/>
<path d="M33.2552 105.975C32.9621 107.447 32.3648 108.704 31.4633 109.749C30.5618 110.793 29.466 111.534 28.1757 111.971C26.8854 112.408 25.5144 112.482 24.0627 112.194C22.6111 111.906 21.373 111.313 20.3485 110.417C19.324 109.52 18.5955 108.417 18.163 107.108C17.7305 105.798 17.6608 104.408 17.954 102.937C18.2119 101.643 18.6897 100.524 19.3872 99.582C20.0887 98.6202 20.9551 97.9053 21.9865 97.4372C23.0178 96.9691 24.1298 96.7617 25.3224 96.815L24.8593 99.1393C23.6471 99.1841 22.6196 99.5816 21.7768 100.332C20.9143 101.078 20.3561 102.089 20.102 103.364C19.8988 104.384 19.9603 105.354 20.2866 106.275C20.5932 107.193 21.1214 107.97 21.8712 108.609C22.6209 109.247 23.5058 109.667 24.5259 109.87C25.546 110.072 26.5247 110.022 27.462 109.719C28.3993 109.416 29.1953 108.901 29.8499 108.174C30.4848 107.444 30.9039 106.569 31.1072 105.549C31.3612 104.274 31.2329 103.127 30.7221 102.108C30.2114 101.089 29.4047 100.327 28.302 99.8229L28.7652 97.4986C29.8874 97.905 30.8352 98.5214 31.6086 99.3478C32.382 100.174 32.9182 101.168 33.2172 102.328C33.5005 103.465 33.5132 104.681 33.2552 105.975Z" fill="#151515"/>
<path d="M37.5194 91.5736C36.9675 92.9037 36.2202 93.8175 35.2775 94.315C34.3349 94.8126 33.3183 94.8359 32.2278 94.385C31.1559 93.9418 30.4698 93.2469 30.1696 92.3004C29.8771 91.3354 29.827 90.3082 30.0191 89.219C30.1927 88.1221 30.4978 86.9173 30.9343 85.6044C31.3202 84.4655 31.5435 83.5622 31.6039 82.8947C31.672 82.2086 31.4658 81.7663 30.9853 81.5676C29.9133 81.1243 28.9137 81.133 27.9863 81.5936C27.0405 82.0466 26.3415 82.818 25.8892 83.9079C25.414 85.0532 25.3465 86.1291 25.6868 87.1355C26.0086 88.1342 26.6987 88.9498 27.7572 89.5822L26.8948 91.6604C25.8134 91.0834 24.9811 90.3497 24.3978 89.4593C23.8037 88.5427 23.4819 87.5439 23.4324 86.463C23.3906 85.3636 23.6034 84.2504 24.071 83.1236C24.5462 81.9783 25.1858 81.0632 25.9896 80.3784C26.8011 79.6751 27.7316 79.2591 28.7811 79.1304C29.8382 78.9831 30.9305 79.1426 32.0579 79.6088L38.6561 82.3371L39.4494 80.4252L41.4178 81.2391L39.7851 85.1738L35.2662 83.3052C36.5392 84.3077 37.3986 85.5504 37.8443 87.0333C38.2715 88.5085 38.1632 90.0219 37.5194 91.5736ZM36.136 89.8979C36.5499 88.9003 36.6906 87.9089 36.5582 86.9235C36.4149 85.912 36.0509 85.0148 35.4663 84.232C34.8632 83.4416 34.1088 82.8591 33.2032 82.4847L32.1057 81.9984C32.2202 82.3487 32.2371 82.7777 32.1563 83.2854C32.0833 83.7746 31.9173 84.4094 31.6585 85.1897C31.6432 85.2266 31.6333 85.2766 31.6287 85.3397C31.6058 85.3951 31.5866 85.4413 31.5713 85.4782C30.9909 87.2943 30.7686 88.7173 30.9042 89.7473C31.0213 90.7696 31.5419 91.4719 32.4661 91.854C33.2608 92.1826 33.9819 92.1669 34.6292 91.807C35.2581 91.4394 35.7604 90.803 36.136 89.8979Z" fill="#151515"/>
<path d="M31.6218 68.6603L32.9568 66.6658L36.8751 69.2794C35.8774 68.1812 35.249 66.9807 34.9899 65.6779C34.7252 64.3474 34.9711 63.1171 35.7276 61.9869C36.295 61.1393 36.9564 60.5467 37.7118 60.2091C38.4617 59.8438 39.2806 59.753 40.1685 59.9366C41.0509 60.0924 41.983 60.4977 42.9646 61.1525L43.8132 61.7185L42.4949 63.688L41.9958 63.3551C40.9975 62.6892 40.0652 62.428 39.199 62.5715C38.344 62.6983 37.6161 63.2105 37.0154 64.108C36.5593 64.7895 36.3473 65.5376 36.3795 66.3524C36.3951 67.1561 36.6244 67.9462 37.0674 68.7225C37.5216 69.4822 38.1563 70.134 38.9716 70.6778L45.4356 74.9893L44.1006 76.9838L31.6218 68.6603Z" fill="#151515"/>
<path d="M59.2017 58.4428C58.1543 59.4884 56.9653 60.1949 55.6348 60.5623C54.3043 60.9297 52.9808 60.9509 51.6645 60.6259C50.3481 60.2726 49.1733 59.5803 48.14 58.5488C47.0784 57.4891 46.3778 56.2951 46.0381 54.9669C45.6842 53.6246 45.6913 52.2893 46.0593 50.9611C46.4273 49.6329 47.135 48.446 48.1825 47.4004C49.2157 46.3689 50.3906 45.6765 51.7069 45.3233C53.0374 44.9559 54.368 44.9559 55.6985 45.3233C57.029 45.6624 58.2109 46.3477 59.2442 47.3792C59.2725 47.4074 59.3079 47.4428 59.3503 47.4852C59.3928 47.5275 59.4282 47.5629 59.4565 47.5911L49.9659 57.0652C50.702 57.7434 51.5371 58.1955 52.4713 58.4216C53.3913 58.6336 54.3113 58.6194 55.2314 58.3792C56.1514 58.1108 56.9724 57.6162 57.6943 56.8956C58.4869 56.1043 59.0106 55.2283 59.2654 54.2675C59.506 53.2925 59.4494 52.4023 59.0955 51.5969L60.9002 49.7954C61.3956 50.5443 61.6717 51.4274 61.7283 52.4447C61.7849 53.4338 61.608 54.4582 61.1975 55.5179C60.7729 56.5635 60.1076 57.5385 59.2017 58.4428ZM57.4182 48.778C56.6822 48.0998 55.8542 47.6547 54.9341 47.4428C53.9999 47.2167 53.0728 47.2379 52.1528 47.5063C51.2327 47.7466 50.4189 48.2199 49.7111 48.9264C49.0034 49.6329 48.5222 50.4524 48.2674 51.385C48.0126 52.2893 47.9914 53.2148 48.2037 54.1615C48.416 55.0799 48.8619 55.9065 49.5413 56.6413L57.4182 48.778Z" fill="#151515"/>
<path d="M86.7571 32.8034C86.2395 33.0174 85.7184 33.0922 85.1937 33.0279C84.6689 32.9635 84.1983 32.7685 83.7817 32.443C83.3652 32.1175 83.0496 31.6961 82.8349 31.1789C82.6203 30.6616 82.545 30.1409 82.609 29.6167C82.6729 29.0924 82.8677 28.6224 83.1931 28.2064C83.5186 27.7905 83.94 27.4756 84.4575 27.2616C84.9566 27.0552 85.4684 26.9843 85.9932 27.0486C86.5179 27.113 86.9886 27.308 87.4051 27.6335C87.8402 27.9514 88.165 28.3689 88.3796 28.8862C88.5943 29.4034 88.6603 29.928 88.5779 30.4598C88.5139 30.9841 88.3192 31.4541 87.9938 31.8701C87.6683 32.286 87.2561 32.5971 86.7571 32.8034Z" fill="#151515"/>
<path d="M123.245 10.2178L126.755 10.2178L135.275 31.2178H132.425L129.785 24.7378L120.155 24.7378L117.515 31.2178H114.725L123.245 10.2178ZM129.545 24.1678L124.985 13.0378L120.395 24.1678L129.545 24.1678Z" fill="#151515"/>
<path d="M138.581 10.6644L141.318 11.2078L149.772 33.1036L153.647 13.656L156.296 14.1818L152.192 34.7769L149.485 34.2394L141.001 12.3377L137.126 31.7854L134.478 31.2595L138.581 10.6644Z" fill="#151515"/>
<path d="M159.911 15.1936L162.6 16.3056L162.398 36.2843L162.481 36.3187L176.462 22.0373L179.095 23.1263L163.09 39.2328L159.791 37.8687L159.911 15.1936Z" fill="#151515"/>
<path d="M187.764 28.8076L190.01 30.3058L178.329 47.7572L176.083 46.259L187.764 28.8076Z" fill="#151515"/>
<path d="M203.82 74.4245C202.975 73.1613 202.632 71.8036 202.791 70.3512C202.961 68.9155 203.581 67.5764 204.65 66.334L200.582 69.0475L199.247 67.0531L216.967 55.2337L218.302 57.2281L209.018 63.4208C210.56 62.9208 212.029 62.8671 213.423 63.2596C214.827 63.6687 215.953 64.5049 216.798 65.768C217.51 66.8317 217.873 67.9844 217.885 69.226C217.898 70.4676 217.572 71.6706 216.908 72.8351C216.271 74.0051 215.345 74.9952 214.131 75.8054C212.916 76.6155 211.637 77.0959 210.294 77.2466C208.979 77.4027 207.749 77.2374 206.605 76.7504C205.46 76.2635 204.532 75.4882 203.82 74.4245ZM205.158 72.3782C205.714 73.2092 206.42 73.8323 207.276 74.2473C208.148 74.6513 209.067 74.8197 210.032 74.7525C210.998 74.6853 211.914 74.3631 212.779 73.786C213.644 73.2089 214.293 72.4878 214.724 71.6228C215.173 70.7467 215.369 69.8348 215.312 68.887C215.272 67.9281 214.974 67.0332 214.417 66.2021C213.861 65.3711 213.147 64.7536 212.275 64.3496C211.419 63.9345 210.501 63.7662 209.518 63.8445C208.563 63.9283 207.653 64.2588 206.788 64.8359C205.923 65.413 205.269 66.1257 204.826 66.9741C204.394 67.8391 204.198 68.7511 204.239 69.71C204.295 70.6577 204.602 71.5472 205.158 72.3782Z" fill="#151515"/>
<path d="M211.759 89.699C211.184 88.3135 210.973 86.9182 211.126 85.513C211.287 84.1264 211.779 82.8843 212.601 81.7868C213.449 80.7002 214.548 79.878 215.897 79.3201C217.246 78.7622 218.596 78.5719 219.947 78.749C221.325 78.9371 222.561 79.4646 223.657 80.3316C224.761 81.2171 225.6 82.3525 226.175 83.738C226.742 85.105 226.945 86.4818 226.785 87.8685C226.624 89.2552 226.123 90.5011 225.282 91.6062C224.468 92.7221 223.386 93.559 222.037 94.1169C220.688 94.6747 219.32 94.8504 217.936 94.644C216.577 94.4483 215.35 93.917 214.254 93.05C213.158 92.183 212.326 91.066 211.759 89.699ZM213.838 88.8392C214.229 89.7813 214.807 90.5486 215.573 91.1411C216.364 91.7443 217.24 92.1072 218.2 92.2295C219.168 92.3704 220.133 92.2421 221.094 91.8447C222.055 91.4473 222.828 90.8572 223.412 90.0744C224.023 89.3024 224.386 88.4276 224.5 87.4498C224.64 86.4829 224.514 85.5284 224.123 84.5863C223.725 83.6257 223.13 82.8438 222.338 82.2405C221.573 81.648 220.697 81.2852 219.71 81.152C218.75 81.0296 217.789 81.1671 216.828 81.5645C215.867 81.9619 215.091 82.5428 214.498 83.3071C213.914 84.0899 213.551 84.9648 213.411 85.9317C213.297 86.9095 213.439 87.8786 213.838 88.8392Z" fill="#151515"/>
<path d="M216.578 105.132C216.328 103.876 216.434 102.673 216.898 101.52C217.362 100.368 218.114 99.3825 219.154 98.5642C220.214 97.7421 221.46 97.1888 222.892 96.9045C224.324 96.6201 225.677 96.6573 226.952 97.0159C228.246 97.3706 229.328 97.9917 230.199 98.8792C231.069 99.7667 231.629 100.838 231.879 102.093C232.176 103.584 231.971 104.96 231.264 106.222C230.561 107.504 229.489 108.522 228.049 109.277L238.995 107.103L239.458 109.428L218.566 113.576L218.103 111.252L222.9 110.299C221.26 110.156 219.87 109.627 218.729 108.711C217.592 107.816 216.875 106.622 216.578 105.132ZM218.972 105.635C219.168 106.616 219.581 107.461 220.212 108.172C220.863 108.879 221.645 109.376 222.559 109.664C223.476 109.971 224.445 110.023 225.465 109.821C226.486 109.618 227.361 109.2 228.091 108.565C228.844 107.947 229.376 107.188 229.687 106.291C230.017 105.389 230.085 104.448 229.889 103.467C229.694 102.487 229.271 101.643 228.62 100.936C227.989 100.225 227.205 99.7184 226.267 99.4151C225.354 99.1276 224.387 99.0851 223.367 99.2876C222.347 99.4902 221.47 99.8988 220.736 100.514C220.005 101.148 219.475 101.916 219.145 102.817C218.834 103.715 218.777 104.654 218.972 105.635Z" fill="#151515"/>
<path d="M212.7 122.674C212.7 121.754 212.9 120.914 213.3 120.154C213.7 119.394 214.28 118.784 215.04 118.324C215.8 117.884 216.74 117.664 217.86 117.664H218.64V119.914H217.68C217.08 119.914 216.56 120.034 216.12 120.274C215.68 120.514 215.34 120.844 215.1 121.264C214.86 121.684 214.74 122.154 214.74 122.674C214.74 123.494 215 124.144 215.52 124.624C216.02 125.124 216.68 125.374 217.5 125.374H217.89C218.29 125.374 218.65 125.334 218.97 125.254C219.27 125.194 219.6 125.064 219.96 124.864L234 117.364V120.034L222.51 126.064C222.41 126.124 222.3 126.174 222.18 126.214C222.06 126.254 221.92 126.284 221.76 126.304C221.92 126.324 222.06 126.354 222.18 126.394C222.3 126.434 222.42 126.484 222.54 126.544L234 131.254V133.744L220.62 128.104C220.22 127.944 219.86 127.824 219.54 127.744C219.22 127.684 218.84 127.654 218.4 127.654H217.59C216.59 127.654 215.73 127.434 215.01 126.994C214.27 126.574 213.7 125.984 213.3 125.224C212.9 124.484 212.7 123.634 212.7 122.674Z" fill="#151515"/>
<path d="M216.745 144.025C217.038 142.553 217.635 141.296 218.537 140.251C219.438 139.207 220.534 138.466 221.824 138.029C223.115 137.592 224.486 137.518 225.937 137.806C227.389 138.094 228.627 138.687 229.652 139.583C230.676 140.48 231.405 141.583 231.837 142.892C232.269 144.202 232.339 145.592 232.046 147.063C231.788 148.357 231.31 149.476 230.613 150.418C229.911 151.38 229.045 152.095 228.014 152.563C226.982 153.031 225.87 153.238 224.678 153.185L225.141 150.861C226.353 150.816 227.38 150.418 228.223 149.668C229.086 148.922 229.644 147.911 229.898 146.636C230.101 145.616 230.04 144.646 229.713 143.725C229.407 142.807 228.879 142.03 228.129 141.391C227.379 140.753 226.494 140.333 225.474 140.13C224.454 139.928 223.475 139.978 222.538 140.281C221.601 140.584 220.805 141.099 220.15 141.826C219.515 142.556 219.096 143.431 218.893 144.451C218.639 145.726 218.767 146.873 219.278 147.892C219.789 148.911 220.595 149.673 221.698 150.177L221.235 152.501C220.113 152.095 219.165 151.479 218.391 150.652C217.618 149.826 217.082 148.832 216.783 147.672C216.499 146.535 216.487 145.319 216.745 144.025Z" fill="#151515"/>
<path d="M212.481 158.426C213.033 157.096 213.78 156.183 214.722 155.685C215.665 155.187 216.682 155.164 217.772 155.615C218.844 156.058 219.53 156.753 219.83 157.7C220.123 158.665 220.173 159.692 219.981 160.781C219.807 161.878 219.502 163.083 219.066 164.396C218.68 165.535 218.457 166.438 218.396 167.105C218.328 167.791 218.534 168.234 219.015 168.432C220.087 168.876 221.086 168.867 222.014 168.406C222.959 167.953 223.659 167.182 224.111 166.092C224.586 164.947 224.653 163.871 224.313 162.865C223.991 161.866 223.301 161.05 222.243 160.418L223.105 158.34C224.187 158.917 225.019 159.65 225.602 160.541C226.196 161.457 226.518 162.456 226.568 163.537C226.609 164.636 226.397 165.75 225.929 166.876C225.454 168.022 224.814 168.937 224.01 169.622C223.199 170.325 222.268 170.741 221.219 170.87C220.162 171.017 219.07 170.857 217.942 170.391L211.344 167.663L210.551 169.575L208.582 168.761L210.215 164.826L214.734 166.695C213.461 165.692 212.601 164.45 212.156 162.967C211.728 161.492 211.837 159.978 212.481 158.426ZM213.864 160.102C213.45 161.1 213.309 162.091 213.442 163.077C213.585 164.088 213.949 164.985 214.534 165.768C215.137 166.558 215.891 167.141 216.797 167.515L217.894 168.002C217.78 167.651 217.763 167.222 217.844 166.715C217.917 166.225 218.083 165.591 218.341 164.81C218.357 164.773 218.367 164.723 218.371 164.66C218.394 164.605 218.413 164.559 218.429 164.522C219.009 162.706 219.231 161.283 219.096 160.253C218.979 159.23 218.458 158.528 217.534 158.146C216.739 157.817 216.018 157.833 215.371 158.193C214.742 158.561 214.24 159.197 213.864 160.102Z" fill="#151515"/>
<path d="M218.378 181.34L217.043 183.334L213.125 180.721C214.123 181.819 214.751 183.019 215.01 184.322C215.275 185.653 215.029 186.883 214.272 188.013C213.705 188.861 213.044 189.453 212.288 189.791C211.538 190.156 210.719 190.247 209.831 190.063C208.949 189.908 208.017 189.502 207.035 188.847L206.187 188.282L207.505 186.312L208.004 186.645C209.003 187.311 209.935 187.572 210.801 187.429C211.656 187.302 212.384 186.789 212.985 185.892C213.441 185.211 213.653 184.462 213.621 183.648C213.605 182.844 213.376 182.054 212.933 181.278C212.478 180.518 211.844 179.866 211.028 179.322L204.564 175.011L205.899 173.016L218.378 181.34Z" fill="#151515"/>
<path d="M190.798 191.557C191.846 190.511 193.035 189.805 194.365 189.437C195.696 189.07 197.019 189.049 198.336 189.374C199.652 189.727 200.827 190.419 201.86 191.451C202.922 192.511 203.622 193.705 203.962 195.033C204.316 196.375 204.309 197.71 203.941 199.039C203.573 200.367 202.865 201.554 201.818 202.599C200.784 203.631 199.609 204.323 198.293 204.676C196.963 205.044 195.632 205.044 194.302 204.676C192.971 204.337 191.789 203.652 190.756 202.621C190.728 202.592 190.692 202.557 190.65 202.515C190.607 202.472 190.572 202.437 190.544 202.409L200.034 192.935C199.298 192.256 198.463 191.804 197.529 191.578C196.609 191.366 195.689 191.38 194.769 191.621C193.849 191.889 193.028 192.384 192.306 193.104C191.513 193.895 190.989 194.771 190.735 195.732C190.494 196.707 190.551 197.597 190.904 198.403L189.1 200.204C188.604 199.455 188.328 198.572 188.272 197.555C188.215 196.566 188.392 195.542 188.803 194.482C189.227 193.436 189.892 192.461 190.798 191.557ZM192.582 201.222C193.318 201.9 194.146 202.345 195.066 202.557C196 202.783 196.927 202.762 197.847 202.493C198.767 202.253 199.581 201.78 200.289 201.073C200.997 200.367 201.478 199.547 201.733 198.615C201.987 197.71 202.009 196.785 201.796 195.838C201.584 194.92 201.138 194.093 200.459 193.358L192.582 201.222Z" fill="#151515"/>
<path d="M163.243 217.196C163.76 216.982 164.282 216.908 164.806 216.972C165.331 217.036 165.802 217.231 166.218 217.557C166.635 217.882 166.95 218.304 167.165 218.821C167.38 219.338 167.455 219.859 167.391 220.383C167.327 220.907 167.132 221.377 166.807 221.793C166.481 222.209 166.06 222.524 165.542 222.738C165.043 222.945 164.532 223.015 164.007 222.951C163.482 222.887 163.011 222.692 162.595 222.366C162.16 222.048 161.835 221.631 161.62 221.114C161.406 220.596 161.34 220.072 161.422 219.54C161.486 219.016 161.681 218.546 162.006 218.13C162.332 217.714 162.744 217.403 163.243 217.196Z" fill="#151515"/>
</g>
<defs>
<clipPath id="clip0_1_67">
<rect width="250" height="250" fill="white"/>
</clipPath>
</defs>
</svg>
