<svg width="96" height="96" viewBox="0 0 96 96" fill="none" xmlns="http://www.w3.org/2000/svg">
<mask id="path-1-inside-1_1_78" fill="white">
<path d="M10.179 76.154C13.018 80.009 16.427 83.42 20.283 86.258C20.346 86.352 20.441 86.417 20.554 86.45C20.873 86.684 21.193 86.914 21.518 87.138C21.579 87.214 21.657 87.279 21.757 87.309C22.246 87.64 22.745 87.956 23.247 88.27C23.313 88.358 23.409 88.416 23.52 88.446C24.328 88.943 25.151 89.417 25.99 89.866C26.033 89.898 26.079 89.923 26.132 89.939C28.446 91.168 30.875 92.208 33.396 93.043C33.431 93.067 33.463 93.095 33.505 93.109C33.561 93.13 33.619 93.139 33.675 93.139C33.676 93.139 33.677 93.138 33.678 93.138C38.262 94.626 43.147 95.44 48.221 95.44C59.751 95.44 70.325 91.284 78.536 84.399C78.633 84.357 78.709 84.29 78.761 84.205C88.968 75.537 95.463 62.626 95.463 48.221C95.463 22.184 74.271 1 48.221 1C22.183 1 1 22.184 1 48.221C1 58.549 4.342 68.106 9.989 75.887C10.021 75.995 10.085 76.089 10.179 76.154ZM20.303 85.025C16.78 82.346 13.652 79.175 11.022 75.614L11.293 74.707L14.59 70.433L19.926 66.496L21.824 66.633L22.2 69.097L20.303 85.025ZM21.567 85.946C21.454 85.866 21.341 85.786 21.229 85.705L23.201 69.149C23.204 69.126 23.196 69.104 23.196 69.081C23.196 69.059 23.202 69.037 23.199 69.015L22.845 66.695L22.915 66.699L23.09 66.711L23.331 67.689L23.54 69.078L21.567 85.946ZM23.786 81.122C23.782 81.141 23.772 81.156 23.77 81.176L23.224 87.068C22.98 86.91 22.731 86.758 22.49 86.596L22.492 86.59C22.496 86.576 22.492 86.563 22.495 86.549C22.498 86.534 22.506 86.522 22.508 86.507L24.54 69.124C24.542 69.102 24.535 69.081 24.535 69.06C24.535 69.038 24.542 69.016 24.538 68.993L24.315 67.518C24.314 67.51 24.308 67.503 24.307 67.496C24.306 67.489 24.308 67.48 24.306 67.473L24.136 66.783L24.678 66.819C24.691 66.82 24.703 66.82 24.715 66.82C24.799 66.82 24.876 66.793 24.946 66.756C24.955 66.751 24.965 66.753 24.973 66.748L28.003 64.913L27.353 70.209L23.793 81.065C23.786 81.084 23.79 81.103 23.786 81.122ZM30.93 90.521C30.933 90.552 30.929 90.582 30.938 90.612L31.092 91.136C29.609 90.541 28.163 89.875 26.76 89.136L26.698 88.073L29.823 82.904L31.224 85.088L30.92 90.443C30.918 90.471 30.927 90.495 30.93 90.521ZM33.381 91.982C33.011 91.856 32.637 91.737 32.271 91.601L31.922 90.413L32.231 84.981C32.232 84.962 32.224 84.947 32.223 84.928C32.222 84.893 32.218 84.86 32.208 84.825C32.2 84.793 32.187 84.764 32.173 84.734C32.165 84.717 32.163 84.698 32.152 84.681L30.23 81.687C30.227 81.683 30.223 81.681 30.22 81.676C30.202 81.651 30.176 81.631 30.153 81.608C30.128 81.584 30.106 81.557 30.077 81.539C30.074 81.536 30.072 81.532 30.068 81.53C30.047 81.517 30.024 81.515 30.002 81.507C29.968 81.491 29.935 81.476 29.898 81.469C29.864 81.463 29.832 81.466 29.798 81.467C29.768 81.467 29.738 81.465 29.708 81.471C29.669 81.479 29.635 81.497 29.6 81.514C29.58 81.523 29.558 81.525 29.539 81.537C29.536 81.54 29.534 81.544 29.53 81.546C29.501 81.566 29.479 81.594 29.454 81.619C29.432 81.642 29.407 81.663 29.39 81.688C29.388 81.693 29.383 81.695 29.381 81.699L25.761 87.687C25.752 87.702 25.752 87.718 25.744 87.733C25.729 87.764 25.719 87.794 25.71 87.827C25.702 87.861 25.697 87.893 25.696 87.929C25.695 87.945 25.688 87.959 25.689 87.976L25.724 88.576C25.201 88.284 24.681 87.987 24.17 87.676L24.758 81.324L28.316 70.474C28.321 70.458 28.318 70.443 28.321 70.427C28.325 70.41 28.335 70.396 28.337 70.378L29.119 64.011C29.119 64.01 29.119 64.01 29.119 64.009L29.676 59.376L32.083 45.982L35.483 33.67L37.91 28.667L41.296 27.111L46.152 25.939L48.947 25.471L53.583 26.81L53.72 26.849L55.866 29.393L56.108 29.68L58.762 35.102L60.585 41.843L60.385 50.463C60.385 50.474 60.39 50.483 60.39 50.494V50.542L61.642 59.814C61.644 59.831 61.653 59.843 61.657 59.859L61.663 59.904L63.518 65.512C63.531 65.55 63.548 65.587 63.57 65.621L64.484 67.074L66.473 70.251L66.785 74.733L66.525 74.286C66.519 74.276 66.509 74.27 66.503 74.261C66.484 74.234 66.461 74.211 66.438 74.188C66.415 74.166 66.393 74.142 66.366 74.125C66.342 74.109 66.315 74.1 66.288 74.088C66.255 74.073 66.222 74.06 66.186 74.053C66.175 74.051 66.166 74.044 66.157 74.043C66.136 74.04 66.116 74.047 66.095 74.047C66.064 74.047 66.033 74.047 66.001 74.053C65.96 74.061 65.923 74.075 65.886 74.092C65.872 74.1 65.857 74.1 65.842 74.108C65.835 74.112 65.831 74.12 65.823 74.125C65.79 74.147 65.762 74.174 65.735 74.203C65.715 74.224 65.696 74.241 65.682 74.265C65.663 74.291 65.652 74.322 65.639 74.352C65.626 74.383 65.614 74.413 65.608 74.446C65.606 74.457 65.598 74.466 65.597 74.477L65.115 78.267L62.735 83.403C62.729 83.417 62.73 83.432 62.725 83.446C62.719 83.461 62.709 83.472 62.705 83.487L61.633 87.599L59.707 88.965L60.513 86.492C60.52 86.471 60.516 86.45 60.52 86.43C60.527 86.397 60.532 86.365 60.532 86.33C60.532 86.295 60.525 86.263 60.517 86.229C60.512 86.208 60.516 86.188 60.508 86.167C60.504 86.157 60.496 86.15 60.492 86.141C60.477 86.109 60.458 86.08 60.437 86.052C60.419 86.028 60.404 86.002 60.382 85.982C60.359 85.959 60.331 85.942 60.302 85.924C60.276 85.906 60.25 85.889 60.221 85.877C60.21 85.873 60.202 85.864 60.191 85.86C60.17 85.853 60.147 85.856 60.125 85.852C60.094 85.846 60.063 85.841 60.029 85.841C59.996 85.842 59.965 85.848 59.931 85.856C59.91 85.86 59.888 85.857 59.868 85.865L54.277 87.873L55.386 86.137C55.388 86.136 55.388 86.134 55.388 86.133C55.419 86.083 55.443 86.028 55.455 85.967L56.147 82.549C56.153 82.523 56.146 82.498 56.147 82.473C56.149 82.438 56.153 82.405 56.147 82.369C56.141 82.332 56.126 82.298 56.111 82.264C56.102 82.243 56.101 82.219 56.089 82.199L53.583 77.89L52.127 70.674L51.987 69.872L53.1 63.976L53.954 61.811L55.11 60.818C55.145 60.789 55.167 60.752 55.19 60.715C55.198 60.703 55.211 60.699 55.219 60.687L56.381 58.654C56.39 58.64 56.39 58.625 56.397 58.61C56.4 58.602 56.409 58.598 56.413 58.59L57.462 55.954L58.915 52.266C58.92 52.255 58.918 52.245 58.921 52.234C58.923 52.228 58.93 52.225 58.931 52.219L59.913 48.755C59.921 48.727 59.917 48.699 59.92 48.671C59.923 48.644 59.933 48.618 59.932 48.59L59.754 45.417C59.753 45.392 59.74 45.369 59.735 45.345C59.729 45.319 59.731 45.292 59.721 45.267L59.135 43.739L59.35 40.677C59.352 40.65 59.342 40.624 59.34 40.598C59.338 40.568 59.342 40.538 59.334 40.508L57.836 35.102C57.834 35.095 57.83 35.091 57.828 35.085C57.817 35.052 57.798 35.023 57.781 34.992C57.764 34.965 57.752 34.936 57.731 34.912C57.726 34.907 57.725 34.899 57.72 34.894L55.351 32.347C55.336 32.331 55.318 32.325 55.302 32.312C55.275 32.29 55.249 32.269 55.22 32.252C55.189 32.235 55.156 32.226 55.122 32.216C55.103 32.21 55.087 32.197 55.067 32.195L50.745 31.466C50.737 31.463 50.728 31.463 50.72 31.461L50.69 31.456C50.671 31.453 50.654 31.459 50.635 31.458C50.603 31.457 50.573 31.448 50.539 31.454L46.74 31.97C46.719 31.973 46.702 31.985 46.682 31.991C46.658 31.997 46.633 31.996 46.609 32.007L43.146 33.503C43.126 33.512 43.113 33.528 43.094 33.539C43.065 33.557 43.036 33.573 43.011 33.597C42.985 33.62 42.964 33.648 42.944 33.677C42.932 33.694 42.915 33.705 42.904 33.724L41.071 37.101L39.604 38.896C39.603 38.898 39.602 38.901 39.601 38.903C39.58 38.928 39.57 38.961 39.555 38.99C39.539 39.021 39.52 39.05 39.511 39.083C39.511 39.085 39.508 39.087 39.508 39.09L38.581 42.73L37.973 44.031L37.269 43.185C37.263 43.177 37.253 43.174 37.247 43.166C37.224 43.142 37.197 43.123 37.17 43.104C37.143 43.084 37.117 43.064 37.087 43.051C37.063 43.04 37.037 43.035 37.011 43.029C36.974 43.019 36.938 43.009 36.9 43.008C36.875 43.007 36.85 43.013 36.825 43.016C36.786 43.02 36.75 43.025 36.713 43.038C36.704 43.042 36.695 43.04 36.686 43.044L34.832 43.849C34.823 43.853 34.817 43.861 34.808 43.866C34.777 43.882 34.752 43.902 34.725 43.925C34.7 43.945 34.675 43.962 34.655 43.986C34.636 44.008 34.623 44.035 34.608 44.061C34.59 44.092 34.572 44.122 34.561 44.156C34.558 44.165 34.551 44.172 34.548 44.181L33.743 47.218C33.739 47.232 33.743 47.245 33.741 47.259C33.735 47.291 33.734 47.323 33.735 47.358C33.735 47.393 33.738 47.425 33.746 47.459C33.749 47.473 33.746 47.485 33.75 47.499L34.644 50.292C34.646 50.301 34.655 50.304 34.659 50.312C34.689 50.392 34.74 50.461 34.808 50.518C34.821 50.53 34.83 50.541 34.845 50.551C34.853 50.557 34.858 50.566 34.867 50.571L36.012 51.245L35.687 52.028C35.678 52.05 35.679 52.074 35.673 52.096C35.664 52.13 35.655 52.162 35.653 52.198C35.652 52.234 35.658 52.267 35.664 52.302C35.668 52.325 35.664 52.348 35.672 52.371L36.171 53.914C36.196 53.992 36.253 54.047 36.308 54.102C36.327 54.122 36.333 54.151 36.354 54.166C36.438 54.227 36.541 54.262 36.647 54.262C36.695 54.262 36.744 54.255 36.793 54.241L38.594 53.691L38.732 54.756L37.426 62.368C37.424 62.382 37.428 62.394 37.427 62.408C37.424 62.441 37.427 62.473 37.43 62.507C37.434 62.541 37.439 62.574 37.449 62.606C37.453 62.62 37.451 62.632 37.457 62.645L38.563 65.321L40.248 71.175L39.921 71.902C39.921 71.904 39.921 71.905 39.92 71.907C39.919 71.908 39.918 71.909 39.917 71.911L39.458 72.985L38.875 70.581C38.874 70.577 38.871 70.574 38.87 70.569C38.86 70.531 38.839 70.498 38.821 70.464C38.808 70.442 38.8 70.416 38.785 70.397C38.76 70.364 38.726 70.339 38.693 70.314C38.676 70.3 38.663 70.284 38.645 70.273C38.609 70.252 38.568 70.241 38.527 70.229C38.505 70.223 38.485 70.211 38.462 70.208C38.456 70.207 38.45 70.203 38.444 70.202C38.404 70.197 38.368 70.207 38.33 70.211C38.31 70.214 38.291 70.209 38.271 70.213C38.268 70.214 38.266 70.216 38.263 70.217C38.21 70.231 38.163 70.255 38.118 70.284C38.109 70.291 38.097 70.293 38.088 70.3C38.051 70.328 38.023 70.365 37.994 70.404C37.983 70.419 37.969 70.43 37.959 70.446C37.943 70.473 37.936 70.506 37.925 70.537C37.913 70.569 37.9 70.599 37.895 70.633C37.895 70.638 37.892 70.641 37.891 70.646L36.491 83.412L33.381 91.982ZM50.993 69.864C50.993 69.895 50.985 69.926 50.991 69.957L51.102 70.602L46.852 75.021L44.803 76.306L40.967 72.015L41.236 71.417C41.246 71.395 41.245 71.371 41.252 71.348C41.262 71.315 41.273 71.283 41.275 71.248C41.277 71.211 41.272 71.177 41.266 71.142C41.263 71.12 41.267 71.096 41.261 71.074L39.518 65.018C39.515 65.008 39.508 65.001 39.505 64.993C39.502 64.985 39.504 64.974 39.5 64.966L38.438 62.397L39.573 55.781L42.691 58.771C42.71 58.789 42.733 58.796 42.753 58.811C42.77 58.823 42.781 58.84 42.8 58.85L46.264 60.705C46.275 60.711 46.288 60.709 46.3 60.714C46.318 60.722 46.33 60.735 46.349 60.741L50.281 61.993C50.332 62.009 50.383 62.016 50.433 62.016H52.804L52.158 63.655C52.152 63.671 52.154 63.687 52.15 63.704C52.145 63.719 52.135 63.73 52.132 63.746L50.992 69.779C50.987 69.808 50.993 69.836 50.993 69.864ZM37.253 50.493L36.767 50.525L35.545 49.806L34.754 47.334L35.46 44.672L36.748 44.113L37.716 45.276C37.718 45.278 37.721 45.279 37.722 45.281C37.767 45.334 37.822 45.379 37.889 45.41C37.938 45.433 37.993 45.439 38.046 45.445C38.064 45.447 38.081 45.457 38.099 45.457C38.181 45.457 38.26 45.43 38.334 45.39C38.349 45.381 38.363 45.374 38.378 45.365C38.391 45.356 38.406 45.352 38.418 45.343C38.475 45.296 38.516 45.239 38.546 45.176C38.547 45.174 38.55 45.173 38.551 45.17L39.511 43.114C39.521 43.093 39.52 43.07 39.527 43.049C39.53 43.039 39.54 43.035 39.543 43.026L40.455 39.447L41.881 37.701C41.894 37.684 41.898 37.665 41.909 37.647C41.915 37.637 41.927 37.633 41.933 37.623L43.706 34.356L46.948 32.955L50.601 32.46L54.738 33.157L56.909 35.491L58.35 40.697L58.132 43.784C58.132 43.787 58.134 43.789 58.134 43.792C58.132 43.826 58.142 43.861 58.148 43.896C58.152 43.928 58.152 43.96 58.164 43.99C58.164 43.993 58.164 43.996 58.165 43.999L58.764 45.558L58.932 48.568L57.98 51.926L56.536 55.591C56.535 55.592 56.536 55.593 56.535 55.594L55.501 58.192L54.397 60.122L53.353 61.018H50.51L46.693 59.803L43.334 58.003L39.71 54.528L39.377 51.957C39.377 51.956 39.377 51.955 39.376 51.955C39.372 51.919 39.354 51.886 39.341 51.851C39.33 51.822 39.325 51.79 39.31 51.765C39.31 51.764 39.31 51.763 39.309 51.762L38.593 50.576C38.591 50.573 38.588 50.571 38.585 50.567C38.572 50.546 38.552 50.533 38.537 50.514C38.421 50.381 38.252 50.314 38.083 50.342C38.08 50.343 38.078 50.342 38.075 50.342L37.253 50.493ZM37.85 52.872L36.975 53.139L36.688 52.243L36.991 51.514L37.168 51.502L37.493 51.742L37.85 52.872ZM48.221 94.44C43.382 94.44 38.716 93.689 34.329 92.303L37.453 83.694C37.459 83.675 37.457 83.658 37.461 83.639C37.466 83.618 37.477 83.6 37.48 83.577L38.577 73.583L38.843 74.681C38.846 74.695 38.854 74.704 38.859 74.717C38.867 74.741 38.877 74.763 38.889 74.785C38.906 74.818 38.925 74.848 38.948 74.876C38.963 74.895 38.978 74.911 38.996 74.928C39.027 74.956 39.06 74.978 39.098 74.997C39.111 75.005 39.12 75.017 39.134 75.022C39.139 75.024 39.145 75.023 39.15 75.025C39.207 75.047 39.267 75.062 39.33 75.062C39.369 75.062 39.408 75.057 39.448 75.048C39.494 75.037 39.531 75.013 39.571 74.99C39.584 74.983 39.598 74.98 39.61 74.971C39.683 74.921 39.736 74.855 39.774 74.777C39.778 74.769 39.787 74.765 39.791 74.757L40.532 73.022L44.342 77.284C44.368 77.313 44.403 77.329 44.433 77.35C44.454 77.365 44.472 77.383 44.495 77.395C44.564 77.429 44.638 77.451 44.714 77.451C44.714 77.451 44.714 77.451 44.715 77.451C44.796 77.451 44.874 77.424 44.947 77.384C44.957 77.379 44.969 77.381 44.979 77.375L47.437 75.834C47.456 75.822 47.467 75.804 47.484 75.79C47.499 75.777 47.518 75.771 47.532 75.757L51.339 71.798L52.625 78.167C52.634 78.211 52.653 78.248 52.672 78.286C52.677 78.297 52.677 78.308 52.683 78.319L52.689 78.328C52.689 78.329 52.69 78.33 52.69 78.331L55.136 82.535L54.499 85.677L52.649 88.57C52.643 88.58 52.643 88.591 52.637 88.6C52.621 88.63 52.612 88.662 52.601 88.695C52.592 88.725 52.582 88.754 52.579 88.784C52.575 88.815 52.579 88.846 52.581 88.877C52.584 88.911 52.587 88.944 52.596 88.978C52.599 88.988 52.597 88.999 52.601 89.009C52.605 89.021 52.617 89.026 52.622 89.036C52.654 89.111 52.702 89.178 52.77 89.23C52.78 89.237 52.785 89.247 52.793 89.252C52.797 89.254 52.799 89.258 52.801 89.26C52.885 89.314 52.978 89.339 53.071 89.339C53.128 89.339 53.184 89.329 53.24 89.31L59.25 87.152L58.293 90.091C58.289 90.104 58.292 90.115 58.288 90.128C58.28 90.16 58.278 90.192 58.277 90.227C58.276 90.259 58.274 90.29 58.279 90.322C58.284 90.352 58.294 90.38 58.304 90.409C58.315 90.442 58.327 90.473 58.346 90.504C58.352 90.515 58.353 90.526 58.36 90.536C58.37 90.549 58.383 90.554 58.393 90.565C58.426 90.602 58.462 90.634 58.506 90.662C58.528 90.677 58.55 90.69 58.574 90.701C58.588 90.707 58.597 90.718 58.613 90.722C58.664 90.739 58.717 90.746 58.767 90.746C58.868 90.746 58.968 90.716 59.056 90.654L62.364 88.308C62.367 88.306 62.369 88.302 62.373 88.299C62.379 88.294 62.383 88.287 62.389 88.281C62.465 88.219 62.515 88.137 62.543 88.05C62.547 88.04 62.557 88.035 62.559 88.026L63.665 83.779L66.059 78.614C66.067 78.595 66.066 78.576 66.073 78.557C66.083 78.527 66.097 78.499 66.101 78.467L66.407 76.064L67.007 77.091C67.013 77.102 67.025 77.106 67.031 77.115C67.067 77.169 67.113 77.214 67.167 77.249C67.185 77.261 67.199 77.272 67.218 77.281C67.285 77.314 67.359 77.339 67.439 77.339C67.451 77.339 67.462 77.339 67.474 77.338C67.549 77.333 67.618 77.308 67.679 77.274C67.683 77.272 67.687 77.273 67.691 77.271C67.712 77.259 67.724 77.24 67.744 77.224C67.773 77.202 67.803 77.18 67.826 77.152C67.846 77.127 67.858 77.098 67.873 77.07C67.889 77.042 67.905 77.015 67.915 76.983C67.926 76.95 67.926 76.915 67.929 76.88C67.931 76.854 67.941 76.83 67.939 76.804L67.469 70.057C67.469 70.049 67.464 70.043 67.463 70.036C67.459 70.002 67.446 69.971 67.436 69.938C67.426 69.908 67.418 69.876 67.403 69.85C67.399 69.842 67.399 69.833 67.394 69.827L66.686 68.695L70.321 71.303C70.352 71.325 70.385 71.344 70.422 71.359L74.165 72.903L77.755 83.756C69.734 90.424 59.439 94.44 48.221 94.44ZM48.221 2C73.719 2 94.463 22.734 94.463 48.221C94.463 62.105 88.298 74.57 78.569 83.049L75.038 72.373C75.036 72.367 75.031 72.363 75.028 72.356C75.016 72.324 74.996 72.295 74.977 72.266C74.961 72.242 74.951 72.214 74.932 72.194C74.929 72.191 74.926 72.188 74.923 72.185C74.907 72.169 74.887 72.159 74.868 72.145C74.835 72.119 74.803 72.092 74.764 72.075C74.76 72.074 74.757 72.07 74.753 72.068L70.853 70.459L65.283 66.461L65.231 66.379L64.452 65.142L64.449 65.131L62.631 59.637L61.391 50.449L61.592 41.798C61.593 41.75 61.587 41.702 61.574 41.655L59.719 34.796C59.715 34.781 59.704 34.771 59.699 34.757L59.685 34.707L56.983 29.187C56.964 29.15 56.943 29.116 56.916 29.084L54.391 26.09C54.381 26.078 54.367 26.072 54.356 26.062C54.332 26.038 54.306 26.018 54.278 26C54.249 25.981 54.22 25.966 54.189 25.954C54.174 25.948 54.164 25.937 54.148 25.933L49.121 24.482C49.118 24.481 49.114 24.482 49.111 24.481C49.079 24.472 49.046 24.475 49.013 24.472C48.978 24.47 48.944 24.464 48.91 24.469C48.907 24.47 48.904 24.468 48.9 24.469L45.972 24.959C45.971 24.959 45.969 24.961 45.967 24.961L45.937 24.966L41.022 26.152C41.005 26.156 40.993 26.168 40.977 26.173L40.931 26.185L37.334 27.837C37.313 27.847 37.3 27.863 37.282 27.875C37.252 27.894 37.222 27.912 37.196 27.937C37.171 27.962 37.152 27.991 37.133 28.02C37.121 28.039 37.103 28.052 37.093 28.073L34.568 33.279C34.562 33.292 34.563 33.305 34.558 33.318L34.536 33.364L31.117 45.744C31.116 45.747 31.117 45.75 31.117 45.753L31.107 45.788L28.691 59.214C28.691 59.215 28.691 59.217 28.691 59.218L28.687 59.243L28.158 63.648L24.593 65.807L24.578 65.806L23.523 65.729C23.521 65.729 23.519 65.73 23.517 65.73C23.516 65.73 23.515 65.729 23.514 65.729L23.118 65.708L19.815 65.485C19.777 65.482 19.742 65.491 19.706 65.497C19.689 65.499 19.672 65.498 19.655 65.502C19.644 65.505 19.633 65.509 19.622 65.513C19.619 65.514 19.616 65.517 19.612 65.518C19.567 65.535 19.522 65.553 19.483 65.582L13.941 69.67C13.904 69.697 13.87 69.731 13.842 69.767L10.446 74.169C10.408 74.218 10.381 74.273 10.363 74.332L10.359 74.347L10.29 74.581C5.07 67.099 2 58.014 2 48.221C2 22.734 22.734 2 48.221 2Z"/>
</mask>
<path d="M10.179 76.154C13.018 80.009 16.427 83.42 20.283 86.258C20.346 86.352 20.441 86.417 20.554 86.45C20.873 86.684 21.193 86.914 21.518 87.138C21.579 87.214 21.657 87.279 21.757 87.309C22.246 87.64 22.745 87.956 23.247 88.27C23.313 88.358 23.409 88.416 23.52 88.446C24.328 88.943 25.151 89.417 25.99 89.866C26.033 89.898 26.079 89.923 26.132 89.939C28.446 91.168 30.875 92.208 33.396 93.043C33.431 93.067 33.463 93.095 33.505 93.109C33.561 93.13 33.619 93.139 33.675 93.139C33.676 93.139 33.677 93.138 33.678 93.138C38.262 94.626 43.147 95.44 48.221 95.44C59.751 95.44 70.325 91.284 78.536 84.399C78.633 84.357 78.709 84.29 78.761 84.205C88.968 75.537 95.463 62.626 95.463 48.221C95.463 22.184 74.271 1 48.221 1C22.183 1 1 22.184 1 48.221C1 58.549 4.342 68.106 9.989 75.887C10.021 75.995 10.085 76.089 10.179 76.154ZM20.303 85.025C16.78 82.346 13.652 79.175 11.022 75.614L11.293 74.707L14.59 70.433L19.926 66.496L21.824 66.633L22.2 69.097L20.303 85.025ZM21.567 85.946C21.454 85.866 21.341 85.786 21.229 85.705L23.201 69.149C23.204 69.126 23.196 69.104 23.196 69.081C23.196 69.059 23.202 69.037 23.199 69.015L22.845 66.695L22.915 66.699L23.09 66.711L23.331 67.689L23.54 69.078L21.567 85.946ZM23.786 81.122C23.782 81.141 23.772 81.156 23.77 81.176L23.224 87.068C22.98 86.91 22.731 86.758 22.49 86.596L22.492 86.59C22.496 86.576 22.492 86.563 22.495 86.549C22.498 86.534 22.506 86.522 22.508 86.507L24.54 69.124C24.542 69.102 24.535 69.081 24.535 69.06C24.535 69.038 24.542 69.016 24.538 68.993L24.315 67.518C24.314 67.51 24.308 67.503 24.307 67.496C24.306 67.489 24.308 67.48 24.306 67.473L24.136 66.783L24.678 66.819C24.691 66.82 24.703 66.82 24.715 66.82C24.799 66.82 24.876 66.793 24.946 66.756C24.955 66.751 24.965 66.753 24.973 66.748L28.003 64.913L27.353 70.209L23.793 81.065C23.786 81.084 23.79 81.103 23.786 81.122ZM30.93 90.521C30.933 90.552 30.929 90.582 30.938 90.612L31.092 91.136C29.609 90.541 28.163 89.875 26.76 89.136L26.698 88.073L29.823 82.904L31.224 85.088L30.92 90.443C30.918 90.471 30.927 90.495 30.93 90.521ZM33.381 91.982C33.011 91.856 32.637 91.737 32.271 91.601L31.922 90.413L32.231 84.981C32.232 84.962 32.224 84.947 32.223 84.928C32.222 84.893 32.218 84.86 32.208 84.825C32.2 84.793 32.187 84.764 32.173 84.734C32.165 84.717 32.163 84.698 32.152 84.681L30.23 81.687C30.227 81.683 30.223 81.681 30.22 81.676C30.202 81.651 30.176 81.631 30.153 81.608C30.128 81.584 30.106 81.557 30.077 81.539C30.074 81.536 30.072 81.532 30.068 81.53C30.047 81.517 30.024 81.515 30.002 81.507C29.968 81.491 29.935 81.476 29.898 81.469C29.864 81.463 29.832 81.466 29.798 81.467C29.768 81.467 29.738 81.465 29.708 81.471C29.669 81.479 29.635 81.497 29.6 81.514C29.58 81.523 29.558 81.525 29.539 81.537C29.536 81.54 29.534 81.544 29.53 81.546C29.501 81.566 29.479 81.594 29.454 81.619C29.432 81.642 29.407 81.663 29.39 81.688C29.388 81.693 29.383 81.695 29.381 81.699L25.761 87.687C25.752 87.702 25.752 87.718 25.744 87.733C25.729 87.764 25.719 87.794 25.71 87.827C25.702 87.861 25.697 87.893 25.696 87.929C25.695 87.945 25.688 87.959 25.689 87.976L25.724 88.576C25.201 88.284 24.681 87.987 24.17 87.676L24.758 81.324L28.316 70.474C28.321 70.458 28.318 70.443 28.321 70.427C28.325 70.41 28.335 70.396 28.337 70.378L29.119 64.011C29.119 64.01 29.119 64.01 29.119 64.009L29.676 59.376L32.083 45.982L35.483 33.67L37.91 28.667L41.296 27.111L46.152 25.939L48.947 25.471L53.583 26.81L53.72 26.849L55.866 29.393L56.108 29.68L58.762 35.102L60.585 41.843L60.385 50.463C60.385 50.474 60.39 50.483 60.39 50.494V50.542L61.642 59.814C61.644 59.831 61.653 59.843 61.657 59.859L61.663 59.904L63.518 65.512C63.531 65.55 63.548 65.587 63.57 65.621L64.484 67.074L66.473 70.251L66.785 74.733L66.525 74.286C66.519 74.276 66.509 74.27 66.503 74.261C66.484 74.234 66.461 74.211 66.438 74.188C66.415 74.166 66.393 74.142 66.366 74.125C66.342 74.109 66.315 74.1 66.288 74.088C66.255 74.073 66.222 74.06 66.186 74.053C66.175 74.051 66.166 74.044 66.157 74.043C66.136 74.04 66.116 74.047 66.095 74.047C66.064 74.047 66.033 74.047 66.001 74.053C65.96 74.061 65.923 74.075 65.886 74.092C65.872 74.1 65.857 74.1 65.842 74.108C65.835 74.112 65.831 74.12 65.823 74.125C65.79 74.147 65.762 74.174 65.735 74.203C65.715 74.224 65.696 74.241 65.682 74.265C65.663 74.291 65.652 74.322 65.639 74.352C65.626 74.383 65.614 74.413 65.608 74.446C65.606 74.457 65.598 74.466 65.597 74.477L65.115 78.267L62.735 83.403C62.729 83.417 62.73 83.432 62.725 83.446C62.719 83.461 62.709 83.472 62.705 83.487L61.633 87.599L59.707 88.965L60.513 86.492C60.52 86.471 60.516 86.45 60.52 86.43C60.527 86.397 60.532 86.365 60.532 86.33C60.532 86.295 60.525 86.263 60.517 86.229C60.512 86.208 60.516 86.188 60.508 86.167C60.504 86.157 60.496 86.15 60.492 86.141C60.477 86.109 60.458 86.08 60.437 86.052C60.419 86.028 60.404 86.002 60.382 85.982C60.359 85.959 60.331 85.942 60.302 85.924C60.276 85.906 60.25 85.889 60.221 85.877C60.21 85.873 60.202 85.864 60.191 85.86C60.17 85.853 60.147 85.856 60.125 85.852C60.094 85.846 60.063 85.841 60.029 85.841C59.996 85.842 59.965 85.848 59.931 85.856C59.91 85.86 59.888 85.857 59.868 85.865L54.277 87.873L55.386 86.137C55.388 86.136 55.388 86.134 55.388 86.133C55.419 86.083 55.443 86.028 55.455 85.967L56.147 82.549C56.153 82.523 56.146 82.498 56.147 82.473C56.149 82.438 56.153 82.405 56.147 82.369C56.141 82.332 56.126 82.298 56.111 82.264C56.102 82.243 56.101 82.219 56.089 82.199L53.583 77.89L52.127 70.674L51.987 69.872L53.1 63.976L53.954 61.811L55.11 60.818C55.145 60.789 55.167 60.752 55.19 60.715C55.198 60.703 55.211 60.699 55.219 60.687L56.381 58.654C56.39 58.64 56.39 58.625 56.397 58.61C56.4 58.602 56.409 58.598 56.413 58.59L57.462 55.954L58.915 52.266C58.92 52.255 58.918 52.245 58.921 52.234C58.923 52.228 58.93 52.225 58.931 52.219L59.913 48.755C59.921 48.727 59.917 48.699 59.92 48.671C59.923 48.644 59.933 48.618 59.932 48.59L59.754 45.417C59.753 45.392 59.74 45.369 59.735 45.345C59.729 45.319 59.731 45.292 59.721 45.267L59.135 43.739L59.35 40.677C59.352 40.65 59.342 40.624 59.34 40.598C59.338 40.568 59.342 40.538 59.334 40.508L57.836 35.102C57.834 35.095 57.83 35.091 57.828 35.085C57.817 35.052 57.798 35.023 57.781 34.992C57.764 34.965 57.752 34.936 57.731 34.912C57.726 34.907 57.725 34.899 57.72 34.894L55.351 32.347C55.336 32.331 55.318 32.325 55.302 32.312C55.275 32.29 55.249 32.269 55.22 32.252C55.189 32.235 55.156 32.226 55.122 32.216C55.103 32.21 55.087 32.197 55.067 32.195L50.745 31.466C50.737 31.463 50.728 31.463 50.72 31.461L50.69 31.456C50.671 31.453 50.654 31.459 50.635 31.458C50.603 31.457 50.573 31.448 50.539 31.454L46.74 31.97C46.719 31.973 46.702 31.985 46.682 31.991C46.658 31.997 46.633 31.996 46.609 32.007L43.146 33.503C43.126 33.512 43.113 33.528 43.094 33.539C43.065 33.557 43.036 33.573 43.011 33.597C42.985 33.62 42.964 33.648 42.944 33.677C42.932 33.694 42.915 33.705 42.904 33.724L41.071 37.101L39.604 38.896C39.603 38.898 39.602 38.901 39.601 38.903C39.58 38.928 39.57 38.961 39.555 38.99C39.539 39.021 39.52 39.05 39.511 39.083C39.511 39.085 39.508 39.087 39.508 39.09L38.581 42.73L37.973 44.031L37.269 43.185C37.263 43.177 37.253 43.174 37.247 43.166C37.224 43.142 37.197 43.123 37.17 43.104C37.143 43.084 37.117 43.064 37.087 43.051C37.063 43.04 37.037 43.035 37.011 43.029C36.974 43.019 36.938 43.009 36.9 43.008C36.875 43.007 36.85 43.013 36.825 43.016C36.786 43.02 36.75 43.025 36.713 43.038C36.704 43.042 36.695 43.04 36.686 43.044L34.832 43.849C34.823 43.853 34.817 43.861 34.808 43.866C34.777 43.882 34.752 43.902 34.725 43.925C34.7 43.945 34.675 43.962 34.655 43.986C34.636 44.008 34.623 44.035 34.608 44.061C34.59 44.092 34.572 44.122 34.561 44.156C34.558 44.165 34.551 44.172 34.548 44.181L33.743 47.218C33.739 47.232 33.743 47.245 33.741 47.259C33.735 47.291 33.734 47.323 33.735 47.358C33.735 47.393 33.738 47.425 33.746 47.459C33.749 47.473 33.746 47.485 33.75 47.499L34.644 50.292C34.646 50.301 34.655 50.304 34.659 50.312C34.689 50.392 34.74 50.461 34.808 50.518C34.821 50.53 34.83 50.541 34.845 50.551C34.853 50.557 34.858 50.566 34.867 50.571L36.012 51.245L35.687 52.028C35.678 52.05 35.679 52.074 35.673 52.096C35.664 52.13 35.655 52.162 35.653 52.198C35.652 52.234 35.658 52.267 35.664 52.302C35.668 52.325 35.664 52.348 35.672 52.371L36.171 53.914C36.196 53.992 36.253 54.047 36.308 54.102C36.327 54.122 36.333 54.151 36.354 54.166C36.438 54.227 36.541 54.262 36.647 54.262C36.695 54.262 36.744 54.255 36.793 54.241L38.594 53.691L38.732 54.756L37.426 62.368C37.424 62.382 37.428 62.394 37.427 62.408C37.424 62.441 37.427 62.473 37.43 62.507C37.434 62.541 37.439 62.574 37.449 62.606C37.453 62.62 37.451 62.632 37.457 62.645L38.563 65.321L40.248 71.175L39.921 71.902C39.921 71.904 39.921 71.905 39.92 71.907C39.919 71.908 39.918 71.909 39.917 71.911L39.458 72.985L38.875 70.581C38.874 70.577 38.871 70.574 38.87 70.569C38.86 70.531 38.839 70.498 38.821 70.464C38.808 70.442 38.8 70.416 38.785 70.397C38.76 70.364 38.726 70.339 38.693 70.314C38.676 70.3 38.663 70.284 38.645 70.273C38.609 70.252 38.568 70.241 38.527 70.229C38.505 70.223 38.485 70.211 38.462 70.208C38.456 70.207 38.45 70.203 38.444 70.202C38.404 70.197 38.368 70.207 38.33 70.211C38.31 70.214 38.291 70.209 38.271 70.213C38.268 70.214 38.266 70.216 38.263 70.217C38.21 70.231 38.163 70.255 38.118 70.284C38.109 70.291 38.097 70.293 38.088 70.3C38.051 70.328 38.023 70.365 37.994 70.404C37.983 70.419 37.969 70.43 37.959 70.446C37.943 70.473 37.936 70.506 37.925 70.537C37.913 70.569 37.9 70.599 37.895 70.633C37.895 70.638 37.892 70.641 37.891 70.646L36.491 83.412L33.381 91.982ZM50.993 69.864C50.993 69.895 50.985 69.926 50.991 69.957L51.102 70.602L46.852 75.021L44.803 76.306L40.967 72.015L41.236 71.417C41.246 71.395 41.245 71.371 41.252 71.348C41.262 71.315 41.273 71.283 41.275 71.248C41.277 71.211 41.272 71.177 41.266 71.142C41.263 71.12 41.267 71.096 41.261 71.074L39.518 65.018C39.515 65.008 39.508 65.001 39.505 64.993C39.502 64.985 39.504 64.974 39.5 64.966L38.438 62.397L39.573 55.781L42.691 58.771C42.71 58.789 42.733 58.796 42.753 58.811C42.77 58.823 42.781 58.84 42.8 58.85L46.264 60.705C46.275 60.711 46.288 60.709 46.3 60.714C46.318 60.722 46.33 60.735 46.349 60.741L50.281 61.993C50.332 62.009 50.383 62.016 50.433 62.016H52.804L52.158 63.655C52.152 63.671 52.154 63.687 52.15 63.704C52.145 63.719 52.135 63.73 52.132 63.746L50.992 69.779C50.987 69.808 50.993 69.836 50.993 69.864ZM37.253 50.493L36.767 50.525L35.545 49.806L34.754 47.334L35.46 44.672L36.748 44.113L37.716 45.276C37.718 45.278 37.721 45.279 37.722 45.281C37.767 45.334 37.822 45.379 37.889 45.41C37.938 45.433 37.993 45.439 38.046 45.445C38.064 45.447 38.081 45.457 38.099 45.457C38.181 45.457 38.26 45.43 38.334 45.39C38.349 45.381 38.363 45.374 38.378 45.365C38.391 45.356 38.406 45.352 38.418 45.343C38.475 45.296 38.516 45.239 38.546 45.176C38.547 45.174 38.55 45.173 38.551 45.17L39.511 43.114C39.521 43.093 39.52 43.07 39.527 43.049C39.53 43.039 39.54 43.035 39.543 43.026L40.455 39.447L41.881 37.701C41.894 37.684 41.898 37.665 41.909 37.647C41.915 37.637 41.927 37.633 41.933 37.623L43.706 34.356L46.948 32.955L50.601 32.46L54.738 33.157L56.909 35.491L58.35 40.697L58.132 43.784C58.132 43.787 58.134 43.789 58.134 43.792C58.132 43.826 58.142 43.861 58.148 43.896C58.152 43.928 58.152 43.96 58.164 43.99C58.164 43.993 58.164 43.996 58.165 43.999L58.764 45.558L58.932 48.568L57.98 51.926L56.536 55.591C56.535 55.592 56.536 55.593 56.535 55.594L55.501 58.192L54.397 60.122L53.353 61.018H50.51L46.693 59.803L43.334 58.003L39.71 54.528L39.377 51.957C39.377 51.956 39.377 51.955 39.376 51.955C39.372 51.919 39.354 51.886 39.341 51.851C39.33 51.822 39.325 51.79 39.31 51.765C39.31 51.764 39.31 51.763 39.309 51.762L38.593 50.576C38.591 50.573 38.588 50.571 38.585 50.567C38.572 50.546 38.552 50.533 38.537 50.514C38.421 50.381 38.252 50.314 38.083 50.342C38.08 50.343 38.078 50.342 38.075 50.342L37.253 50.493ZM37.85 52.872L36.975 53.139L36.688 52.243L36.991 51.514L37.168 51.502L37.493 51.742L37.85 52.872ZM48.221 94.44C43.382 94.44 38.716 93.689 34.329 92.303L37.453 83.694C37.459 83.675 37.457 83.658 37.461 83.639C37.466 83.618 37.477 83.6 37.48 83.577L38.577 73.583L38.843 74.681C38.846 74.695 38.854 74.704 38.859 74.717C38.867 74.741 38.877 74.763 38.889 74.785C38.906 74.818 38.925 74.848 38.948 74.876C38.963 74.895 38.978 74.911 38.996 74.928C39.027 74.956 39.06 74.978 39.098 74.997C39.111 75.005 39.12 75.017 39.134 75.022C39.139 75.024 39.145 75.023 39.15 75.025C39.207 75.047 39.267 75.062 39.33 75.062C39.369 75.062 39.408 75.057 39.448 75.048C39.494 75.037 39.531 75.013 39.571 74.99C39.584 74.983 39.598 74.98 39.61 74.971C39.683 74.921 39.736 74.855 39.774 74.777C39.778 74.769 39.787 74.765 39.791 74.757L40.532 73.022L44.342 77.284C44.368 77.313 44.403 77.329 44.433 77.35C44.454 77.365 44.472 77.383 44.495 77.395C44.564 77.429 44.638 77.451 44.714 77.451C44.714 77.451 44.714 77.451 44.715 77.451C44.796 77.451 44.874 77.424 44.947 77.384C44.957 77.379 44.969 77.381 44.979 77.375L47.437 75.834C47.456 75.822 47.467 75.804 47.484 75.79C47.499 75.777 47.518 75.771 47.532 75.757L51.339 71.798L52.625 78.167C52.634 78.211 52.653 78.248 52.672 78.286C52.677 78.297 52.677 78.308 52.683 78.319L52.689 78.328C52.689 78.329 52.69 78.33 52.69 78.331L55.136 82.535L54.499 85.677L52.649 88.57C52.643 88.58 52.643 88.591 52.637 88.6C52.621 88.63 52.612 88.662 52.601 88.695C52.592 88.725 52.582 88.754 52.579 88.784C52.575 88.815 52.579 88.846 52.581 88.877C52.584 88.911 52.587 88.944 52.596 88.978C52.599 88.988 52.597 88.999 52.601 89.009C52.605 89.021 52.617 89.026 52.622 89.036C52.654 89.111 52.702 89.178 52.77 89.23C52.78 89.237 52.785 89.247 52.793 89.252C52.797 89.254 52.799 89.258 52.801 89.26C52.885 89.314 52.978 89.339 53.071 89.339C53.128 89.339 53.184 89.329 53.24 89.31L59.25 87.152L58.293 90.091C58.289 90.104 58.292 90.115 58.288 90.128C58.28 90.16 58.278 90.192 58.277 90.227C58.276 90.259 58.274 90.29 58.279 90.322C58.284 90.352 58.294 90.38 58.304 90.409C58.315 90.442 58.327 90.473 58.346 90.504C58.352 90.515 58.353 90.526 58.36 90.536C58.37 90.549 58.383 90.554 58.393 90.565C58.426 90.602 58.462 90.634 58.506 90.662C58.528 90.677 58.55 90.69 58.574 90.701C58.588 90.707 58.597 90.718 58.613 90.722C58.664 90.739 58.717 90.746 58.767 90.746C58.868 90.746 58.968 90.716 59.056 90.654L62.364 88.308C62.367 88.306 62.369 88.302 62.373 88.299C62.379 88.294 62.383 88.287 62.389 88.281C62.465 88.219 62.515 88.137 62.543 88.05C62.547 88.04 62.557 88.035 62.559 88.026L63.665 83.779L66.059 78.614C66.067 78.595 66.066 78.576 66.073 78.557C66.083 78.527 66.097 78.499 66.101 78.467L66.407 76.064L67.007 77.091C67.013 77.102 67.025 77.106 67.031 77.115C67.067 77.169 67.113 77.214 67.167 77.249C67.185 77.261 67.199 77.272 67.218 77.281C67.285 77.314 67.359 77.339 67.439 77.339C67.451 77.339 67.462 77.339 67.474 77.338C67.549 77.333 67.618 77.308 67.679 77.274C67.683 77.272 67.687 77.273 67.691 77.271C67.712 77.259 67.724 77.24 67.744 77.224C67.773 77.202 67.803 77.18 67.826 77.152C67.846 77.127 67.858 77.098 67.873 77.07C67.889 77.042 67.905 77.015 67.915 76.983C67.926 76.95 67.926 76.915 67.929 76.88C67.931 76.854 67.941 76.83 67.939 76.804L67.469 70.057C67.469 70.049 67.464 70.043 67.463 70.036C67.459 70.002 67.446 69.971 67.436 69.938C67.426 69.908 67.418 69.876 67.403 69.85C67.399 69.842 67.399 69.833 67.394 69.827L66.686 68.695L70.321 71.303C70.352 71.325 70.385 71.344 70.422 71.359L74.165 72.903L77.755 83.756C69.734 90.424 59.439 94.44 48.221 94.44ZM48.221 2C73.719 2 94.463 22.734 94.463 48.221C94.463 62.105 88.298 74.57 78.569 83.049L75.038 72.373C75.036 72.367 75.031 72.363 75.028 72.356C75.016 72.324 74.996 72.295 74.977 72.266C74.961 72.242 74.951 72.214 74.932 72.194C74.929 72.191 74.926 72.188 74.923 72.185C74.907 72.169 74.887 72.159 74.868 72.145C74.835 72.119 74.803 72.092 74.764 72.075C74.76 72.074 74.757 72.07 74.753 72.068L70.853 70.459L65.283 66.461L65.231 66.379L64.452 65.142L64.449 65.131L62.631 59.637L61.391 50.449L61.592 41.798C61.593 41.75 61.587 41.702 61.574 41.655L59.719 34.796C59.715 34.781 59.704 34.771 59.699 34.757L59.685 34.707L56.983 29.187C56.964 29.15 56.943 29.116 56.916 29.084L54.391 26.09C54.381 26.078 54.367 26.072 54.356 26.062C54.332 26.038 54.306 26.018 54.278 26C54.249 25.981 54.22 25.966 54.189 25.954C54.174 25.948 54.164 25.937 54.148 25.933L49.121 24.482C49.118 24.481 49.114 24.482 49.111 24.481C49.079 24.472 49.046 24.475 49.013 24.472C48.978 24.47 48.944 24.464 48.91 24.469C48.907 24.47 48.904 24.468 48.9 24.469L45.972 24.959C45.971 24.959 45.969 24.961 45.967 24.961L45.937 24.966L41.022 26.152C41.005 26.156 40.993 26.168 40.977 26.173L40.931 26.185L37.334 27.837C37.313 27.847 37.3 27.863 37.282 27.875C37.252 27.894 37.222 27.912 37.196 27.937C37.171 27.962 37.152 27.991 37.133 28.02C37.121 28.039 37.103 28.052 37.093 28.073L34.568 33.279C34.562 33.292 34.563 33.305 34.558 33.318L34.536 33.364L31.117 45.744C31.116 45.747 31.117 45.75 31.117 45.753L31.107 45.788L28.691 59.214C28.691 59.215 28.691 59.217 28.691 59.218L28.687 59.243L28.158 63.648L24.593 65.807L24.578 65.806L23.523 65.729C23.521 65.729 23.519 65.73 23.517 65.73C23.516 65.73 23.515 65.729 23.514 65.729L23.118 65.708L19.815 65.485C19.777 65.482 19.742 65.491 19.706 65.497C19.689 65.499 19.672 65.498 19.655 65.502C19.644 65.505 19.633 65.509 19.622 65.513C19.619 65.514 19.616 65.517 19.612 65.518C19.567 65.535 19.522 65.553 19.483 65.582L13.941 69.67C13.904 69.697 13.87 69.731 13.842 69.767L10.446 74.169C10.408 74.218 10.381 74.273 10.363 74.332L10.359 74.347L10.29 74.581C5.07 67.099 2 58.014 2 48.221C2 22.734 22.734 2 48.221 2Z" fill="black" stroke="#151515" stroke-width="2" mask="url(#path-1-inside-1_1_78)"/>
</svg>
